<svg width="595" height="81" viewBox="0 0 595 81" fill="none" xmlns="http://www.w3.org/2000/svg">
<path d="M578.947 81H15.4879C15.4879 70.3599 8.55256 61.7355 0 61.7355V19.2673C8.55256 19.2673 15.4879 10.6429 15.4879 0H578.947C578.947 10.6429 585.882 19.2673 594.435 19.2673V61.7355C585.882 61.7355 578.947 70.3599 578.947 81Z" fill="#794626"/>
<path d="M29.754 55.5139L26.9762 49.8245C26.7804 49.4207 26.4302 49.1717 26.0517 49.1607L20.6852 49.0251C19.8521 49.003 19.3344 47.8939 19.7368 46.9895L22.3232 41.1617C22.5059 40.7496 22.5059 40.249 22.3232 39.8368L19.7368 34.0118C19.3344 33.1046 19.8521 31.9955 20.6852 31.9762L26.0517 31.8379C26.4302 31.8268 26.7804 31.5779 26.9762 31.1768L29.754 25.4846C30.1869 24.6023 31.2202 24.6023 31.6509 25.4846L34.4288 31.1768C34.6267 31.5779 34.9748 31.8268 35.3554 31.8379L40.7219 31.9762C41.5529 31.9955 42.0706 33.1046 41.6682 34.0118L39.0817 39.8368C38.899 40.249 38.899 40.7496 39.0817 41.1617L41.6682 46.9895C42.0706 47.8939 41.5529 49.003 40.7219 49.0251L35.3554 49.1607C34.9748 49.1717 34.6267 49.4207 34.4288 49.8245L31.6509 55.5139C31.2202 56.399 30.1869 56.399 29.754 55.5139Z" fill="white"/>
<path d="M562.785 55.5139L560.007 49.8245C559.811 49.4207 559.461 49.1717 559.083 49.1607L553.716 49.0251C552.883 49.003 552.366 47.8939 552.768 46.9895L555.357 41.1617C555.539 40.7496 555.539 40.249 555.357 39.8368L552.768 34.0118C552.366 33.1046 552.883 31.9955 553.716 31.9762L559.083 31.8379C559.461 31.8268 559.811 31.5779 560.007 31.1768L562.785 25.4846C563.215 24.6023 564.251 24.6023 564.681 25.4846L567.459 31.1768C567.657 31.5779 568.005 31.8268 568.386 31.8379L573.752 31.9762C574.585 31.9955 575.101 33.1046 574.7 34.0118L572.112 39.8368C571.929 40.249 571.929 40.7496 572.112 41.1617L574.7 46.9895C575.101 47.8939 574.585 49.003 573.752 49.0251L568.386 49.1607C568.005 49.1717 567.657 49.4207 567.459 49.8245L564.681 55.5139C564.251 56.399 563.215 56.399 562.785 55.5139Z" fill="white"/>
</svg>
