<svg width="26" height="25" viewBox="0 0 26 25" fill="none" xmlns="http://www.w3.org/2000/svg">
<path d="M12.6077 3.09399C7.0035 3.09399 2.46045 6.64974 2.46045 11.0359C2.46045 13.8717 4.35975 16.3599 7.21679 17.7649C7.06136 18.297 6.21797 21.1881 6.1844 21.4152C6.1844 21.4152 6.16421 21.5859 6.27553 21.6509C6.38686 21.716 6.5178 21.6655 6.5178 21.6655C6.83705 21.6212 10.2199 19.2625 10.8054 18.8529C11.3903 18.9351 11.9926 18.9778 12.6077 18.9778C18.212 18.9778 22.755 15.4222 22.755 11.0359C22.755 6.64974 18.212 3.09399 12.6077 3.09399Z" fill="#371D1E"/>
<path d="M6.99768 13.8081C6.67482 13.8081 6.41226 13.5592 6.41226 13.2532V9.80086H5.49881C5.182 9.80086 4.92432 9.54556 4.92432 9.23185C4.92432 8.91815 5.1821 8.66284 5.49881 8.66284H8.49655C8.81336 8.66284 9.07104 8.91815 9.07104 9.23185C9.07104 9.54556 8.81326 9.80086 8.49655 9.80086H7.5831V13.2532C7.5831 13.5592 7.32054 13.8081 6.99768 13.8081ZM12.131 13.8006C11.8869 13.8006 11.7002 13.7022 11.6439 13.5439L11.354 12.7906L9.56884 12.7905L9.27877 13.5443C9.22266 13.7023 9.03601 13.8006 8.79189 13.8006C8.66348 13.8007 8.53656 13.7734 8.41976 13.7204C8.25838 13.6465 8.10324 13.4433 8.28102 12.8952L9.68134 9.2365C9.77998 8.95824 10.0796 8.67156 10.4609 8.66294C10.8433 8.67146 11.1429 8.95824 11.2418 9.23708L12.6415 12.8941C12.8197 13.4435 12.6645 13.6468 12.5032 13.7205C12.3863 13.7734 12.2594 13.8007 12.131 13.8006C12.1309 13.8006 12.131 13.8006 12.131 13.8006V13.8006ZM11.0462 11.7613L10.4614 10.1123L9.87668 11.7613H11.0462V11.7613ZM13.5837 13.7234C13.2743 13.7234 13.0226 13.4844 13.0226 13.1907V9.24396C13.0226 8.92347 13.2907 8.66284 13.6202 8.66284C13.9497 8.66284 14.2179 8.92347 14.2179 9.24396V12.658H15.4619C15.7713 12.658 16.0229 12.897 16.0229 13.1907C16.0229 13.4844 15.7713 13.7234 15.4619 13.7234H13.5837ZM16.8361 13.8006C16.5132 13.8006 16.2506 13.5399 16.2506 13.2195V9.24396C16.2506 8.92347 16.5132 8.66284 16.8361 8.66284C17.1589 8.66284 17.4215 8.92347 17.4215 9.24396V10.493L19.0548 8.87166C19.1388 8.78827 19.2542 8.74236 19.3795 8.74236C19.5257 8.74236 19.6724 8.80492 19.7824 8.91398C19.8849 9.01568 19.9461 9.14652 19.9545 9.28241C19.963 9.41945 19.917 9.54507 19.8253 9.63621L18.4912 10.9603L19.9322 12.8553C19.9788 12.9161 20.0127 12.9855 20.032 13.0594C20.0513 13.1333 20.0556 13.2102 20.0446 13.2858C20.0342 13.3614 20.0088 13.4342 19.9698 13.5C19.9308 13.5658 19.879 13.6233 19.8175 13.6691C19.7163 13.7454 19.5925 13.7867 19.4654 13.7863C19.3747 13.7868 19.2851 13.7661 19.2039 13.726C19.1227 13.6859 19.0521 13.6274 18.9977 13.5553L17.6248 11.7496L17.4217 11.9513V13.2192C17.4215 13.3733 17.3597 13.5211 17.2499 13.6301C17.1402 13.7391 16.9913 13.8004 16.8361 13.8006V13.8006Z" fill="#FAE100"/>
</svg>
