<svg width="556" height="124" viewBox="0 0 556 124" fill="none" xmlns="http://www.w3.org/2000/svg">
<g filter="url(#filter0_d_548_7191)">
<path d="M89.3078 29.8C89.4078 29.7 89.3078 29.6 89.5078 29.6C93.6078 29.3 98.7078 29.6 103.608 29.6C105.208 29.6 108.108 29.4 108.308 29.6C108.908 30.1 108.508 35.7 108.508 38C108.508 39.4 108.508 40.9 108.508 42.3C108.508 44.3 108.908 46.6 108.108 47.6C107.908 47.8 107.608 47.6 107.508 48.2C107.408 48.9 108.108 50.4 108.308 51.2C108.908 53.6 109.308 56.3 110.208 58.8C110.308 59.1 110.408 60 110.808 60C111.508 60.1 111.808 58.5 112.208 57.4C112.808 55.6 113.308 53.3 114.008 51C114.308 50.2 115.008 48.3 114.808 48C114.408 47 112.608 47.9 112.008 47.2C111.608 46.7 112.008 43.5 112.008 42.7C112.008 39.2 112.008 37.5 112.008 33.7C112.008 31.8 111.608 30.1 112.208 29.6C112.608 29.2 116.308 29.6 117.108 29.6C120.808 29.6 122.708 29.6 126.708 29.6C127.908 29.6 131.008 29.3 131.408 29.6C131.908 30.1 131.608 32.6 131.608 33.9C131.608 37.1 131.608 39.4 131.608 42.9C131.608 44.1 131.808 46.8 131.608 47.2C131.208 47.6 128.908 47.2 128.508 47.8C128.208 48.3 129.008 49.9 129.308 51C130.208 54 130.708 56 131.808 58.8C132.208 59.7 131.908 60 132.408 60C133.508 60.1 133.908 55.5 134.208 54.3C134.608 52.7 135.108 51.4 135.508 49.8C135.708 49.1 136.108 48.3 135.708 47.8C135.408 47.4 135.108 47.4 134.908 46.7C134.608 45.8 134.908 44 134.908 42.5C134.908 39.4 134.908 37.2 134.908 33.9C134.908 32.6 134.808 29.9 134.908 29.8C135.308 29.3 138.508 29.6 139.608 29.6C144.708 29.6 148.408 29.6 153.708 29.6C153.708 29.6 154.208 29.5 154.308 29.6C154.908 30.2 154.508 37.2 154.508 38.4C154.508 40.8 154.508 42.4 154.508 45.1C154.508 45 154.608 47 154.508 47.2C153.608 48.2 148.208 46.8 146.908 47.6C146.408 47.9 146.008 48.9 145.708 50.2C145.508 50.8 145.408 51.3 145.308 51.9C144.908 53.2 144.508 54.9 144.108 56.3C143.008 60.4 142.008 63.9 140.808 68.4C140.608 69.2 140.008 71.1 140.208 71.5C140.708 72.5 142.208 71.4 142.808 72.3C143.108 72.7 142.808 75.2 142.808 76.8C142.808 80.6 142.808 83.5 142.808 87.6C142.808 88.4 143.108 89.3 142.808 89.6C142.408 90.1 138.808 89.8 137.908 89.8C133.908 89.8 132.408 89.8 127.908 89.8C126.108 89.8 123.508 90 123.208 89.6C122.908 89.3 123.208 86 123.208 85.1C123.208 82 123.208 80.1 123.208 76.6C123.208 75.3 122.908 72.7 123.208 72.3C123.708 71.7 125.008 72.4 125.508 71.7C126.108 70.8 124.408 67.9 123.808 65.9C123.508 65 123.408 64.1 123.008 62.9C122.808 62.4 122.408 60.5 121.808 60.4C120.808 60.4 119.808 64.9 119.508 65.7C119.108 67.2 118.608 68.3 118.108 70C117.808 71.1 117.208 71.7 118.708 72.1C119.108 72.2 119.908 71.9 120.208 72.3C120.308 72.6 120.208 75.9 120.208 76.8C120.208 80.7 120.208 83.6 120.208 87.6C120.208 88.3 120.308 89.4 120.208 89.6C119.608 90.3 116.708 89.8 115.508 89.8C111.808 89.8 109.708 89.8 105.708 89.8C103.908 89.8 101.108 90.1 100.808 89.8C100.308 89.4 100.608 86.7 100.608 85.6C100.608 82.2 100.608 80.3 100.608 76.6C100.608 75.1 100.408 72.5 100.608 72.3C101.008 71.7 102.808 72.1 103.208 71.7C103.708 71 102.308 67.3 102.008 66.4C101.808 65.7 101.608 65 101.408 64.1C100.108 59.6 99.1078 55.6 97.7078 50.4C97.4078 49.4 97.0078 47.8 96.7078 47.6C96.1078 47.2 94.5078 47.4 93.0078 47.4C91.6078 47.4 89.6078 47.6 89.3078 47.4C88.8078 46.9 89.1078 40.1 89.1078 38.8C89.1078 34.9 89.0078 32.9 89.1078 30.2C89.1078 29.9 89.2078 30 89.3078 29.8ZM157.408 30.8C158.308 30.5 159.608 31 159.208 33C159.308 33 158.908 33.1 159.008 33.2C159.408 33.5 159.108 33.4 159.008 33.6C159.008 33.8 159.308 33.8 159.208 34C159.208 34.1 159.008 34.2 159.008 34.4C159.208 36.3 159.208 40.3 159.208 42.7C159.308 44.4 159.208 45.6 159.008 46.7C159.108 46.6 159.408 46.8 159.208 46.9C158.508 47.5 159.508 50.5 158.608 51.5C158.108 52.2 156.908 52.2 155.608 52.3C154.508 52.5 151.608 52.3 151.208 52.5C150.808 52.9 151.208 53.9 150.908 55C150.808 55.2 150.408 55.5 150.308 55.8C150.108 56.1 150.508 56.6 150.408 57C150.208 57.5 149.808 57.9 149.608 58.4C149.508 58.7 149.508 58.8 149.408 59C149.308 59.1 149.708 59.2 149.608 59.4C149.508 59.5 149.508 59.8 149.408 60C149.108 60.4 149.108 60 149.208 60.4C149.208 60.5 148.908 60.9 148.808 61C148.708 61.1 148.708 61.3 148.608 61.4C148.508 61.5 148.208 61.6 148.208 61.6C148.108 61.7 148.408 61.8 148.408 62C148.408 62.1 147.608 62.7 147.808 63.2C148.008 63.9 147.508 63.1 147.408 63.6C147.308 63.9 147.708 64.4 147.608 64.6C147.508 64.8 147.108 65.1 147.008 65.4C146.908 65.6 147.008 65.9 147.008 66C146.908 66.2 146.408 66.2 146.408 66.6C146.408 66.8 146.608 66.9 146.608 67C146.508 67.3 146.008 67.5 146.008 67.6C145.808 68 146.108 69.4 145.208 69.6C144.408 69.9 143.508 69.2 143.308 68.8C142.808 67.8 143.808 66.8 144.208 65.8C144.208 65.6 144.108 65.4 144.208 65.2C144.208 65.1 144.508 65.1 144.608 65C144.708 64.6 144.308 64.5 144.408 64.2C144.408 64.1 144.708 63.9 144.808 63.6C144.908 63.1 145.008 62.7 145.208 62.2C145.308 62 145.508 61.9 145.608 61.6C145.708 61.3 145.608 61.1 145.808 60.8C145.808 60.7 145.808 60.1 146.008 60C146.008 59.9 146.508 59.8 146.608 59.8C146.608 59.7 146.908 59.3 146.608 59.2C146.208 59 146.308 58.8 146.408 58.6C146.708 57.7 147.208 57.3 147.408 56.4C147.708 54.9 147.808 53.7 148.408 51.5C148.708 50.5 150.008 50 150.808 49.7C151.708 49.4 153.108 49.9 153.808 49.9C154.308 49.9 155.808 49.8 156.008 49.5C156.608 48.9 156.308 45 156.208 44.1C156.208 43.6 156.208 43.2 156.208 42.7C156.308 41.2 156.408 37.6 156.408 35.2C156.408 34.5 155.908 31.6 156.808 30.8C156.908 30.7 157.308 30.8 157.408 30.8ZM147.808 60.3C147.708 60.2 147.508 60.4 147.608 60.5C147.608 60.5 147.908 60.4 147.808 60.3ZM91.2078 48.9C91.5078 48.8 91.2078 48.9 91.4078 48.9C92.1078 48.9 93.7078 48.5 94.8078 48.7C95.4078 48.9 96.0078 49.4 95.8078 50.3C95.9078 50.2 95.7078 51 95.8078 50.7C95.6078 51.2 92.3078 51.9 91.0078 51.3C90.9078 51.3 89.9078 50.5 90.0078 49.7C90.2078 48.8 90.6078 49.2 91.2078 48.9ZM146.208 72.2C147.108 71.8 148.308 72.3 148.208 73.6L147.808 74C147.808 74.1 148.008 74.2 148.008 74.4C147.908 74.9 147.608 75.4 147.608 76.2C147.608 77 147.808 77.8 147.808 78.4C147.708 79.3 147.508 80.4 147.408 81.6C147.208 83.9 147.208 86.7 147.208 88.9C147.208 90.6 147.908 91.4 146.608 92.1C146.408 92.2 146.408 92.3 146.208 92.3C145.408 92.4 145.708 92.6 145.408 93.3C145.008 94 143.008 94.4 141.708 94.5C140.908 94.6 140.108 94.3 139.308 94.3C136.508 94.3 132.908 94.8 130.108 94.5C129.208 94.4 128.408 94.4 127.408 94.3C127.108 94.2 126.708 94 126.208 93.9C124.708 93.6 124.408 94.1 124.008 93.1C123.008 90.5 125.308 91.5 128.308 91.7C130.508 91.8 132.908 91.8 135.308 91.7C136.208 91.7 136.908 91.7 137.708 91.7C138.108 91.7 138.408 91.5 138.708 91.5C139.408 91.5 140.608 91.8 141.508 91.7C141.808 91.7 142.208 91.4 142.708 91.3C143.308 91.1 144.108 91.1 144.208 91.1C144.308 91 144.308 90.3 144.408 89.5C144.408 89.1 144.508 88.5 144.608 88.1C144.608 87.9 144.308 87.9 144.408 87.7C144.408 87.1 144.808 86.5 144.808 86.1C144.808 85.5 144.408 85 144.408 84.4C144.408 84.4 144.608 84.2 144.608 84C144.508 84 144.408 84 144.408 83.8C144.308 83.7 144.608 83.6 144.608 83.4C144.508 83.4 144.408 83.4 144.408 83.2C144.408 83.2 144.608 83 144.608 82.8C144.508 82.5 144.208 80.7 144.808 80.2C145.408 79.6 144.708 80.1 144.808 79C144.808 78.9 145.208 78.6 145.208 78.6C145.208 78.3 145.008 78.3 145.008 78.2C145.008 77.3 145.308 76.3 145.408 75.4C145.408 75.1 145.208 75.1 145.208 75C145.208 74.8 145.408 74.7 145.408 74.4C145.408 74.3 145.108 74.2 145.208 74C145.208 74 145.408 74 145.408 73.8C145.408 73.7 145.108 73.8 145.208 73.6C145.208 73.5 145.608 73.4 145.608 73.4C145.708 72.4 145.008 72.6 146.208 72.2ZM147.608 77.2C147.508 77.1 147.308 77.3 147.408 77.4C147.408 77.5 147.708 77.3 147.608 77.2ZM106.508 91.1C106.508 91.1 106.608 90.8 106.708 90.9C107.308 91.6 111.908 90.9 112.408 90.9C112.908 90.9 113.408 91.1 113.808 91.1C114.408 91.1 115.308 90.9 116.208 90.9C118.408 90.9 120.408 91.2 120.408 92.5C120.408 93.1 119.708 93.7 119.008 93.9C118.208 94.1 117.208 93.7 116.408 93.7C115.808 93.7 115.108 93.9 114.408 93.9C113.608 93.9 112.808 93.5 112.208 93.5C111.808 93.5 111.908 93.8 111.308 93.9C111.108 93.9 110.708 93.7 110.308 93.7C109.208 93.8 108.608 93.8 107.108 93.7C106.208 93.7 104.308 94.1 102.908 93.7C102.108 93.5 100.808 93.2 101.308 91.7C101.308 91.6 101.708 91.6 101.708 91.5C101.708 91.4 101.608 91.1 101.708 91.1C101.908 90.9 103.008 91.3 103.708 91.3C104.908 91.3 105.708 91.1 106.508 91.1ZM187.39 29.6C187.49 29.5 187.39 29.4 187.59 29.4C191.69 29.1 199.39 29.4 205.39 29.4C206.99 29.4 210.99 29.1 211.29 29.4C211.89 29.8 211.49 32.7 211.49 33.7C211.49 37 211.49 39 211.49 42.6C211.49 44.2 211.79 46.6 211.49 46.9C210.99 47.6 209.19 47 208.09 47.1C206.89 47.3 207.09 47.7 207.39 49C208.39 52.5 210.19 56.5 211.29 59.6C211.79 60.8 211.89 61.8 212.29 62.9C213.09 64.8 213.69 66.4 214.59 69C214.99 70.2 215.59 71.7 215.79 71.8C216.49 72.3 219.49 72 221.29 72C223.59 72 226.19 71.7 226.59 72.3C226.89 72.5 226.59 75.5 226.59 76.7C226.59 80.8 226.79 83.8 226.59 88C226.59 88.2 226.69 89.6 226.39 89.8C225.99 90.2 221.29 89.8 220.29 89.8C216.29 89.8 212.89 89.8 208.49 89.8C206.89 89.8 202.99 90.2 202.49 89.8C201.99 89.3 202.29 86.5 202.29 85.5C202.29 82.2 202.29 80.2 202.29 76.5C202.29 75.1 202.09 72.5 202.29 72.3C202.79 71.7 204.39 72.2 205.39 72C205.39 72.1 206.19 71.9 206.19 71.8C206.59 71.4 205.99 69.3 205.39 69C204.29 68.3 200.39 68.8 197.79 68.8C196.19 68.8 193.59 68.4 192.89 69.8C192.79 70.2 192.49 71.1 192.69 71.4C193.49 72.9 195.89 71.1 196.79 72.3C197.09 72.6 196.79 75.5 196.79 76.7C196.79 81 196.89 83.6 196.79 88C196.79 88.9 197.19 89.8 195.79 89.8C189.89 89.8 184.79 89.8 178.89 89.8C177.39 89.8 173.39 90.2 172.89 89.8C172.29 89.3 172.69 82.5 172.69 81C172.69 78.8 172.69 76.9 172.69 74.3C172.69 73.6 172.49 72.5 172.69 72.3C173.49 71.3 181.09 72.6 182.49 72C183.69 71.6 184.49 68.2 185.19 66.3C187.09 61 188.39 57.6 190.29 52.4C190.39 52.1 190.39 51.9 190.49 51.6C190.69 51.1 190.99 50.4 191.29 49.4C191.59 48.6 191.89 48.1 191.69 47.7C191.19 46.8 190.59 47.2 189.69 47.1C189.09 47.1 187.69 47.5 187.19 46.9C186.89 46.6 187.19 39.5 187.19 38.3C187.19 34.5 187.09 32.7 187.19 30C187.19 29.7 187.29 29.7 187.39 29.6ZM199.09 52.4C198.89 52.8 197.99 54.8 197.19 57.1C196.99 57.8 195.49 62.1 195.79 62.4C196.19 63.1 198.29 62.9 199.49 62.9C200.29 62.9 202.99 63.1 203.39 62.4C203.69 61.9 202.49 58.7 201.89 56.9C200.99 54.1 200.49 52.2 200.09 51.8C199.79 51.6 199.69 51.8 199.49 51.8C199.09 51.9 199.19 52.1 199.09 52.4ZM211.79 27.2C211.79 27 212.09 27.1 211.79 27.2V27.2ZM211.39 27.4C211.49 27.2 211.59 27.2 211.79 27.2C211.79 27.4 211.59 27.4 211.39 27.4ZM214.39 33.8C214.39 34.6 214.79 33.9 215.19 34C215.39 34.2 216.59 34.1 216.79 34.6C217.09 35.1 216.39 36.5 216.39 37.2C216.39 37.5 216.49 38.2 216.59 38.8C216.69 39.4 216.69 39.6 216.59 39.8C216.59 40 216.99 40 216.99 40C216.99 40.4 216.69 40.9 216.59 41.2C216.39 42.9 216.69 45.4 216.59 47.3C216.59 48 216.39 48.8 216.39 49.3C216.39 50 216.79 49.9 216.79 50.1C216.89 50.5 216.69 51.2 216.59 51.3C216.19 51.9 214.49 51.4 214.19 51.7C214.09 51.9 214.59 53.7 214.79 54.3C215.29 55.9 216.19 57.7 216.39 59C216.39 59.1 216.29 59.3 216.19 59.2C216.49 60 216.89 60.9 217.19 61.8C217.69 63 218.09 64.7 218.59 66C218.69 66.1 218.99 66.2 218.99 66.4C218.99 66.4 218.99 66.7 218.99 67C219.39 68.3 219.79 69.4 218.99 70C218.59 70.4 217.19 69.8 217.19 69.8C216.69 69.4 216.89 68.8 216.79 68.4C216.69 67.6 215.69 65.7 215.39 64.8C215.09 63.8 215.09 63.1 214.79 62.4C214.49 61.6 214.19 60.9 213.99 60.2C213.89 59.6 213.79 58.6 213.59 58.4C213.49 58.2 213.49 58.1 213.39 57.7C213.09 57.1 212.79 56.3 212.59 55.7C212.49 55.3 212.49 54.9 212.39 54.5C211.89 52.9 210.79 50.9 211.19 50.1C211.49 49.5 213.99 49.4 213.99 49.3C214.69 48.3 213.79 45.1 213.79 44.5C213.79 43.8 213.99 43.1 213.99 42.5C214.09 39.9 213.49 36 214.39 33.8ZM211.19 52.4C211.09 52.3 210.89 52.5 210.99 52.6C211.09 52.6 211.29 52.5 211.19 52.4ZM212.19 27.6C212.19 27.4 212.49 27.5 212.19 27.6V27.6ZM199.69 60.8C199.69 60.6 199.99 60.4 199.69 60.4C199.39 60.4 198.99 60.9 198.69 60.8C198.89 60.8 198.29 60 198.29 60.2C198.09 59.7 198.09 58.3 198.09 58.4C198.69 57.8 200.29 58.3 200.49 59.2C200.59 59.5 200.69 60.5 199.69 60.8ZM196.69 54.8C196.39 54.9 196.69 55 196.69 54.8V54.8ZM229.69 73.1C230.19 72.8 230.99 72.8 231.29 73.1C231.79 73.4 231.29 76.8 231.29 78.7C231.29 81.9 231.49 83.5 231.49 86.1C231.49 86.8 231.29 87.5 231.29 88.2C231.29 88.1 231.59 88.3 231.49 88.4C231.19 88.6 231.39 89.4 231.29 89.8C231.19 90.2 231.09 90.6 230.69 91L230.49 91.2C230.29 91.5 230.09 92.4 229.89 92.6C229.79 92.7 229.59 92.7 229.49 92.8C229.39 92.8 228.99 93.1 228.69 93.2C228.19 93.4 227.69 93.2 227.09 93.4C226.89 93.4 226.69 93.7 226.49 93.8C226.19 93.8 225.89 93.7 225.69 93.8C225.09 93.9 224.59 94.2 224.29 94.2C223.79 94.2 223.79 94 223.49 94C222.19 94 219.39 94.1 217.39 94.2C216.79 94.2 216.19 94.2 215.59 94.2C215.49 94.2 215.09 94.4 214.79 94.4C214.59 94.4 214.39 94.2 213.99 94.2C212.59 94.2 211.79 94.6 210.19 94.4C209.99 94.4 209.79 94.2 209.79 94.2C209.59 94.2 209.59 94.4 209.39 94.4C208.49 94.3 207.09 94.1 205.99 93.8C205.89 93.8 205.19 93.7 204.99 93.6C204.29 93.1 203.99 92.3 204.29 91.8C204.69 91.1 205.79 91.6 207.19 91.8C207.79 91.8 208.49 91.7 209.19 91.8C209.69 91.8 210.39 92.2 210.79 92.2C211.39 92.2 212.69 91.8 212.99 91.8C213.29 91.8 213.79 92 214.19 92C215.09 92 216.09 91.8 217.39 91.8C218.09 91.8 218.89 91.8 219.59 91.8C221.79 91.8 223.29 91.8 225.69 91.4C226.19 91.3 226.79 90.8 227.49 90.8C227.69 90.8 227.99 91 228.09 91C228.29 90.8 228.79 89.9 228.89 89.4C229.19 87.5 228.89 84.8 228.89 83.1C228.99 80.3 228.89 76.9 229.09 74.7C229.09 74.3 229.49 74.2 229.49 74.1C229.59 73.7 228.99 73.4 229.69 73.1ZM196.49 91.5C196.89 91.5 197.49 91 197.69 91.9C197.79 92.5 198.29 92.3 198.29 92.7C198.29 93.2 197.69 93.8 196.89 93.9C196.99 93.9 196.79 93.6 196.69 93.7V94.1C195.99 94.3 194.39 94.1 193.49 94.3C193.09 94.4 192.69 94.7 192.49 94.7C192.09 94.7 191.49 94.5 190.89 94.5C190.39 94.5 189.89 94.7 189.49 94.7C188.39 94.7 187.29 94.3 186.19 94.3C183.79 94.2 181.19 94.5 179.39 94.3C178.69 94.2 177.89 93.9 176.99 93.7C176.89 93.7 176.79 93.8 176.59 93.7C176.39 93.6 176.29 93.5 175.99 93.5C175.49 93.4 175.09 93.9 174.79 92.9C174.19 91.1 174.99 91.6 177.59 91.7C178.09 91.7 178.69 91.4 178.99 91.5C179.49 91.5 179.19 91.8 180.19 91.9C181.29 91.9 181.89 91.7 182.79 91.7C183.19 91.7 183.59 91.9 183.99 91.9C184.39 91.9 184.79 91.7 185.19 91.7C187.79 91.8 190.39 92.1 192.89 91.9C193.19 91.9 193.29 91.7 193.49 91.7C193.59 91.7 193.69 91.9 193.89 91.9C194.19 91.8 194.39 91.5 194.69 91.5C195.49 91.4 195.99 91.4 196.49 91.5ZM244.991 29.8C245.191 29.7 244.991 29.7 245.191 29.6C250.291 29.3 256.391 29.6 262.391 29.6C264.091 29.6 267.391 29.5 267.691 29.8C268.091 30.3 267.691 36.8 267.691 38C267.691 41.6 267.991 44.2 267.691 46.2C267.591 46.7 267.691 47 267.491 47.4C267.291 47.8 266.891 47.9 266.891 48.2C266.891 48.4 267.091 48.7 267.291 49C267.591 49.6 267.991 50.3 268.491 50.9C268.691 51.1 269.291 52.1 269.491 52.5C270.391 53.9 271.191 55.1 272.191 56.6C272.691 57.4 272.791 57.8 273.591 58.6C274.791 59.8 274.591 57.7 274.691 56.4C274.691 54.1 274.691 52.9 274.691 50.5C274.591 47.8 274.791 47.6 272.391 47.4C271.991 47.4 270.491 47.7 270.191 47.2C269.891 46.9 270.191 43.8 270.191 42.7C270.191 38.6 269.991 35.6 270.191 31.5C270.191 31.2 270.091 29.9 270.391 29.6C270.691 29.3 272.391 29.6 272.791 29.6C278.191 29.6 281.591 29.6 287.491 29.6C287.991 29.6 289.591 29.5 289.791 29.6C290.291 30.1 289.991 37.2 289.991 38.6C289.991 41.1 289.991 42.8 289.991 45.4C289.991 45.8 290.091 47.1 289.791 47.4C289.191 47.9 285.891 47.1 285.291 47.6C284.591 48.2 284.891 51.8 284.891 53.5C284.891 58.5 284.891 60.7 284.891 65.8C284.891 67.1 284.491 71 285.091 71.7C285.491 72.2 286.091 72.1 287.291 72.1C288.091 72.2 289.391 71.8 289.791 72.1C290.191 72.5 289.991 75.4 289.991 76.4C289.991 80.7 289.991 83.3 289.991 87.6C289.991 88.1 290.191 89.4 289.991 89.7C289.491 90.2 285.291 89.9 284.291 89.9C279.691 89.9 277.691 89.9 272.591 89.9C271.191 89.9 267.491 90.2 267.091 89.7C266.891 89.4 267.091 86.3 267.091 85.4C267.091 82.3 267.091 80 267.091 76.8C267.091 75.1 266.791 73.3 267.091 72.7C267.491 71.9 267.491 72.4 268.291 72.1C269.091 71.9 269.691 71.7 269.091 70.5C268.991 70.3 268.691 70.1 268.491 69.9C267.791 68.6 266.391 66.3 265.891 65.4C264.491 63.3 264.091 62.5 262.991 61.1C262.891 60.9 262.591 59.7 261.791 60.1C260.891 60.5 261.391 64.2 261.391 65.8C261.391 67.6 261.091 70.8 261.591 71.5C262.491 72.8 263.691 71.3 264.391 72.3C264.691 72.7 264.391 75.7 264.391 76.8C264.391 80.5 264.591 83.9 264.391 88.1C264.391 89.4 264.791 89.9 262.991 89.9C258.291 89.9 254.691 89.9 249.491 89.9C248.191 89.9 245.291 90.2 244.791 89.7C244.491 89.3 244.791 81.8 244.791 80.7C244.791 78.5 244.791 76.3 244.791 74C244.791 73.4 244.691 72.4 244.991 72.1C245.691 71.6 250.091 72.6 250.991 71.9C251.691 71.3 251.391 67.8 251.391 66C251.391 61.5 251.391 58.9 251.391 53.7C251.391 52.2 251.791 48.5 251.191 47.8C250.591 47.1 249.291 47.4 248.291 47.4C247.491 47.4 245.491 47.8 244.991 47.4C244.391 46.9 244.791 40.3 244.791 38.8C244.791 35 244.691 32.5 244.791 30.3C244.891 29.9 244.891 30 244.991 29.8ZM292.891 32.3C293.391 31.9 294.591 32.5 294.691 32.7C294.691 32.7 294.491 33.7 294.491 34.9C294.491 36 294.691 37.2 294.691 38.1C294.691 38.8 294.291 39.4 294.291 39.9C294.291 40.7 294.791 41.5 294.491 42.6C294.491 42.6 294.091 42.9 294.091 43C294.091 43.2 294.391 43.5 294.491 43.8C294.491 44.1 294.291 44.1 294.291 44.4C294.291 44.5 294.491 44.6 294.491 44.8C294.491 44.7 294.291 44.9 294.291 45C294.291 45.1 294.491 45.4 294.491 45.8C294.491 46 294.291 46.3 294.291 46.6C294.291 47 294.491 47.3 294.491 47.6C294.491 48.3 294.091 49 294.091 49.6C293.991 50.6 294.491 51 294.091 51.6C293.891 51.9 293.491 52 292.891 52.2C292.591 52.3 291.791 52.6 291.491 52.6C290.991 52.7 289.691 52.4 289.691 52.4C289.391 52.6 289.191 56 288.991 57.2C288.991 57.9 288.791 58.5 288.791 59.1C288.891 61 288.991 62.9 288.791 65.7C288.791 66.1 288.591 66.4 288.591 66.7C288.691 67.3 288.891 68 288.791 68.5C288.791 68.6 288.591 68.7 288.591 68.9C288.691 69.1 288.891 69.7 288.391 69.9C287.791 70.2 286.391 69.2 286.191 68.9C286.091 68.6 286.291 67.7 286.191 67.1C286.191 67.1 285.891 67 285.991 66.9C286.191 66.8 286.191 65.7 286.191 64.9C286.291 63.2 286.391 61.6 286.391 60.7C286.491 60.2 286.191 59.5 286.191 59.3C286.191 59.1 286.391 59.1 286.391 59.1C286.391 58.7 286.491 58.8 286.391 58.5C286.291 57.6 286.491 57.5 286.591 56.2C286.691 55.7 286.791 55 286.791 54.6C286.891 54.4 286.591 54.3 286.591 54.2C286.591 54.2 287.091 52.4 286.991 52.4C286.591 52.1 286.991 50.3 286.991 50.2C287.491 49.8 290.991 50 291.291 49.8C291.491 49.6 291.791 48 291.891 47.2C291.991 45.4 291.691 43.5 291.891 41.5C291.991 40.5 291.991 39.5 292.091 37.9C292.091 38 292.391 37.8 292.291 37.7C291.891 37.5 292.191 34.7 292.291 34.1C292.291 33.4 292.391 32.6 292.891 32.3ZM289.091 61.6C289.091 61.5 288.591 61.7 288.691 61.8C288.791 61.8 289.191 61.7 289.091 61.6ZM248.291 48.7C248.691 48.7 249.291 48.6 249.491 48.7C249.891 48.9 250.591 50.6 249.491 51.1C249.591 51.1 247.191 51.3 247.291 51.3C246.591 51.1 246.091 50.2 246.091 49.9C246.091 50.2 246.191 49.2 246.091 49.5C246.191 49.2 247.091 48.7 248.291 48.7ZM246.291 50.5C246.191 50.5 245.991 50.6 246.091 50.7C246.091 50.8 246.391 50.6 246.291 50.5ZM262.891 66.4C263.591 65.9 264.791 66.4 264.891 67.2C264.991 67.9 264.491 68.8 264.291 68.8C263.191 69.2 262.591 67 262.691 66.4H262.891ZM292.991 71.7C293.691 71.3 294.791 71.8 294.991 72.1C295.091 72.3 294.591 73.1 294.591 73.6C294.491 74 294.791 74.6 294.791 75.2C294.791 75.5 294.591 75.8 294.591 76.2C294.591 76.5 294.791 76.5 294.791 76.8C294.791 78 294.591 79.3 294.591 80.4C294.591 82.7 294.891 83.9 294.791 86.2C294.791 86.3 294.491 86.3 294.591 86.4C294.591 86.7 294.591 86.7 294.591 87.2C294.591 87.6 294.791 87.6 294.791 87.8C294.791 88.2 294.391 88.6 294.391 89.1C294.391 89.9 294.891 90.4 294.191 90.9C294.091 91 293.591 90.9 293.591 91.1C293.491 91.3 294.191 92.6 293.791 93.3C293.291 94 290.991 94.2 289.291 94.5C288.791 94.6 288.291 94.9 287.891 94.9C286.691 95 284.991 94.5 283.491 94.5C283.091 94.5 282.991 94.7 282.491 94.7C282.191 94.7 281.791 94.5 281.491 94.5C278.991 94.6 276.391 94.7 274.291 94.5C273.191 94.4 272.291 94 271.391 93.9C271.091 93.9 270.591 94.1 270.191 94.1C270.291 94.1 270.091 93.9 269.991 93.9C269.791 93.9 269.591 94.1 269.191 94.1C268.891 94.1 268.591 93.8 268.191 93.7C268.291 93.7 267.691 93.8 267.391 93.5C267.391 93.5 266.991 92.2 267.191 91.9C267.591 91.3 269.291 91.6 271.191 91.7C271.591 91.7 271.891 91.4 272.191 91.5C272.891 91.5 273.991 91.8 274.691 91.9C276.491 92 277.991 92.1 279.091 92.1C282.091 92.1 284.291 92.1 286.491 92.1C287.791 92.1 291.591 91.9 291.791 90.7C291.791 90.2 291.691 89.7 291.791 89.1C291.791 88.2 292.091 87.3 292.191 86.2C292.291 83.4 291.691 77.7 292.191 75.8C292.191 75.7 292.091 75.2 292.191 75.2C292.591 74.7 292.891 75.5 292.391 74.8C291.991 74.3 292.591 74.3 292.391 73.8C292.191 73.3 292.391 72.9 292.791 72.1C292.891 71.9 292.691 71.9 292.991 71.7ZM256.891 91.1C256.991 91.1 256.891 90.9 256.891 90.9C256.991 90.7 257.491 91.3 257.691 91.3C258.191 91.3 258.991 90.9 259.791 90.9C260.091 90.9 260.391 91.2 260.991 91.3C260.991 91.3 261.591 91.2 261.991 91.3C262.391 91.3 262.691 91.2 263.191 91.3C263.691 91.3 264.191 91.5 264.391 91.7C266.191 93.6 263.091 94.1 260.791 93.9C258.491 93.7 254.891 93.8 251.691 93.7C250.991 93.7 250.191 93.8 249.491 93.7C249.491 93.7 249.091 94 248.891 93.9C248.791 93.9 248.091 93 248.091 92.7C248.091 91.3 251.191 91.3 252.491 91.3C253.691 91.2 255.291 91.4 256.091 91.3C256.291 91.2 256.291 91.1 256.291 91.1C256.491 91 256.591 91.3 256.491 91.3C256.691 91.2 256.691 91.1 256.891 91.1ZM311.359 29.6C311.459 29.5 311.359 29.4 311.559 29.4C317.059 29 323.459 29.4 329.359 29.4C331.459 29.4 334.159 29.4 337.159 29.4C338.659 29.4 346.159 29.1 346.659 29.6C346.759 29.7 346.659 32.7 346.659 34.1C346.659 37.8 346.659 39.3 346.659 43.1C346.659 44.1 347.059 46.7 346.459 47.2C346.159 47.4 340.059 47.2 339.359 47.2C337.659 47.2 335.159 46.8 334.459 47.4C333.659 48.1 334.059 51.6 334.059 53.3C334.059 58.7 334.059 60.2 334.059 65.8C334.059 67.8 333.659 71.1 334.259 71.7C334.959 72.6 338.059 71.5 338.759 72.3C338.959 72.6 338.759 75.7 338.759 76.8C338.759 80.6 338.759 83.3 338.759 87.6C338.759 88.1 338.859 89.5 338.759 89.7C338.359 90.1 335.459 89.9 334.059 89.9C329.559 89.9 326.459 89.9 321.759 89.9C320.659 89.9 319.659 90.2 319.359 89.9C318.659 89.3 319.159 82.4 319.159 81.1C319.159 79.4 319.159 78.6 319.159 76.6C319.159 75.3 318.959 72.6 319.159 72.3C319.459 71.9 320.459 72.2 321.359 72.1C321.959 72.1 322.859 72.4 323.459 71.9C324.459 71 323.859 61.7 323.859 59.9C323.859 57.9 323.859 56.2 323.859 53.5C323.859 52 324.259 48.3 323.659 47.6C322.859 46.7 318.259 47.2 316.059 47.2C315.159 47.2 311.559 47.4 311.359 47.2C310.759 46.7 311.159 44.2 311.159 42.9C311.159 39.4 311.059 32.9 311.159 30C311.159 29.7 311.259 29.8 311.359 29.6ZM349.559 30.8C350.059 30.5 350.659 30.6 350.959 30.8C351.659 31.4 351.459 35.5 351.359 36.9C351.359 37.7 351.359 38.6 351.359 39.7C351.359 42 351.159 44.1 350.959 46.1C350.859 47 350.959 48 350.759 48.8C350.659 49.1 350.459 49.2 350.359 49.4C350.159 50 350.259 50.9 349.759 51.2C349.759 51.2 347.959 51.2 347.559 51.4C346.859 51.7 342.659 51.5 341.159 51.6C340.759 51.6 340.259 51.9 339.559 51.8C339.459 51.8 339.159 51.5 339.159 51.6C338.859 51.9 338.759 55.5 338.759 55.8C338.659 55.9 339.059 56.2 338.959 56.4C338.859 56.5 338.359 56.5 338.359 56.6C338.359 57 338.859 57.5 338.959 58C338.959 58.3 338.759 58.8 338.759 59.2C338.759 59.6 338.959 59.9 338.959 60.2C338.959 60.5 338.759 60.8 338.759 60.8C338.759 61 338.959 61.2 338.959 61.4C338.959 61.4 338.659 61.5 338.759 61.6C339.059 63.3 338.959 67.7 338.359 68.1C338.259 68.1 337.059 68.1 336.759 67.9C336.159 67.5 336.259 66.6 336.259 64.3C336.359 63.4 336.359 61.8 336.259 60.4C336.259 56.8 336.659 54.1 336.459 52.4C336.459 51.8 336.359 51.5 336.259 51.2C336.259 51 335.959 50.6 336.059 50.2C336.159 50 337.559 49.4 337.959 49.4C339.159 49.1 340.259 49.2 343.159 49.2C343.159 49.2 343.159 48.9 343.359 49C343.359 49 343.359 49.2 343.559 49.2C343.959 49.1 344.359 48.8 344.759 48.8C344.859 48.7 345.259 48.9 345.559 49C345.759 49 348.059 48.7 348.159 48.6C348.559 48.2 348.259 46.7 348.359 45.5C348.559 44.1 348.959 42.7 348.959 40.9C348.959 40.3 348.959 39.7 348.959 39.1C348.959 37.7 348.559 32.5 349.159 31C349.259 30.8 349.359 31 349.559 30.8ZM335.659 54.6C335.559 54.5 335.359 54.7 335.459 54.8C335.459 54.9 335.759 54.7 335.659 54.6ZM317.259 48.8V48.6C317.459 48.4 317.559 48.8 317.459 48.8C318.059 48.8 319.159 48.6 320.259 48.8C321.159 48.9 322.859 49 322.359 50.2C322.259 50.4 321.959 50.4 321.959 50.6C321.859 50.6 321.959 50.9 321.959 51C321.459 51.3 319.859 51.2 319.459 51.2C319.259 51.2 318.959 51.2 318.659 51.2C317.759 51.1 316.659 51 315.859 50.8C314.759 50.5 313.959 50.3 314.059 49.6C314.159 48.6 315.259 48.9 316.059 49C316.259 49 316.759 48.8 317.259 48.8ZM321.759 50.2C321.659 50.1 321.459 50.3 321.559 50.4C321.559 50.4 321.859 50.3 321.759 50.2ZM341.159 72C343.059 71.2 342.859 72.5 342.959 74.8C343.059 77.6 343.059 79.1 342.959 81.1C342.959 81.4 343.159 81.6 343.159 81.9C343.159 83.4 343.059 86.6 343.159 88.3C343.259 89.1 343.159 91.9 342.959 92.3C342.759 92.7 341.459 93.2 340.559 93.5C340.359 93.6 340.059 93.9 339.959 93.9C339.459 94.1 338.759 93.8 338.159 93.9C337.659 94 337.259 94.3 336.959 94.3C335.559 94.5 334.059 94.3 332.659 94.3C330.559 94.4 329.859 94.6 327.459 94.3C326.859 94.3 326.259 94 325.659 93.9C324.859 93.9 323.559 94.4 322.659 94.1C322.559 94.1 321.359 93.9 321.259 93.7C320.959 93.5 320.759 92.6 321.059 92.1C321.459 91.3 322.459 92.2 323.659 92.1C324.459 92.1 325.259 91.7 325.859 91.7C326.359 91.7 326.859 91.9 327.459 91.9C330.159 92.1 332.559 91.6 335.459 91.7C336.059 91.7 336.759 92 337.159 91.9C337.359 91.9 338.059 91.5 338.759 91.3C339.459 91.1 340.159 91.2 340.359 90.9C340.659 90.5 340.559 88.8 340.559 87.3C340.559 86.3 340.359 85.2 340.359 84.5C340.359 81.3 340.559 78.6 340.559 75.8C340.559 75.7 340.259 75.5 340.359 75.2C340.459 74.5 340.259 72.9 340.759 72.2C340.859 72.1 341.059 72.1 341.159 72ZM368.158 29.5C368.258 29.3 368.058 29.3 368.358 29.2C371.858 29 374.358 29.2 377.758 29.2C384.758 29.2 392.958 29.2 400.958 29.2C402.858 29.2 405.058 29.1 405.258 29.5C405.658 29.9 405.258 33 405.258 33.9C405.258 37.6 405.258 40.9 405.258 44.8C405.258 45.6 405.458 46.6 405.258 46.8C404.858 47.4 402.258 47 400.758 47C396.758 47 395.458 47 391.458 47C389.458 47 387.358 46.9 386.958 47.2C386.158 47.9 386.258 53.8 386.758 54.4C387.358 55.1 392.558 54.8 394.458 54.8C396.158 54.8 398.858 54.8 400.558 54.8C401.158 54.8 402.258 54.6 402.458 54.8C402.958 55.2 402.658 58.1 402.658 59.1C402.658 60.2 402.858 63.3 402.658 63.6C402.258 64.1 395.658 63.8 394.658 63.8C393.358 63.8 387.858 63.2 386.958 64C386.358 64.4 386.058 70.7 386.758 71.5C387.558 72.5 393.858 71.9 395.658 71.9C397.658 71.9 400.458 71.9 402.858 71.9C403.058 71.9 404.858 71.8 405.058 71.9C405.558 72.3 405.258 75.4 405.258 76.4C405.258 80.1 405.258 81.5 405.258 85.6C405.258 87 405.458 89.6 405.058 89.9C404.858 90.1 401.758 89.9 400.358 89.9C390.758 89.9 382.458 89.9 372.658 89.9C370.858 89.9 368.258 90 368.158 89.9C367.458 89.3 367.958 82.6 367.958 81.1C367.958 79.6 367.958 78.4 367.958 76.6C367.958 75.3 367.758 72.4 367.958 72.1C368.858 71 374.658 72.8 375.858 71.7C376.658 71.1 376.258 66.9 376.258 65.8C376.258 61.2 376.258 58.5 376.258 53.3C376.258 51.4 376.558 47.9 376.058 47.4C375.558 46.7 373.758 47 372.258 47C371.158 47 368.558 47.4 368.158 47C367.558 46.5 367.958 39.8 367.958 38.4C367.958 34.7 367.758 32.4 367.958 29.9C367.958 29.5 367.958 29.6 368.158 29.5ZM407.358 32.7C408.058 32.2 408.858 32.6 409.158 32.9C409.458 33.3 408.958 34.3 409.158 35.1C409.358 36.2 409.958 35.9 410.158 36.7C410.258 37.3 409.758 38.2 409.758 39.3C409.758 39.9 409.958 41 409.958 42C409.958 42.9 409.958 43.9 409.958 44.8C409.858 45.5 409.658 46.1 409.558 46.8C409.558 46.7 409.758 48 409.558 48.6C409.458 48.9 408.858 49.1 408.758 49.4C408.758 49.5 408.758 49.7 408.758 49.8C407.758 51.3 407.658 51 405.358 51.2C404.858 51.3 404.458 51.4 404.058 51.4C400.558 51.6 397.058 51 393.858 51.2C393.358 51.2 392.758 51.2 392.258 51.2C391.858 51.2 390.858 51.1 391.058 51C390.658 51.2 390.958 52.4 390.058 52.6C389.858 52.7 388.958 52.5 388.858 52.4C388.758 52.4 388.458 51.8 388.458 51.4C388.358 51 388.158 49.9 388.258 49.8C388.258 49.4 388.658 49.6 388.858 49.4C388.958 49.3 388.858 48.7 389.058 48.6C389.658 48.2 392.158 48.8 393.858 48.8C395.058 48.8 395.858 48.6 397.058 48.6C398.258 48.6 399.358 48.9 401.058 48.8C401.258 48.8 401.358 48.6 401.458 48.6C402.458 48.9 404.358 48.7 405.358 48.6C405.958 48.5 406.558 48.6 406.758 48.4C407.058 48.1 406.858 44.9 406.958 43.8C406.958 42.6 407.158 41.7 407.158 40.8C407.058 38 406.158 35.3 406.958 33.1C407.058 32.9 407.158 32.8 407.358 32.7ZM368.658 48.8C369.058 48.5 370.858 48.9 372.058 48.8C372.358 48.8 372.958 48.5 373.358 48.6C374.258 48.8 375.358 49.6 375.358 50C375.358 50.8 374.258 51 373.158 51.2C372.558 51.3 372.558 51.4 372.058 51.4C371.958 51.4 371.858 51.2 371.858 51.2C371.258 51.3 370.658 51.6 370.458 51.6C370.258 51.6 370.158 51.2 369.658 51C368.658 50.6 368.358 51.1 368.258 50C368.258 49.4 368.258 49.1 368.658 48.8ZM405.358 57.4C406.558 56.8 407.258 57.6 406.958 58.6C406.758 59 406.758 60 406.758 60.4C406.758 60.6 406.958 60.7 406.958 61C406.958 61.1 406.758 61.2 406.758 61.4C406.758 62.5 407.258 63.1 406.558 63.8C405.758 64.5 406.258 64 406.358 65.4C406.358 66 406.058 67.3 405.958 67.4C404.958 68.5 400.758 68.1 398.858 68C398.458 68 398.058 68.2 397.458 68.2C395.658 68.3 393.058 67.8 391.658 67.8C391.358 67.8 390.558 68.1 390.658 68C390.258 68.2 390.858 69.2 390.258 69.4C389.958 69.5 389.858 69.8 389.658 69.8C388.858 69.9 388.358 69.2 388.158 68.4C388.058 67.8 388.058 66 388.158 65.8C388.258 65.7 388.858 65.7 389.058 65.6C389.258 65.6 389.858 65.4 390.458 65.4C390.758 65.4 390.758 65.6 391.058 65.6C391.358 65.6 391.458 65.4 391.858 65.4C392.258 65.4 392.658 65.6 393.058 65.6C393.858 65.6 395.058 65.4 395.858 65.4C397.158 65.5 398.558 65.5 400.058 65.6C401.258 65.7 403.258 65.6 403.858 65.2C404.258 65 403.858 65 404.058 64.4C404.058 64.5 404.358 63.8 404.258 63.8C404.958 63.3 404.758 64.1 404.558 63.4C404.458 63.2 404.358 62 404.258 61.8C404.258 61.4 404.458 60.7 404.558 60C404.558 59.3 404.458 58.6 404.558 58.2C404.558 57.8 404.858 57.6 405.358 57.4ZM408.058 73.9C408.458 73.7 408.958 73.5 409.458 73.9C409.858 74.2 409.758 75.8 409.858 76.7C409.958 77.4 410.158 78.3 410.258 79.3C410.258 79.7 410.058 80.3 410.058 80.9C410.058 81.3 410.458 81.8 410.458 82.1C410.458 82.9 410.258 83.8 410.258 84.5C410.158 86.3 409.958 86.1 410.058 88.6C410.058 90.3 410.458 90.8 409.258 91.6C408.458 92.1 409.458 92.5 408.858 93.4C408.758 93.6 407.658 94.5 407.258 94.6C406.258 94.9 405.058 94.4 403.758 94.4C403.158 94.4 402.658 94.7 401.958 94.8C401.258 94.9 400.558 94.5 399.758 95C399.158 95.4 397.058 95.5 396.158 95.6C396.158 95.6 395.958 95.4 395.758 95.4C395.358 95.5 393.858 95.4 393.158 95.4C391.758 95.4 388.958 95.5 386.858 95.4C386.558 95.4 386.158 95.2 386.058 95.2C385.758 95.2 385.658 95.4 385.258 95.4C384.858 95.3 384.358 95 383.858 95C383.358 95 382.758 95.2 382.258 95.2C381.558 95.2 380.858 94.8 380.258 94.8C380.058 94.8 380.058 95 379.858 95C379.658 95 379.658 94.8 379.458 94.8C379.058 94.8 379.058 95 378.658 95C378.158 95 377.758 94.8 377.258 94.8C376.358 94.8 375.058 95.2 374.258 95.2C373.858 95.2 373.358 94.9 372.858 94.8C371.458 94.6 370.358 94.9 369.958 94.6C369.558 94.2 369.658 92.7 369.758 92.6C369.958 92.4 371.058 92.4 371.758 92.4C372.458 92.4 373.158 92.6 374.058 92.6C374.758 92.6 375.558 92.2 376.458 92.2C376.858 92.2 377.858 92.4 378.658 92.4C380.858 92.4 382.858 92.5 384.658 92.6C387.358 92.7 390.758 92.8 394.558 92.8C395.258 92.8 396.258 92.8 396.558 92.8C397.158 92.8 397.858 92.8 398.558 92.6C398.858 92.5 399.258 92.2 399.558 92.2C402.358 91.8 405.358 92.6 407.258 91.6C408.158 91 407.558 91 407.458 89.6C407.358 89.1 407.558 88.4 407.658 87.8C407.658 87.5 407.458 87.4 407.458 87.3C407.458 87.3 407.558 86.4 407.658 85.7C407.758 84.5 407.858 83.3 407.858 82.1C407.758 80.7 407.458 78 407.458 75.9C407.358 75 407.258 74.1 407.458 73.9C407.458 73.8 407.958 73.9 408.058 73.9ZM410.858 77.5C410.758 77.4 410.958 77.2 411.058 77.3C411.158 77.4 410.858 77.5 410.858 77.5ZM406.458 92C406.358 91.9 406.558 91.7 406.658 91.8C406.758 91.9 406.458 92 406.458 92ZM426.71 29.4C426.91 29.3 426.71 29.2 426.91 29.2C432.01 28.8 435.91 29.2 440.61 29.2C442.81 29.2 445.21 29.2 447.41 29.2C450.11 29.2 452.81 29 454.91 29.4C458.01 30 460.01 31.4 461.91 33.5C462.21 33.9 462.51 34.6 462.91 35.1C463.01 35.3 463.41 35.5 463.51 35.7C463.71 36.1 463.71 36.6 463.91 37.2C464.21 37.8 464.61 38.5 464.91 39.4C466.61 44.5 467.01 52 467.01 59.2C467.01 66 466.61 72.4 465.11 77.6C464.31 80.6 463.51 82.8 461.91 85C460.91 86.2 460.31 86.6 459.21 87.4C458.51 87.9 457.41 88.6 456.11 89C452.61 90.2 446.11 89.9 440.81 89.9C438.51 89.9 436.11 89.9 433.51 89.9C431.81 89.9 427.11 90.3 426.51 89.7C426.21 89.3 426.51 86.4 426.51 85.2C426.51 83.4 426.51 82.2 426.51 80.7C426.51 78.4 426.21 72.3 426.71 71.9C427.01 71.7 430.21 71.9 430.81 71.9C432.51 71.9 434.31 72.1 434.71 71.7C435.51 71 435.11 67.2 435.11 65.8C435.11 61 435.11 58.4 435.11 53.1C435.11 51 435.21 47.9 434.71 47.4C434.11 46.7 432.21 47 430.81 47C430.01 47 427.21 47.3 426.71 47C426.11 46.5 426.51 39.9 426.51 38.4C426.51 34.7 426.41 32.2 426.51 29.8C426.61 29.5 426.61 29.6 426.71 29.4ZM445.51 47.4C444.81 48.4 445.11 51.2 445.11 53.3C445.11 57.5 445.11 61.2 445.11 65.6C445.11 67.9 444.91 71 445.31 71.5C446.11 72.4 452.01 72 452.91 71.7C453.71 71.4 455.51 70 456.11 68.4C457.01 66.3 456.81 62.8 456.81 59.4C456.81 55.4 456.81 51.7 455.71 50C455.31 49.4 454.81 48.5 454.31 48.2C454.01 48 453.71 47.7 453.51 47.6C452.11 46.9 447.11 46.5 445.91 47.2C445.71 47.3 445.71 47.2 445.51 47.4ZM466.51 35.1C467.31 34.7 467.81 35.3 468.31 36.1C468.51 36.3 468.41 36.7 468.51 36.9C468.61 37.1 468.81 37.1 468.91 37.3C469.31 38.2 469.61 39.4 469.81 40C469.81 40.3 469.81 40.7 470.01 41.2C470.01 41.5 470.31 42 470.41 42.4C470.61 43.4 470.91 44.4 471.01 45.2C471.01 45.3 470.71 45.4 470.81 45.6C470.91 46 471.11 47.2 471.21 48C471.31 48.9 471.51 49.7 471.61 50.6C471.61 51.1 471.41 51.6 471.41 52.2C471.41 52.6 471.41 53.1 471.41 53.4C471.31 55.2 471.51 56.8 471.61 58.3C471.61 58.7 471.61 59.1 471.61 59.5C471.51 59.7 471.41 59.8 471.41 59.9C471.41 60 471.51 61.4 471.61 62.1C471.61 63.3 471.71 64.5 471.81 65.7C471.81 69 471.31 71.9 471.01 75.2C470.91 75.5 470.81 75.9 470.81 76C470.71 76.4 471.01 76.5 471.01 76.8C470.91 77.1 470.61 77.1 470.61 77.6C470.61 77.6 470.81 77.8 470.81 78C470.71 78.1 470.61 78 470.61 78.2C470.31 79.7 469.71 81.6 468.71 83.2C468.61 83.5 468.71 83.5 468.51 83.6C468.61 83.6 468.31 83.9 468.31 83.8C468.11 84.3 468.21 85.1 467.91 85.4C467.81 85.6 467.41 85.7 467.31 85.8C467.21 86 467.31 86.3 467.11 86.4C466.71 87 466.01 87.4 465.51 88.1C465.21 88.4 465.21 88.8 464.91 89.1C464.41 89.5 463.61 89.9 463.11 90.3C462.81 90.5 462.71 90.9 462.51 91.1C462.21 91.3 461.81 91.3 461.51 91.5C461.31 91.6 461.31 91.8 461.11 91.9C460.51 92.2 459.61 92.7 458.71 93.1C458.31 93.2 457.91 93.3 457.71 93.5C457.11 93.9 457.31 94 456.91 94.7C456.91 94.7 455.71 95 455.71 94.9C455.41 94.6 454.81 94.5 454.11 94.5C453.21 94.4 452.11 94.7 450.61 94.7C448.41 94.7 445.61 94.9 443.01 94.9C441.81 94.9 440.71 95.1 440.01 95.1C439.01 95.1 438.11 94.8 437.11 94.7C435.71 94.5 434.31 94.5 432.71 94.3C431.91 94.2 430.81 94.1 430.31 93.5C430.11 93.2 429.81 92.4 429.91 92.3C430.21 91.7 433.11 92.1 433.71 92.1C435.51 92.2 436.91 92.4 437.91 92.5C439.71 92.6 440.71 92.3 442.01 92.3C443.61 92.2 445.11 92.3 446.61 92.3C447.41 92.3 448.11 92.1 448.81 92.1C449.01 92.1 449.01 92.3 449.21 92.3C449.21 92.3 449.41 92.1 449.61 92.1C450.21 92.1 450.61 92.3 451.01 92.1C451.21 92 451.71 92.1 452.41 92.1C453.01 92 453.51 91.8 454.11 91.7C454.31 91.6 454.41 91.8 454.91 91.7C455.11 91.6 455.31 91.4 455.71 91.3C455.91 91.2 455.91 91.4 456.51 91.3C457.21 91.1 458.11 90.9 458.91 90.5C459.01 90.4 458.81 90.1 459.11 90.1C459.51 90 459.51 89.8 459.71 89.7C459.81 89.6 460.01 89.7 460.11 89.7C460.91 89.2 461.71 88.6 462.31 88.1C462.61 87.8 462.91 87.7 463.11 87.4C463.31 87.2 463.31 86.9 463.51 86.6C463.91 86.2 464.41 85.9 464.71 85.4C466.81 82.7 468.11 78.7 468.51 74.6C468.71 73.2 468.81 71.8 468.91 70.3C469.01 69.5 469.11 68.8 469.11 67.9C469.31 66.4 469.31 65.6 469.11 63.3C469.11 63.1 468.91 63 468.91 62.9C468.91 62.4 469.11 61.4 469.11 60.7C469.21 60.3 469.11 60.5 469.11 59.9C469.21 58.5 468.81 57.2 468.71 55.9C468.71 55.4 468.91 54.8 468.91 54.2C468.91 53.7 468.71 53.3 468.71 52.8C468.81 52 469.01 51.2 468.91 50.4C468.91 49.1 468.51 46.9 468.31 45C468.31 44.7 468.61 44.6 468.51 44.4C468.41 43.6 468.01 42.5 467.71 41.6C467.51 40.5 467.31 39.5 467.11 38.7C467.01 38.4 466.91 38.2 466.71 37.9C466.71 37.8 466.81 37.5 466.71 37.3C466.71 37.2 466.41 37.2 466.31 37.1C466.31 37 466.41 36.7 466.31 36.5C466.31 36.5 465.91 36.4 465.91 36.3C465.81 35.9 466.11 35.7 466.11 35.5C466.31 35.1 466.21 35.3 466.51 35.1ZM430.51 48.9C431.81 48.9 433.51 48.6 433.71 49.7C433.81 50 433.61 50.8 433.31 51.1C433.01 51.5 432.31 51.2 431.51 51.1C431.61 51.1 431.41 51.5 431.31 51.3C431.01 51 430.41 51.2 429.71 51.1C428.21 50.9 426.61 50.5 427.11 49.3C427.21 48.9 429.11 48.9 430.51 48.9ZM448.11 50.2C448.61 50 449.51 50.2 449.91 50.6C450.21 50.9 449.81 51.1 449.91 51.8C450.01 52.3 450.31 52.5 450.31 52.8C450.41 53.3 450.11 54 450.11 54.6C450.11 55.5 450.21 56.3 450.11 57.7C450.11 58.9 450.51 60.2 450.51 61.5C450.51 61.8 450.31 62.1 450.31 62.1C450.31 62.3 450.61 62.3 450.51 62.5C450.51 62.9 450.11 63.1 450.11 63.5C450.11 63.7 450.51 63.9 450.51 64.1C450.71 64.8 450.71 66 450.71 66.5C450.81 68 450.81 69.4 449.91 69.7C449.71 69.8 448.51 69.4 448.31 69.1C448.21 69 447.91 67.3 447.91 66.7C447.81 65.2 448.01 63.7 447.91 62.3C447.91 61.1 447.51 59.8 447.51 58.5C447.51 57.6 447.71 56 447.71 54.2C447.71 53.8 447.71 53.4 447.71 53C447.71 52.8 447.71 52.5 447.71 52.2C447.71 51.2 447.21 50.7 448.11 50.2Z" fill="black"/>
<mask id="path-2-inside-1_548_7191" fill="white">
<path d="M2 0H550V116H2V0Z"/>
</mask>
<path d="M2 3H550V-3H2V3ZM550 113H2V119H550V113Z" fill="black" mask="url(#path-2-inside-1_548_7191)"/>
<path d="M2 3H550V-3H2V3ZM550 113H2V119H550V113Z" fill="black" fill-opacity="0.2" mask="url(#path-2-inside-1_548_7191)"/>
</g>
<defs>
<filter id="filter0_d_548_7191" x="0" y="0" width="556" height="124" filterUnits="userSpaceOnUse" color-interpolation-filters="sRGB">
<feFlood flood-opacity="0" result="BackgroundImageFix"/>
<feColorMatrix in="SourceAlpha" type="matrix" values="0 0 0 0 0 0 0 0 0 0 0 0 0 0 0 0 0 0 127 0" result="hardAlpha"/>
<feOffset dx="2" dy="4"/>
<feGaussianBlur stdDeviation="2"/>
<feComposite in2="hardAlpha" operator="out"/>
<feColorMatrix type="matrix" values="0 0 0 0 0 0 0 0 0 0 0 0 0 0 0 0 0 0 0.45 0"/>
<feBlend mode="normal" in2="BackgroundImageFix" result="effect1_dropShadow_548_7191"/>
<feBlend mode="normal" in="SourceGraphic" in2="effect1_dropShadow_548_7191" result="shape"/>
</filter>
</defs>
</svg>
