<svg width="152" height="65" viewBox="0 0 152 65" fill="none" xmlns="http://www.w3.org/2000/svg">
<path d="M133.26 62.299C132.62 62.3063 131.979 62.3136 131.283 62.2947C131.165 62.2627 131.102 62.2518 131.04 62.2518C126.693 62.2509 122.345 62.2506 117.998 62.2528C117.902 62.2528 117.805 62.2813 117.709 62.2966C116.822 62.3073 115.936 62.3233 115.049 62.327C114.385 62.3298 113.721 62.3068 113.057 62.3141C112.557 62.3196 112.058 62.3719 111.559 62.3703C111.28 62.3694 111.001 62.3014 110.69 62.2299C110.368 61.6722 109.99 61.2061 109.422 60.8673C109.422 60.8673 109.415 60.856 109.396 60.8375C109.255 60.7533 109.134 60.6875 109.013 60.6218C109.013 60.6218 109.002 60.6306 108.996 60.6111C108.964 60.5855 108.939 60.5795 108.914 60.5734C107.943 60.0354 106.832 59.9139 105.761 60.0948C104.578 60.2947 103.544 60.8534 102.98 61.8126C102.701 62.2865 102.28 62.3496 101.781 62.3515C99.98 62.3585 98.1792 62.3554 96.3783 62.3528C92.8941 62.3477 89.4099 62.3416 85.9257 62.3334C84.6632 62.3305 83.4007 62.3214 82.1382 62.3112C82.0309 62.3104 81.9239 62.28 81.7658 62.2315C80.9218 62.197 80.1288 62.1943 79.3358 62.1916C79.0173 62.2536 78.6998 62.3636 78.3802 62.3679C77.6483 62.3778 76.9153 62.3385 76.1831 62.3129C76.0625 62.3087 75.9435 62.2726 75.7734 62.2258C74.3938 62.196 73.0646 62.1912 71.7353 62.1896C71.6927 62.1896 71.6499 62.2222 71.6072 62.2396C71.477 62.2638 71.347 62.3083 71.2167 62.3091C70.1283 62.3149 69.0398 62.3054 67.9516 62.3154C67.1379 62.3229 66.3245 62.3645 65.5109 62.3682C64.9608 62.3708 64.4104 62.334 63.79 62.3153C62.6988 62.3148 61.6777 62.3115 60.6567 62.3149C60.434 62.3157 60.2114 62.3405 59.9888 62.3542C59.9136 62.3546 59.8383 62.3549 59.709 62.3392C59.0073 62.334 58.3597 62.3448 57.7121 62.3557C56.7305 62.3627 55.7489 62.3812 54.7674 62.3739C53.4888 62.3644 52.2103 62.3357 50.9318 62.3109C50.8377 62.309 50.7447 62.2718 50.5986 62.2256C50.4202 62.195 50.2944 62.1851 50.1687 62.1851C35.7546 62.1845 21.3405 62.1845 6.92639 62.1865C6.79192 62.1865 6.65745 62.2147 6.52298 62.2297C5.9601 62.3855 5.40334 62.3415 4.80797 62.1662C4.12627 61.7911 3.92738 61.2785 3.92848 60.6566C3.93761 55.4785 3.93365 50.3003 3.93364 45.1221C3.93364 44.4779 3.93355 44.4776 4.66931 44.3276C7.80461 43.6885 10.4559 42.3809 12.4084 40.18C14.7914 37.4938 15.659 34.4502 15.0975 31.1382C14.4569 27.36 12.2199 24.462 8.25221 22.5825C7.21664 22.092 6.11936 21.715 4.94463 21.5243C4.94463 21.5243 4.94223 21.5274 4.92397 21.5108C4.81808 21.4814 4.73044 21.4686 4.62058 21.4402C4.32206 21.3328 3.92029 21.4521 3.92188 20.9754C3.93957 15.6664 3.9301 10.3573 3.93534 5.04825C3.9364 3.97621 4.62256 3.41579 5.89154 3.41577C13.1205 3.41564 20.3494 3.41571 27.5783 3.41571C52.3994 3.4157 77.2204 3.41595 102.041 3.41296C102.373 3.41292 102.619 3.43488 102.811 3.73796C103.647 5.05808 104.963 5.7471 106.746 5.73084C108.51 5.71475 109.803 5.01447 110.62 3.70219C110.763 3.47232 110.912 3.41101 111.196 3.41113C123.91 3.41641 136.624 3.41557 149.338 3.41704C149.501 3.41706 149.668 3.42149 149.826 3.45112C150.623 3.60025 151.026 4.06892 151.218 4.70358C151.22 5.00316 151.224 5.30274 151.224 5.60232C151.224 23.9754 151.224 42.3484 151.223 60.7215C151.223 61.5621 150.86 62.0505 150.017 62.2607C149.698 62.3402 149.346 62.3516 149.01 62.3508C147.826 62.3482 146.642 62.3268 145.398 62.2884C143.898 62.2601 142.458 62.2554 141.017 62.2538C140.96 62.2537 140.902 62.2832 140.844 62.299C140.279 62.3063 139.714 62.3135 139.094 62.2945C137.158 62.2632 135.277 62.2579 133.396 62.2552C133.35 62.2552 133.305 62.2838 133.26 62.299ZM8.54483 60.9043C39.2682 60.9043 69.9917 60.9043 100.715 60.9042C101.359 60.9042 101.359 60.9039 101.392 60.3613C101.453 59.3745 102.47 58.5159 103.669 58.4687C103.964 58.4571 104.091 58.3865 104.053 58.1349C104.042 58.0611 104.051 57.9852 104.051 57.9103C104.051 41.3192 104.051 24.7281 104.051 8.13697C104.051 8.05134 104.044 7.9652 104.052 7.88018C104.072 7.68118 103.99 7.57479 103.734 7.59369C102.504 7.68419 101.25 6.75106 101.155 5.66294C101.124 5.31702 100.944 5.26401 100.581 5.26409C69.6685 5.27053 38.7555 5.27361 7.84256 5.25673C6.63787 5.25608 5.66301 6.01158 5.67449 7.0971C5.71758 11.175 5.69022 15.2534 5.69349 19.3316C5.69395 19.8975 5.5982 19.8078 6.2443 19.997C9.09913 20.8332 11.5849 22.1563 13.503 24.1448C17.0134 27.7837 18.1073 31.959 16.8541 36.495C15.4761 41.4827 11.7589 44.7635 6.0549 46.4348C5.80622 46.5077 5.68531 46.584 5.68582 46.8277C5.6945 50.9808 5.68983 55.134 5.69457 59.2871C5.69545 60.0627 6.31957 60.7213 7.2231 60.8643C7.62727 60.9282 8.05309 60.894 8.54483 60.9043ZM109.198 50.2061C109.198 52.7536 109.205 55.301 109.19 57.8484C109.188 58.1774 109.304 58.3046 109.684 58.2561C109.745 58.2483 109.81 58.2548 109.873 58.2561C111.327 58.2857 112.623 59.2492 112.755 60.4708C112.797 60.8552 112.947 60.9103 113.344 60.9101C124.415 60.9022 135.486 60.904 146.556 60.9033C147.813 60.9032 148.649 60.1973 148.649 59.1363C148.65 41.7641 148.649 24.3919 148.648 7.01975C148.648 6.89255 148.642 6.76188 148.608 6.6387C148.366 5.7474 147.644 5.27101 146.536 5.27095C135.515 5.27032 124.495 5.27023 113.475 5.27245C113.213 5.2725 112.909 5.23874 112.707 5.33968C112.586 5.40059 112.63 5.69233 112.591 5.87886C112.331 7.09894 111.036 7.91098 109.698 7.85133C109.201 7.82917 109.2 7.84885 109.198 8.26879C109.198 8.37583 109.198 8.48287 109.198 8.5899C109.198 22.4406 109.198 36.2912 109.198 50.2061ZM106.338 31.6733C106.37 31.7346 106.402 31.796 106.461 31.9084C106.649 31.4793 106.604 30.3925 106.336 30.174C106.336 30.7022 106.336 31.1591 106.338 31.6733ZM106.336 57.4589C106.349 57.6498 106.363 57.8407 106.377 58.0316C106.438 58.0279 106.499 58.0242 106.56 58.0205C106.579 57.4883 106.59 56.9563 106.552 56.4247C106.484 56.4228 106.416 56.4208 106.348 56.4189C106.344 56.7447 106.34 57.0706 106.336 57.4589ZM106.336 54.1834C106.349 54.3761 106.362 54.5688 106.375 54.7615C106.437 54.7581 106.499 54.7548 106.561 54.7515C106.578 54.2176 106.589 53.6837 106.554 53.1501C106.484 53.1479 106.414 53.1457 106.345 53.1436C106.342 53.4693 106.339 53.7951 106.336 54.1834ZM106.451 51.4879C106.481 51.4719 106.538 51.4562 106.538 51.4401C106.542 50.9337 106.542 50.4273 106.537 49.9209C106.537 49.9034 106.484 49.8863 106.368 49.8157C106.334 50.4047 106.283 50.9358 106.451 51.4879ZM106.343 46.7154C106.362 47.217 106.269 47.7252 106.476 48.2201C106.551 47.7012 106.551 47.1825 106.543 46.664C106.543 46.6625 106.421 46.6624 106.343 46.7154ZM106.573 44.1682C106.565 43.8845 106.557 43.6008 106.549 43.3172C106.283 43.5435 106.284 44.734 106.541 44.956C106.552 44.7145 106.563 44.4729 106.573 44.1682ZM106.336 40.7661C106.341 41.0713 106.345 41.3764 106.349 41.6815C106.626 41.457 106.627 40.2753 106.365 40.0457C106.356 40.2648 106.346 40.4839 106.336 40.7661ZM106.343 36.8941C106.358 37.3961 106.273 37.9038 106.4 38.4218C106.483 38.3878 106.522 38.3793 106.523 38.37C106.538 37.8743 106.552 37.3785 106.554 36.8827C106.554 36.8695 106.425 36.8558 106.343 36.8941ZM106.336 34.0276C106.36 34.3925 106.283 34.7656 106.402 35.2027C106.646 34.857 106.62 33.6761 106.372 33.4762C106.358 33.6653 106.347 33.8158 106.336 34.0276ZM106.336 24.4512C106.344 24.7345 106.353 25.0177 106.361 25.301C106.637 25.0676 106.628 23.8789 106.336 23.6931C106.336 23.9247 106.336 24.1564 106.336 24.4512ZM106.574 21.7334C106.541 21.2935 106.643 20.8445 106.512 20.4114C106.472 20.4127 106.432 20.4141 106.392 20.4155C106.392 20.9495 106.392 21.4836 106.392 22.0176C106.431 22.0222 106.47 22.0268 106.509 22.0313C106.53 21.9515 106.552 21.8718 106.574 21.7334ZM106.336 18.2761C106.351 18.4341 106.365 18.5922 106.38 18.7503C106.441 18.7459 106.503 18.7415 106.564 18.7371C106.564 18.2043 106.616 17.6706 106.532 17.1392C106.467 17.1377 106.401 17.1362 106.336 17.1347C106.336 17.4945 106.336 17.8544 106.336 18.2761ZM106.574 14.498C106.559 14.2849 106.545 14.0718 106.53 13.8588C106.486 13.8629 106.441 13.867 106.396 13.8712C106.396 14.4038 106.396 14.9365 106.396 15.4691C106.449 15.4708 106.502 15.4724 106.555 15.4741C106.561 15.1697 106.567 14.8654 106.574 14.498ZM106.574 11.7864C106.572 11.3874 106.571 10.9885 106.569 10.5895C106.272 10.8123 106.283 12.0095 106.521 12.2366C106.542 12.0796 106.558 11.9632 106.574 11.7864ZM106.338 28.3978C106.37 28.4593 106.402 28.5207 106.461 28.6332C106.648 28.2068 106.604 27.1189 106.336 26.8986C106.336 27.4274 106.336 27.884 106.338 28.3978ZM106.343 8.80103C106.377 8.83936 106.412 8.87769 106.446 8.91603C106.488 8.86129 106.564 8.80706 106.565 8.75173C106.574 8.3279 106.571 7.90382 106.562 7.47995C106.561 7.43272 106.501 7.38636 106.468 7.33959C106.425 7.34263 106.382 7.34567 106.338 7.34871C106.338 7.81399 106.338 8.27928 106.343 8.80103Z" fill="#C59C70"/>
<path d="M108.951 60.4263C109.086 60.5379 109.229 60.704 109.387 60.9136C109.254 60.7983 109.107 60.6395 108.951 60.4263Z" fill="#41210C"/>
<path d="M4.91976 30.5673C4.88542 30.5622 4.88709 30.5171 4.88808 30.4946C4.98811 30.491 5.08716 30.51 5.20834 30.5518C5.13835 30.5739 5.04622 30.5732 4.91976 30.5673Z" fill="#693613"/>
<path d="M8.50069 60.9135C8.04633 60.9032 7.62005 60.9374 7.21544 60.8735C6.31092 60.7308 5.68613 60.0733 5.68524 59.2991C5.6805 55.153 5.68517 51.0069 5.67648 46.8608C5.67598 46.6175 5.79701 46.5414 6.04597 46.4686C11.7561 44.8001 15.4774 41.5248 16.8569 36.5457C18.1115 32.0173 17.0163 27.8491 13.5022 24.2163C11.5819 22.2313 9.0935 20.9104 6.23557 20.0756C5.58877 19.8867 5.68462 19.9762 5.68417 19.4113C5.68089 15.34 5.70828 11.2685 5.66514 7.19759C5.65365 6.11392 6.62957 5.3597 7.83557 5.36035C38.7821 5.3772 69.7287 5.37413 100.675 5.36769C101.038 5.36762 101.219 5.42054 101.249 5.76587C101.345 6.85214 102.6 7.78369 103.831 7.69334C104.088 7.67447 104.169 7.78069 104.15 7.97935C104.141 8.06423 104.149 8.15022 104.149 8.23571C104.149 24.7987 104.149 41.3616 104.149 57.9246C104.149 57.9994 104.139 58.0752 104.15 58.1488C104.188 58.4 104.062 58.4705 103.767 58.4821C102.566 58.5292 101.547 59.3863 101.487 60.3714C101.453 60.9131 101.453 60.9134 100.809 60.9134C70.0522 60.9135 39.2954 60.9135 8.50069 60.9135ZM103.636 49.5923C103.636 39.8256 103.636 30.0589 103.636 20.2922C103.636 16.3706 103.633 12.4489 103.643 8.52727C103.644 8.22636 103.551 8.12145 103.178 8.05521C101.958 7.83856 101.161 7.18407 100.846 6.17049C100.743 5.83793 100.598 5.76022 100.218 5.76062C91.9187 5.76951 83.6191 5.7674 75.3195 5.7674C52.9132 5.7674 30.5068 5.77138 8.10044 5.75616C6.92687 5.75536 6.1216 6.19452 6.13467 7.39632C6.17741 11.3283 6.15559 15.2609 6.14165 19.1932C6.14051 19.5157 6.26165 19.6488 6.61835 19.7575C10.5377 20.9517 13.6171 23.0183 15.6461 26.1171C17.7073 29.2652 18.3374 32.6318 17.4624 36.1502C16.1622 41.3784 12.4858 44.9086 6.55026 46.7523C6.2306 46.8516 6.14262 46.9842 6.14338 47.2609C6.15414 51.1932 6.15054 55.1255 6.1508 59.0579C6.15087 60.0132 6.75069 60.5232 7.8815 60.5232C38.7519 60.5237 69.6224 60.5236 100.493 60.5229C100.64 60.5229 100.788 60.512 100.929 60.5064C100.965 60.3678 100.995 60.2641 101.019 60.1595C101.258 59.1003 101.998 58.4196 103.225 58.1457C103.565 58.0699 103.645 57.9505 103.644 57.6706C103.631 54.9992 103.636 52.3278 103.636 49.5923Z" fill="#EDE7CE"/>
<path d="M109.395 50.1949C109.395 36.3345 109.395 22.5062 109.395 8.67783C109.395 8.57097 109.395 8.4641 109.395 8.35724C109.397 7.93797 109.398 7.91832 109.892 7.94044C111.222 8.00001 112.509 7.18927 112.767 5.97116C112.807 5.78492 112.762 5.49366 112.883 5.43284C113.083 5.33207 113.386 5.36578 113.646 5.36573C124.6 5.36351 135.554 5.3636 146.508 5.36423C147.61 5.36429 148.328 5.83991 148.568 6.72978C148.602 6.85275 148.608 6.98321 148.608 7.11021C148.609 24.4544 148.609 41.7986 148.609 59.1428C148.609 60.2021 147.778 60.9069 146.529 60.9069C135.525 60.9076 124.52 60.9058 113.516 60.9137C113.122 60.9139 112.972 60.8588 112.931 60.4751C112.799 59.2555 111.511 58.2935 110.066 58.264C110.003 58.2627 109.939 58.2562 109.878 58.264C109.5 58.3124 109.385 58.1854 109.387 57.857C109.402 55.3137 109.395 52.7703 109.395 50.1949ZM109.865 25.2823C109.865 35.9254 109.865 46.5686 109.865 57.2117C109.865 57.3292 109.874 57.4474 109.863 57.5641C109.846 57.7505 109.937 57.8042 110.154 57.8463C110.663 57.9447 111.196 58.0301 111.651 58.2321C112.7 58.6981 113.244 59.4987 113.45 60.5184C113.639 60.5184 113.824 60.5184 114.009 60.5184C124.774 60.5184 135.539 60.5185 146.304 60.5184C146.404 60.5184 146.505 60.5206 146.605 60.5173C147.372 60.4921 147.931 60.0984 148.088 59.455C148.135 59.2587 148.149 59.0535 148.15 58.8523C148.152 45.5056 148.152 32.159 148.152 18.8123C148.152 15.0295 148.133 11.2466 148.164 7.46401C148.173 6.38635 147.576 5.72057 146.168 5.74246C143.179 5.7889 140.189 5.75663 137.199 5.75663C129.411 5.75663 121.623 5.75869 113.835 5.75035C113.458 5.74995 113.282 5.80326 113.196 6.16433C112.902 7.39648 111.72 8.25663 110.265 8.3205C109.88 8.33742 109.86 8.48514 109.86 8.7406C109.866 14.2331 109.865 19.7257 109.865 25.2823Z" fill="#EEE8D0"/>
<path d="M119.818 45.8233C119.817 45.0917 119.817 44.4032 119.817 43.6074C120.119 43.9367 120.17 45.5741 119.959 46.2207C119.892 46.0513 119.855 45.9588 119.818 45.8233Z" fill="#ECE4CB"/>
<path d="M106.336 57.4423C106.343 57.1186 106.35 56.8232 106.357 56.5278C106.48 56.5296 106.603 56.5314 106.726 56.5331C106.795 57.015 106.774 57.4973 106.741 57.9797C106.631 57.983 106.52 57.9864 106.41 57.9898C106.385 57.8167 106.36 57.6437 106.336 57.4423Z" fill="#ECE4CB"/>
<path d="M106.336 54.0281C106.341 53.7054 106.347 53.4111 106.352 53.1167C106.478 53.1187 106.604 53.1206 106.73 53.1226C106.793 53.6047 106.774 54.0872 106.743 54.5696C106.631 54.5726 106.519 54.5756 106.406 54.5786C106.383 54.4045 106.359 54.2304 106.336 54.0281Z" fill="#ECE4CB"/>
<path d="M106.526 51.6548C106.239 51.0179 106.343 50.3956 106.415 49.7056C106.654 49.7883 106.763 49.8084 106.763 49.8289C106.773 50.4221 106.775 51.0154 106.766 51.6087C106.766 51.6276 106.648 51.646 106.526 51.6548Z" fill="#ECE4CB"/>
<path d="M106.357 46.8053C106.508 46.7807 106.764 46.7808 106.764 46.7822C106.782 47.2692 106.781 47.7563 106.622 48.2437C106.189 47.7789 106.383 47.3016 106.357 46.8053Z" fill="#EDE5CD"/>
<path d="M106.772 44.1579C106.751 44.4016 106.73 44.6171 106.709 44.8325C106.21 44.6345 106.208 43.5725 106.725 43.3706C106.74 43.6237 106.756 43.8767 106.772 44.1579Z" fill="#EDE5CD"/>
<path d="M106.336 40.5752C106.355 40.3512 106.374 40.1553 106.392 39.9595C106.905 40.1647 106.902 41.2208 106.361 41.4214C106.353 41.1487 106.344 40.876 106.336 40.5752Z" fill="#EDE5CD"/>
<path d="M119.832 53.6939C119.918 53.6752 120.063 53.6957 120.063 53.7157C120.061 54.4628 120.045 55.2098 120.028 55.9567C120.028 55.9707 119.983 55.9834 119.89 56.0347C119.746 55.2541 119.842 54.4892 119.832 53.6939Z" fill="#ECE4CB"/>
<path d="M119.816 49.3677C119.829 49.0948 119.842 48.8679 119.858 48.583C120.138 48.8842 120.167 50.6635 119.891 51.1844C119.757 50.5259 119.843 49.9637 119.816 49.3677Z" fill="#ECE4CB"/>
<path d="M119.816 34.9375C119.816 34.541 119.816 34.1919 119.816 33.8428C120.146 34.1228 120.157 35.9139 119.845 36.2656C119.835 35.8387 119.826 35.4119 119.816 34.9375Z" fill="#ECE4CB"/>
<path d="M120.084 30.934C120.06 31.0983 120.036 31.2185 120.011 31.3387C119.968 31.3319 119.924 31.325 119.88 31.3182C119.88 30.5135 119.88 29.7088 119.88 28.9041C119.925 28.9021 119.97 28.9 120.015 28.8979C120.164 29.5506 120.048 30.2271 120.084 30.934Z" fill="#ECE4CB"/>
<path d="M119.816 25.634C119.816 25.0452 119.816 24.5031 119.816 23.9609C119.89 23.9632 119.965 23.9654 120.039 23.9676C120.133 24.7683 120.075 25.5724 120.074 26.3752C120.005 26.3819 119.936 26.3885 119.867 26.3951C119.85 26.1569 119.833 25.9188 119.816 25.634Z" fill="#ECE4CB"/>
<path d="M120.085 20.036C120.078 20.5421 120.071 21.0006 120.064 21.4592C120.004 21.4567 119.944 21.4542 119.885 21.4518C119.885 20.6492 119.885 19.8466 119.885 19.0441C119.935 19.0379 119.986 19.0316 120.036 19.0254C120.053 19.3464 120.069 19.6674 120.085 20.036Z" fill="#ECE4CB"/>
<path d="M120.085 15.9481C120.067 16.169 120.049 16.3443 120.025 16.5808C119.756 16.2387 119.743 14.4349 120.08 14.0991C120.082 14.7003 120.083 15.3014 120.085 15.9481Z" fill="#ECE4CB"/>
<path d="M119.818 40.8882C119.817 40.1571 119.817 39.4692 119.817 38.6724C120.12 39.0044 120.17 40.6436 119.958 41.286C119.892 41.1165 119.855 41.0239 119.818 40.8882Z" fill="#ECE4CB"/>
<path d="M119.822 11.3621C119.819 10.6185 119.819 9.91742 119.819 9.21637C119.868 9.21179 119.917 9.20721 119.966 9.20264C120.003 9.2731 120.071 9.34295 120.072 9.41412C120.082 10.0528 120.085 10.6917 120.075 11.3303C120.074 11.4137 119.988 11.4954 119.941 11.5779C119.902 11.5201 119.863 11.4624 119.822 11.3621Z" fill="#EDE5CD"/>
<path d="M103.714 49.4677C103.714 52.1859 103.709 54.8719 103.722 57.5579C103.723 57.8394 103.643 57.9593 103.302 58.0356C102.074 58.311 101.333 58.9954 101.093 60.0603C101.07 60.1656 101.04 60.2698 101.004 60.4091C100.862 60.4148 100.715 60.4257 100.567 60.4257C69.6615 60.4264 38.756 60.4265 7.85054 60.426C6.71844 60.426 6.11794 59.9133 6.11788 58.9527C6.11761 54.9989 6.12122 51.0452 6.11044 47.0914C6.10968 46.8132 6.19776 46.6799 6.51779 46.5801C12.46 44.7263 16.1406 41.1769 17.4423 35.9201C18.3184 32.3826 17.6875 28.9976 15.6239 25.8323C13.5927 22.7166 10.5097 20.6388 6.58595 19.438C6.22885 19.3287 6.10757 19.195 6.10871 18.8706C6.12267 14.9169 6.14451 10.9629 6.10172 7.00946C6.08864 5.80111 6.89482 5.35955 8.06972 5.36035C30.5015 5.37566 52.9333 5.37166 75.3652 5.37166C83.6742 5.37166 91.9832 5.37378 100.292 5.36484C100.673 5.36443 100.818 5.44257 100.921 5.77694C101.236 6.79605 102.034 7.45412 103.255 7.67194C103.628 7.73854 103.722 7.84403 103.721 8.14657C103.711 12.0896 103.714 16.0326 103.714 19.9757C103.714 29.7956 103.714 39.6155 103.714 49.4677Z" fill="#C59C70"/>
<path d="M109.827 24.9715C109.827 19.4178 109.828 13.8963 109.822 8.37482C109.822 8.11802 109.842 7.96951 110.228 7.95251C111.685 7.8883 112.867 7.02361 113.162 5.78497C113.248 5.422 113.425 5.3684 113.802 5.36881C121.6 5.37719 129.397 5.37512 137.195 5.37512C140.188 5.37512 143.182 5.40756 146.174 5.36088C147.585 5.33887 148.182 6.00816 148.173 7.0915C148.142 10.8941 148.161 14.6969 148.161 18.4997C148.161 31.9167 148.161 45.3337 148.158 58.7507C148.158 58.9529 148.144 59.1593 148.096 59.3566C147.94 60.0034 147.38 60.3992 146.612 60.4245C146.512 60.4278 146.411 60.4256 146.31 60.4256C135.532 60.4257 124.754 60.4256 113.976 60.4256C113.791 60.4256 113.606 60.4257 113.416 60.4257C113.21 59.4006 112.666 58.5957 111.615 58.1273C111.16 57.9242 110.626 57.8383 110.117 57.7394C109.899 57.6971 109.807 57.6431 109.825 57.4558C109.836 57.3384 109.827 57.2196 109.827 57.1014C109.827 46.4022 109.827 35.703 109.827 24.9715Z" fill="#C59C70"/>
<path d="M64.96 41.4H66.1C65.53 42.15 65.14 43.32 64.96 45H53.74C53.56 43.32 53.2 42.15 52.63 41.4H53.74V24.27H52.63C53.2 23.52 53.56 22.38 53.74 20.73H64.96C65.14 22.38 65.53 23.52 66.1 24.27H64.96V30.21C62.92 30.21 61.3 30.9 59.98 32.28C61.21 33.72 62.86 34.41 64.96 34.41V41.4ZM60.94 28.23V24.27H57.76V30.21C58.66 29.28 59.8 28.56 60.94 28.23ZM57.76 41.4H60.94V36.54C59.86 36.27 58.69 35.55 57.76 34.41V41.4ZM75.9456 38.88H76.7256C76.3056 39.39 76.0656 40.23 75.9456 41.4H67.9956C67.8756 40.23 67.6056 39.39 67.2156 38.88H67.9956V26.76H67.2156C67.6056 26.25 67.8756 25.44 67.9956 24.27H70.8456C70.9656 25.44 71.2356 26.25 71.5956 26.76H70.8456V38.88H73.0956V36.57C73.6356 36.87 74.1156 37.02 74.5656 37.02C74.9856 37.02 75.4356 36.87 75.9456 36.57V38.88ZM77.0856 20.73V22.65H66.7656V20.73H77.0856ZM77.0856 43.08V45H66.7656V43.08H77.0856ZM81.0409 38.88H81.7909C81.4309 39.39 81.1609 40.23 81.0409 41.4H78.1909C78.0709 40.23 77.8009 39.39 77.4109 38.88H78.1909V26.76H77.4109C77.8009 26.25 78.0709 25.44 78.1909 24.27H81.0409C81.1609 25.44 81.4309 26.25 81.7909 26.76H81.0409V38.88ZM82.3909 20.73V22.65H76.9609V20.73H82.3909ZM82.3909 43.08V45H76.9609V43.08H82.3909ZM91.4144 38.88H92.1944C91.7744 39.39 91.5344 40.23 91.4144 41.4H88.5644C88.4444 40.23 88.1744 39.39 87.7844 38.88H88.5644V38.34L86.3144 32.43V38.88H87.0644C86.7044 39.39 86.4344 40.23 86.3144 41.4H83.4644C83.3444 40.23 83.0744 39.39 82.6844 38.88H83.4644V26.76H82.6844C83.0744 26.25 83.3444 25.44 83.4644 24.27H86.3144C86.4344 25.44 86.7044 26.25 87.0644 26.76H86.4044L88.5644 32.31V26.76H87.7844C88.1744 26.25 88.4444 25.44 88.5644 24.27H91.4144C91.5344 25.44 91.7744 26.25 92.1944 26.76H91.4144V38.88ZM92.7944 20.73V22.65H82.2344V20.73H92.7944ZM92.7944 43.08V45H82.2344V43.08H92.7944ZM105.595 25.17V40.47C104.215 40.53 102.445 43.38 102.385 45H94.3748C94.1948 43.32 93.8348 42.15 93.2648 41.4H94.3748V24.27H93.2648C93.8348 23.52 94.1948 22.38 94.3748 20.73H102.385C102.385 22.83 103.735 25.17 105.595 25.17ZM101.575 38.97V26.7C100.705 26.7 99.9548 25.02 99.9548 24.27H98.3948V41.4H99.9548C99.9548 40.68 100.705 38.97 101.575 38.97Z" fill="#9D3636" fill-opacity="0.71"/>
</svg>
