<svg width="152" height="67" viewBox="0 0 152 67" fill="none" xmlns="http://www.w3.org/2000/svg">
<path d="M131.006 64.2158C130.375 64.2235 129.744 64.2312 129.058 64.2114C128.941 64.1777 128.88 64.1662 128.818 64.1662C124.534 64.1653 120.25 64.165 115.966 64.1672C115.871 64.1673 115.776 64.1973 115.681 64.2133C114.808 64.2246 113.934 64.2414 113.061 64.2453C112.406 64.2482 111.751 64.2241 111.097 64.2318C110.605 64.2376 110.113 64.2925 109.621 64.2908C109.346 64.2899 109.071 64.2184 108.765 64.1432C108.447 63.5567 108.076 63.0666 107.516 62.7103C107.516 62.7103 107.509 62.6985 107.49 62.679C107.351 62.5904 107.231 62.5213 107.112 62.4521C107.112 62.4521 107.102 62.4614 107.095 62.4409C107.064 62.414 107.039 62.4076 107.015 62.4013C106.058 61.8355 104.963 61.7077 103.908 61.898C102.742 62.1082 101.723 62.6957 101.167 63.7044C100.893 64.2027 100.477 64.2691 99.9855 64.2711C98.211 64.2785 96.4363 64.2751 94.6617 64.2724C91.2283 64.2671 87.7948 64.2607 84.3614 64.2521C83.1173 64.249 81.8732 64.2394 80.6292 64.2287C80.5234 64.2278 80.418 64.1958 80.2622 64.1449C79.4305 64.1086 78.649 64.1057 77.8676 64.1029C77.5538 64.1681 77.2408 64.2838 76.9259 64.2883C76.2047 64.2987 75.4824 64.2574 74.7608 64.2305C74.642 64.226 74.5247 64.1881 74.3571 64.1389C72.9976 64.1076 71.6878 64.1025 70.3779 64.1008C70.3358 64.1008 70.2937 64.1351 70.2516 64.1534C70.1233 64.1789 69.9952 64.2257 69.8668 64.2264C68.7943 64.2326 67.7217 64.2225 66.6493 64.2331C65.8474 64.241 65.0459 64.2847 64.2442 64.2887C63.7021 64.2913 63.1597 64.2526 62.5483 64.2329C61.473 64.2325 60.4668 64.229 59.4607 64.2326C59.2412 64.2334 59.0219 64.2595 58.8025 64.2739C58.7284 64.2743 58.6543 64.2747 58.5268 64.2581C57.8353 64.2526 57.1972 64.2641 56.559 64.2755C55.5918 64.2829 54.6244 64.3023 53.6573 64.2946C52.3972 64.2846 51.1374 64.2544 49.8775 64.2283C49.7849 64.2264 49.6931 64.1872 49.5492 64.1387C49.3734 64.1065 49.2495 64.0961 49.1255 64.0961C34.9215 64.0954 20.7175 64.0954 6.51347 64.0976C6.38095 64.0976 6.24844 64.1272 6.11593 64.1429C5.56125 64.3068 5.01261 64.2606 4.42592 64.0762C3.75416 63.6818 3.55816 63.1427 3.55924 62.4888C3.56824 57.0436 3.56434 51.5985 3.56433 46.1533C3.56433 45.4758 3.56424 45.4755 4.28928 45.3178C7.37888 44.6457 9.99151 43.2707 11.9155 40.9563C14.2638 38.1316 15.1188 34.931 14.5654 31.4483C13.9342 27.4752 11.7298 24.4278 7.81996 22.4514C6.79949 21.9356 5.7182 21.5392 4.56059 21.3386C4.56059 21.3386 4.55821 21.342 4.54023 21.3244C4.43587 21.2935 4.34951 21.2801 4.24125 21.2502C3.94708 21.1373 3.55117 21.2627 3.55274 20.7615C3.57017 15.1787 3.56084 9.59586 3.566 4.01304C3.56704 2.88572 4.2432 2.29641 5.49369 2.29638C12.6173 2.29625 19.7409 2.29632 26.8644 2.29631C51.3237 2.29631 75.783 2.29657 100.242 2.29343C100.569 2.29338 100.812 2.31647 101.001 2.63519C101.824 4.02337 103.121 4.74792 104.878 4.73082C106.617 4.71391 107.891 3.97752 108.696 2.59757C108.837 2.35585 108.983 2.29138 109.264 2.2915C121.792 2.29705 134.321 2.29617 146.849 2.29772C147.01 2.29774 147.175 2.3024 147.331 2.33356C148.116 2.49038 148.513 2.98321 148.702 3.6506C148.704 3.96563 148.708 4.28065 148.708 4.59568C148.708 23.9161 148.708 43.2366 148.707 62.557C148.707 63.441 148.35 63.9546 147.518 64.1756C147.204 64.2592 146.858 64.2711 146.526 64.2704C145.359 64.2676 144.193 64.2451 142.967 64.2047C141.489 64.1749 140.07 64.17 138.65 64.1683C138.593 64.1682 138.536 64.1993 138.479 64.2158C137.923 64.2235 137.366 64.2311 136.755 64.2111C134.847 64.1782 132.993 64.1727 131.14 64.1698C131.095 64.1698 131.051 64.1998 131.006 64.2158ZM8.10831 62.7492C38.384 62.7492 68.6596 62.7492 98.9353 62.7492C99.5696 62.7492 99.5696 62.7488 99.6024 62.1782C99.6621 61.1405 100.665 60.2377 101.847 60.1881C102.137 60.1759 102.262 60.1016 102.224 59.837C102.213 59.7595 102.223 59.6796 102.223 59.6008C102.223 42.1542 102.223 24.7076 102.223 7.26103C102.223 7.17098 102.215 7.0804 102.224 6.991C102.243 6.78173 102.163 6.66985 101.91 6.68973C100.698 6.7849 99.4628 5.80365 99.3686 4.65942C99.3386 4.29567 99.1604 4.23992 98.8036 4.24C68.3412 4.24678 37.8787 4.25002 7.41628 4.23227C6.22914 4.23158 5.2685 5.02605 5.2798 6.16753C5.32227 10.4557 5.29531 14.7444 5.29853 19.0328C5.29898 19.6279 5.20463 19.5336 5.84131 19.7326C8.65453 20.6119 11.104 22.0033 12.9942 24.0942C16.4534 27.9209 17.5315 32.3114 16.2965 37.0813C14.9385 42.3261 11.2755 45.7761 5.65467 47.5337C5.40961 47.6103 5.29047 47.6905 5.29097 47.9468C5.29952 52.3141 5.29492 56.6814 5.29959 61.0487C5.30046 61.8642 5.91548 62.5568 6.80585 62.7071C7.20413 62.7744 7.62374 62.7384 8.10831 62.7492ZM107.295 51.4994C107.295 54.1782 107.302 56.8571 107.286 59.5358C107.284 59.8818 107.399 60.0154 107.773 59.9645C107.834 59.9562 107.898 59.9631 107.96 59.9645C109.392 59.9956 110.67 61.0088 110.8 62.2934C110.841 62.6976 110.989 62.7556 111.38 62.7553C122.29 62.747 133.199 62.749 144.109 62.7482C145.347 62.7481 146.171 62.0058 146.171 60.8901C146.171 42.6221 146.171 24.3542 146.169 6.0862C146.169 5.95243 146.163 5.81502 146.13 5.6855C145.892 4.74823 145.18 4.24729 144.088 4.24722C133.228 4.24656 122.369 4.24647 111.509 4.2488C111.252 4.24885 110.951 4.21335 110.753 4.31949C110.633 4.38354 110.677 4.69032 110.638 4.88648C110.382 6.16947 109.106 7.02338 107.788 6.96065C107.298 6.93735 107.297 6.95804 107.295 7.39964C107.294 7.5122 107.295 7.62475 107.295 7.73731C107.295 22.3022 107.295 36.867 107.295 51.4994ZM104.476 32.0109C104.508 32.0754 104.539 32.14 104.598 32.2582C104.782 31.8069 104.738 30.6642 104.475 30.4344C104.475 30.9898 104.475 31.4703 104.476 32.0109ZM104.474 59.1262C104.487 59.3269 104.501 59.5276 104.514 59.7284C104.575 59.7245 104.635 59.7206 104.695 59.7167C104.713 59.1571 104.725 58.5976 104.687 58.0387C104.62 58.0366 104.553 58.0346 104.486 58.0326C104.482 58.3752 104.478 58.7178 104.474 59.1262ZM104.474 55.6818C104.487 55.8844 104.5 56.087 104.512 56.2896C104.574 56.2862 104.635 56.2827 104.696 56.2792C104.713 55.7177 104.723 55.1563 104.689 54.5952C104.62 54.5929 104.552 54.5906 104.483 54.5883C104.48 54.9309 104.477 55.2735 104.474 55.6818ZM104.587 52.8472C104.617 52.8305 104.673 52.8139 104.674 52.797C104.678 52.2645 104.677 51.732 104.672 51.1995C104.672 51.1811 104.62 51.1631 104.506 51.0889C104.472 51.7082 104.422 52.2667 104.587 52.8472ZM104.481 47.8287C104.499 48.3562 104.408 48.8906 104.612 49.411C104.686 48.8653 104.687 48.3199 104.678 47.7746C104.678 47.7731 104.558 47.7729 104.481 47.8287ZM104.708 45.1501C104.7 44.8518 104.692 44.5535 104.684 44.2552C104.422 44.4932 104.423 45.7451 104.676 45.9786C104.687 45.7246 104.698 45.4706 104.708 45.1501ZM104.475 41.5727C104.479 41.8935 104.483 42.2144 104.487 42.5352C104.76 42.2992 104.761 41.0565 104.503 40.8151C104.494 41.0455 104.484 41.2759 104.475 41.5727ZM104.481 37.501C104.496 38.0289 104.412 38.5627 104.538 39.1075C104.619 39.0717 104.658 39.0628 104.658 39.053C104.673 38.5317 104.687 38.0104 104.689 37.489C104.689 37.4751 104.562 37.4607 104.481 37.501ZM104.474 34.4867C104.497 34.8704 104.422 35.2628 104.539 35.7224C104.78 35.3588 104.754 34.117 104.51 33.9068C104.496 34.1056 104.485 34.264 104.474 34.4867ZM104.474 24.4164C104.482 24.7143 104.491 25.0122 104.499 25.3101C104.771 25.0647 104.762 23.8147 104.474 23.6192C104.474 23.8629 104.474 24.1065 104.474 24.4164ZM104.708 21.5585C104.676 21.096 104.777 20.6238 104.648 20.1683C104.608 20.1698 104.569 20.1712 104.53 20.1727C104.53 20.7343 104.53 21.2958 104.53 21.8574C104.568 21.8622 104.606 21.867 104.644 21.8718C104.666 21.7879 104.687 21.704 104.708 21.5585ZM104.474 17.9229C104.489 18.0891 104.503 18.2554 104.518 18.4216C104.578 18.417 104.638 18.4124 104.699 18.4077C104.699 17.8474 104.75 17.2862 104.668 16.7274C104.603 16.7259 104.539 16.7243 104.474 16.7228C104.474 17.1011 104.474 17.4795 104.474 17.9229ZM104.709 13.95C104.694 13.726 104.68 13.5019 104.666 13.2779C104.622 13.2822 104.578 13.2866 104.534 13.2909C104.534 13.851 104.534 14.4111 104.534 14.9713C104.586 14.973 104.638 14.9747 104.69 14.9764C104.696 14.6564 104.702 14.3364 104.709 13.95ZM104.709 11.0987C104.707 10.6791 104.706 10.2595 104.704 9.83999C104.411 10.0743 104.422 11.3332 104.657 11.572C104.677 11.4069 104.693 11.2846 104.709 11.0987ZM104.476 28.5666C104.508 28.6312 104.539 28.6958 104.597 28.8141C104.782 28.3658 104.738 27.2217 104.475 26.99C104.475 27.5462 104.475 28.0263 104.476 28.5666ZM104.481 7.95932C104.515 7.99963 104.549 8.03994 104.583 8.08025C104.624 8.02269 104.699 7.96567 104.7 7.90748C104.708 7.4618 104.706 7.01585 104.697 6.57012C104.696 6.52046 104.637 6.47171 104.604 6.42253C104.562 6.42572 104.519 6.42892 104.477 6.43211C104.477 6.92139 104.477 7.41067 104.481 7.95932Z" fill="#482613"/>
<path d="M4.57092 21.3618C5.71858 21.5395 6.79987 21.9359 7.82034 22.4517C11.7302 24.4281 13.9346 27.4755 14.5658 31.4485C15.1192 34.9313 14.2642 38.1319 11.9159 40.9566C9.99189 43.2709 7.37926 44.646 4.28966 45.318C3.56463 45.4757 3.56471 45.4761 3.56471 46.1536C3.56472 51.5987 3.56862 57.0439 3.55962 62.4891C3.55854 63.143 3.75454 63.6821 4.39925 64.0663C3.97188 64.0998 3.51831 63.7773 3.27191 63.4775C2.70002 62.7817 2.8474 61.9993 2.84646 61.2357C2.84027 56.2179 2.84554 51.2001 2.84648 46.1823C2.84653 45.9123 2.83105 45.6421 2.84087 45.3725C2.85416 45.0076 3.05939 44.8026 3.44866 44.7218C4.00581 44.6063 4.56914 44.5075 5.11496 44.3574C5.5422 44.24 5.93466 44.0148 6.36419 43.9095C7.13849 43.7196 7.75719 43.2749 8.43688 42.9347C8.81942 42.7433 9.15092 42.455 9.47084 42.1777C10.1214 41.6139 10.8144 41.0746 11.3664 40.4378C11.9024 39.8196 12.3108 39.1049 12.7229 38.4074C12.9694 37.9901 13.0832 37.51 13.3156 37.0844C13.5529 36.6501 13.5218 36.1468 13.7184 35.7432C13.9324 35.304 13.839 34.8956 13.9067 34.4776C13.9279 34.3469 14.0055 34.2244 14.0502 34.0961C14.0824 34.0035 14.1242 33.9078 14.1252 33.8131C14.1319 33.1943 14.2431 32.5517 14.0937 31.9639C13.9655 31.459 14.0269 30.9323 13.8526 30.47C13.6849 30.0251 13.6513 29.5725 13.5204 29.1322C13.4642 28.943 13.375 28.7601 13.2834 28.5816C12.961 27.9534 12.6605 27.3137 12.293 26.7074C12.0674 26.3353 11.7423 26.0108 11.4483 25.6746C11.1405 25.3227 10.8348 24.9667 10.495 24.6409C10.0561 24.2202 9.63553 23.7602 9.11572 23.4372C8.09166 22.8008 7.03071 22.2022 5.81883 21.8774C5.4809 21.7868 5.14338 21.6927 4.81344 21.5815C4.72162 21.5505 4.65762 21.4522 4.57092 21.3618Z" fill="#693613"/>
<path d="M6.15137 64.1523C6.24874 64.1272 6.38125 64.0976 6.51376 64.0976C20.7178 64.0954 34.9218 64.0954 49.1258 64.0961C49.2498 64.0961 49.3737 64.1065 49.5172 64.1338C49.4748 64.1581 49.4127 64.1629 49.3506 64.1629C34.9626 64.1627 20.5745 64.1622 6.15137 64.1523Z" fill="white"/>
<path d="M115.716 64.2211C115.777 64.1973 115.872 64.1673 115.967 64.1672C120.251 64.165 124.535 64.1653 128.819 64.1662C128.88 64.1662 128.942 64.1777 129.023 64.2051C124.611 64.2273 120.181 64.2281 115.716 64.2211Z" fill="#FFFF00"/>
<path d="M107.512 62.7344C108.076 63.0667 108.448 63.5568 108.738 64.1317C108.581 64.0647 108.369 64.0062 108.268 63.8768C107.989 63.5199 107.758 63.1333 107.512 62.7344Z" fill="#41210C"/>
<path d="M131.04 64.2226C131.051 64.1999 131.095 64.1699 131.139 64.1699C132.993 64.1727 134.847 64.1783 136.72 64.2049C134.85 64.2274 132.962 64.2283 131.04 64.2226Z" fill="#FFFF00"/>
<path d="M138.513 64.2227C138.536 64.1994 138.593 64.1684 138.65 64.1685C140.069 64.1701 141.489 64.1751 142.933 64.1965C141.487 64.2188 140.017 64.2241 138.513 64.2227Z" fill="#FFFF00"/>
<path d="M70.2861 64.1582C70.2939 64.1353 70.336 64.101 70.3781 64.1011C71.6879 64.1028 72.9978 64.1079 74.3273 64.1341C73.0048 64.1581 71.6627 64.1604 70.2861 64.1582Z" fill="white"/>
<path d="M58.8369 64.2843C59.0222 64.2598 59.2416 64.2337 59.461 64.2329C60.4671 64.2293 61.4733 64.2328 62.5142 64.238C62.4587 64.2611 62.3686 64.2959 62.2784 64.2961C61.1426 64.2984 60.0068 64.2958 58.8369 64.2843Z" fill="#FF0000"/>
<path d="M9.84091 1.83185C9.84462 1.8526 9.8123 1.88095 9.78006 1.88087C8.62403 1.8778 7.468 1.87208 6.29297 1.84303C7.45095 1.82162 8.62792 1.82391 9.84091 1.83185Z" fill="#FF0000"/>
<path d="M77.8828 64.129C78.649 64.1061 79.4304 64.109 80.2327 64.1328C79.4684 64.1541 78.6832 64.1545 77.8828 64.129Z" fill="white"/>
<path d="M16.4169 1.8315C15.6893 1.84928 14.9257 1.8614 14.1367 1.85526C14.8679 1.83328 15.6244 1.82956 16.4169 1.8315Z" fill="#FF0000"/>
<path d="M56.5928 64.2858C57.1967 64.264 57.8349 64.2526 58.4986 64.2583C57.8917 64.2824 57.2594 64.2893 56.5928 64.2858Z" fill="#EB0000"/>
<path d="M107.119 62.4751C107.232 62.5216 107.351 62.5907 107.483 62.678C107.372 62.63 107.249 62.5639 107.119 62.4751Z" fill="#41210C"/>
<path d="M4.28968 21.334C4.25974 21.3304 4.26119 21.2985 4.26206 21.2825C4.34928 21.28 4.43564 21.2934 4.54131 21.323C4.48027 21.3386 4.39994 21.3382 4.28968 21.334Z" fill="#693613"/>
<path d="M107.026 62.4151C107.039 62.4077 107.064 62.414 107.098 62.4354C107.085 62.4432 107.061 62.4361 107.026 62.4151Z" fill="#41210C"/>
<path d="M8.07059 62.7494C7.62333 62.7385 7.20372 62.7745 6.80544 62.7073C5.91508 62.557 5.30006 61.8644 5.29918 61.0488C5.29451 56.6815 5.29912 52.3142 5.29056 47.947C5.29006 47.6907 5.40921 47.6105 5.65427 47.5338C11.2751 45.7763 14.9381 42.3263 16.2961 37.0815C17.5311 32.3116 16.453 27.921 12.9938 24.0944C11.1036 22.0034 8.65413 20.6121 5.8409 19.7328C5.20423 19.5338 5.29857 19.6281 5.29812 19.033C5.2949 14.7445 5.32186 10.4558 5.2794 6.16768C5.26809 5.0262 6.22874 4.23173 7.41587 4.23242C37.8783 4.25017 68.3408 4.24693 98.8032 4.24016C99.16 4.24008 99.3382 4.29582 99.3682 4.65957C99.4624 5.8038 100.697 6.78505 101.909 6.68988C102.162 6.67 102.243 6.78188 102.223 6.99115C102.215 7.08055 102.222 7.17113 102.222 7.26118C102.222 24.7078 102.222 42.1544 102.222 59.601C102.222 59.6798 102.213 59.7596 102.224 59.8372C102.261 60.1017 102.137 60.176 101.846 60.1882C100.664 60.2379 99.6617 61.1407 99.602 62.1784C99.5692 62.749 99.5692 62.7493 98.9349 62.7493C68.6592 62.7494 38.3836 62.7494 8.07059 62.7494ZM101.718 50.8241C101.718 40.5364 101.718 30.2486 101.718 19.9609C101.718 15.83 101.715 11.6991 101.724 7.56829C101.725 7.25133 101.634 7.14082 101.267 7.07105C100.066 6.84285 99.2814 6.15344 98.9716 5.08578C98.87 4.73548 98.7275 4.65362 98.3534 4.65405C90.1837 4.66341 82.0139 4.66118 73.8441 4.66118C51.7883 4.66118 29.7324 4.66537 7.6766 4.64934C6.52138 4.6485 5.72872 5.1111 5.74158 6.37701C5.78365 10.5188 5.76218 14.6611 5.74846 18.8032C5.74733 19.143 5.86658 19.2831 6.2177 19.3976C10.0757 20.6556 13.107 22.8324 15.1042 26.0966C17.1331 29.4126 17.7535 32.9588 16.8921 36.6649C15.6122 42.1721 11.9933 45.8906 6.15067 47.8327C5.83601 47.9373 5.74941 48.077 5.75015 48.3684C5.76075 52.5105 5.7572 56.6526 5.75746 60.7947C5.75753 61.8011 6.34796 62.3382 7.46109 62.3383C37.8486 62.3388 68.2361 62.3387 98.6236 62.3379C98.7687 62.3379 98.9138 62.3264 99.0533 62.3206C99.0886 62.1746 99.1178 62.0654 99.1411 61.9551C99.377 60.8395 100.105 60.1225 101.313 59.8339C101.648 59.754 101.727 59.6284 101.725 59.3335C101.713 56.5196 101.718 53.7056 101.718 50.8241Z" fill="#EDE7CE"/>
<path d="M107.294 51.4656C107.294 36.867 107.294 22.3022 107.294 7.73734C107.294 7.62478 107.294 7.51222 107.295 7.39967C107.296 6.95807 107.298 6.93738 107.787 6.96068C109.106 7.02341 110.382 6.16949 110.637 4.88651C110.677 4.69035 110.632 4.38357 110.752 4.31952C110.951 4.21338 111.251 4.24888 111.509 4.24882C122.368 4.24649 133.228 4.24659 144.088 4.24725C145.18 4.24731 145.892 4.74826 146.13 5.68553C146.163 5.81505 146.169 5.95246 146.169 6.08622C146.171 24.3542 146.171 42.6221 146.17 60.8901C146.17 62.0058 145.347 62.7482 144.108 62.7482C133.199 62.749 122.289 62.7471 111.38 62.7553C110.989 62.7556 110.841 62.6976 110.8 62.2934C110.669 61.0088 109.392 59.9957 107.959 59.9645C107.897 59.9632 107.834 59.9563 107.773 59.9646C107.399 60.0155 107.284 59.8818 107.286 59.5358C107.301 56.8571 107.294 54.1782 107.294 51.4656ZM107.76 25.2262C107.76 36.4362 107.76 47.6462 107.76 58.8561C107.76 58.9799 107.769 59.1044 107.758 59.2274C107.741 59.4237 107.832 59.4802 108.047 59.5246C108.551 59.6282 109.08 59.7182 109.531 59.931C110.571 60.4218 111.11 61.265 111.314 62.3391C111.502 62.3391 111.685 62.3391 111.869 62.3391C122.541 62.3391 133.213 62.3391 143.885 62.339C143.985 62.339 144.085 62.3413 144.184 62.3379C144.944 62.3113 145.499 61.8966 145.654 61.219C145.701 61.0122 145.715 60.796 145.715 60.5842C145.718 46.5266 145.717 32.4691 145.717 18.4116C145.717 14.4273 145.699 10.4429 145.729 6.45886C145.738 5.32381 145.147 4.62257 143.75 4.64563C140.787 4.69453 137.823 4.66055 134.859 4.66055C127.138 4.66055 119.417 4.66272 111.696 4.65393C111.322 4.65351 111.147 4.70967 111.062 5.08996C110.771 6.38774 109.6 7.2937 108.157 7.36098C107.775 7.37879 107.755 7.53438 107.756 7.80345C107.761 13.5885 107.76 19.3736 107.76 25.2262Z" fill="#EEE8D0"/>
<path d="M104.475 31.9811C104.475 31.4705 104.475 30.99 104.475 30.4346C104.738 30.6644 104.782 31.8072 104.598 32.2584C104.54 32.1402 104.508 32.0757 104.475 31.9811Z" fill="#ECE4CB"/>
<path d="M104.474 59.0935C104.478 58.718 104.481 58.3753 104.485 58.0327C104.553 58.0348 104.62 58.0368 104.687 58.0388C104.724 58.5978 104.713 59.1573 104.695 59.7168C104.635 59.7207 104.574 59.7246 104.514 59.7285C104.5 59.5278 104.487 59.3271 104.474 59.0935Z" fill="#ECE4CB"/>
<path d="M104.474 55.649C104.477 55.2735 104.479 54.9309 104.482 54.5884C104.551 54.5907 104.62 54.593 104.689 54.5952C104.723 55.1563 104.713 55.7178 104.696 56.2792C104.635 56.2827 104.573 56.2862 104.512 56.2897C104.499 56.0871 104.486 55.8845 104.474 55.649Z" fill="#ECE4CB"/>
<path d="M104.559 52.8384C104.422 52.2667 104.472 51.7082 104.506 51.0889C104.62 51.1631 104.672 51.1811 104.672 51.1995C104.677 51.732 104.678 52.2645 104.674 52.797C104.674 52.8139 104.617 52.8305 104.559 52.8384Z" fill="#ECE4CB"/>
<path d="M104.488 47.8008C104.558 47.7733 104.679 47.7734 104.679 47.775C104.687 48.3203 104.687 48.8657 104.612 49.4114C104.409 48.891 104.5 48.3565 104.488 47.8008Z" fill="#EDE5CD"/>
<path d="M104.708 45.1835C104.698 45.4707 104.687 45.7247 104.677 45.9787C104.423 45.7452 104.422 44.4934 104.685 44.2554C104.692 44.5537 104.7 44.852 104.708 45.1835Z" fill="#EDE5CD"/>
<path d="M104.475 41.5394C104.484 41.2758 104.494 41.0454 104.503 40.8149C104.761 41.0564 104.76 42.2991 104.487 42.5351C104.483 42.2142 104.479 41.8934 104.475 41.5394Z" fill="#EDE5CD"/>
<path d="M104.487 37.4739C104.562 37.4608 104.689 37.4752 104.689 37.4891C104.687 38.0105 104.673 38.5318 104.658 39.0531C104.658 39.0629 104.619 39.0718 104.537 39.1076C104.412 38.5628 104.496 38.029 104.487 37.4739Z" fill="#ECE4CB"/>
<path d="M104.474 34.4544C104.485 34.2639 104.496 34.1056 104.51 33.9067C104.754 34.117 104.78 35.3587 104.539 35.7223C104.423 35.2627 104.498 34.8703 104.474 34.4544Z" fill="#ECE4CB"/>
<path d="M104.474 24.3832C104.474 24.1064 104.474 23.8628 104.474 23.6191C104.761 23.8146 104.771 25.0646 104.499 25.31C104.49 25.0121 104.482 24.7142 104.474 24.3832Z" fill="#ECE4CB"/>
<path d="M104.708 21.5895C104.686 21.7042 104.665 21.788 104.644 21.8719C104.606 21.8671 104.568 21.8623 104.529 21.8576C104.529 21.296 104.529 20.7344 104.529 20.1728C104.569 20.1713 104.608 20.1699 104.647 20.1685C104.777 20.6239 104.676 21.0961 104.708 21.5895Z" fill="#ECE4CB"/>
<path d="M104.474 17.8903C104.474 17.4794 104.474 17.101 104.474 16.7227C104.538 16.7242 104.603 16.7258 104.667 16.7273C104.749 17.2861 104.699 17.8473 104.698 18.4076C104.638 18.4123 104.578 18.4169 104.517 18.4215C104.503 18.2553 104.488 18.0891 104.474 17.8903Z" fill="#ECE4CB"/>
<path d="M104.709 13.9832C104.703 14.3364 104.697 14.6564 104.69 14.9764C104.638 14.9747 104.586 14.973 104.534 14.9712C104.534 14.4111 104.534 13.851 104.534 13.2909C104.578 13.2865 104.622 13.2822 104.666 13.2778C104.68 13.5019 104.695 13.7259 104.709 13.9832Z" fill="#ECE4CB"/>
<path d="M104.709 11.1308C104.693 11.2849 104.678 11.4073 104.657 11.5723C104.422 11.3336 104.411 10.0747 104.705 9.84033C104.706 10.2599 104.707 10.6795 104.709 11.1308Z" fill="#ECE4CB"/>
<path d="M104.475 28.5367C104.475 28.0265 104.475 27.5464 104.475 26.9902C104.738 27.2219 104.782 28.366 104.597 28.8143C104.539 28.6961 104.508 28.6314 104.475 28.5367Z" fill="#ECE4CB"/>
<path d="M104.479 7.92996C104.477 7.41099 104.477 6.92171 104.477 6.43244C104.519 6.42924 104.562 6.42605 104.604 6.42285C104.637 6.47203 104.696 6.52078 104.697 6.57045C104.706 7.01617 104.708 7.46212 104.7 7.9078C104.699 7.96599 104.624 8.02301 104.583 8.08057C104.549 8.04026 104.515 7.99996 104.479 7.92996Z" fill="#EDE5CD"/>
<path d="M101.719 50.858C101.719 53.7057 101.714 56.5197 101.726 59.3335C101.727 59.6284 101.648 59.7541 101.314 59.834C100.106 60.1225 99.3778 60.8395 99.1419 61.9552C99.1186 62.0654 99.0893 62.1747 99.0541 62.3206C98.9145 62.3265 98.7694 62.338 98.6244 62.338C68.2369 62.3388 37.8494 62.3388 7.46185 62.3383C6.34873 62.3383 5.75829 61.8011 5.75823 60.7948C5.75797 56.6527 5.76151 52.5106 5.75092 48.3685C5.75017 48.077 5.83677 47.9374 6.15144 47.8328C11.9941 45.8907 15.613 42.1721 16.8929 36.665C17.7542 32.9589 17.1339 29.4127 15.1049 26.0966C13.1077 22.8325 10.0765 20.6557 6.21846 19.3977C5.86734 19.2832 5.74809 19.1431 5.74922 18.8033C5.76294 14.6612 5.78441 10.5189 5.74234 6.37708C5.72948 5.11117 6.52215 4.64858 7.67736 4.64942C29.7332 4.66545 51.7891 4.66126 73.8449 4.66126C82.0147 4.66126 90.1844 4.66348 98.3542 4.65412C98.7282 4.65369 98.8707 4.73555 98.9724 5.08585C99.2821 6.15351 100.066 6.84292 101.267 7.07113C101.634 7.14089 101.726 7.25141 101.725 7.56837C101.715 11.6992 101.719 15.8301 101.719 19.961C101.719 30.2487 101.719 40.5365 101.719 50.858Z" fill="#482613"/>
<path d="M107.76 25.1924C107.76 19.3735 107.761 13.5885 107.756 7.80339C107.756 7.53433 107.775 7.37874 108.157 7.36092C109.6 7.29365 110.771 6.38768 111.062 5.0899C111.148 4.70961 111.323 4.65345 111.697 4.65388C119.417 4.66266 127.138 4.66049 134.859 4.66049C137.823 4.66049 140.788 4.69448 143.75 4.64557C145.147 4.62252 145.739 5.32376 145.73 6.45881C145.699 10.4429 145.718 14.4273 145.718 18.4116C145.718 32.4691 145.718 46.5266 145.715 60.5841C145.715 60.796 145.701 61.0122 145.654 61.2189C145.499 61.8966 144.944 62.3112 144.184 62.3378C144.085 62.3413 143.985 62.339 143.886 62.339C133.213 62.339 122.541 62.339 111.869 62.339C111.685 62.339 111.502 62.339 111.315 62.339C111.11 61.265 110.572 60.4217 109.531 59.9309C109.08 59.7181 108.552 59.6282 108.047 59.5245C107.832 59.4802 107.741 59.4236 107.759 59.2274C107.769 59.1044 107.76 58.9799 107.76 58.8561C107.76 47.6461 107.76 36.4361 107.76 25.1924Z" fill="#482613"/>
<path d="M51.96 44.4H53.1C52.53 45.15 52.14 46.32 51.96 48H40.74C40.56 46.32 40.2 45.15 39.63 44.4H40.74V27.27H39.63C40.2 26.55 40.56 25.41 40.74 23.73H51.96C52.14 25.41 52.53 26.55 53.1 27.27H51.96V30.57C51.24 30.15 50.61 29.91 50.01 29.91C49.38 29.91 48.72 30.15 47.94 30.57V27.27H44.76V33.84H50.58C50.19 34.35 50.01 34.86 50.01 35.34C50.01 35.85 50.19 36.33 50.58 36.81H44.76V44.4H47.94V41.13C48.72 41.55 49.38 41.79 50.01 41.79C50.61 41.79 51.24 41.55 51.96 41.13V44.4ZM65.3491 41.88H66.1891C65.7391 42.39 65.4691 43.23 65.3491 44.4H62.5291C62.4091 43.23 62.1091 42.39 61.7191 41.88H62.5291V36.42L61.4791 39.96C61.0591 39.57 60.6091 39.42 60.1591 39.42C59.6791 39.42 59.2291 39.57 58.7491 39.96L57.6991 36.42V41.88H58.4491C58.0891 42.39 57.8191 43.23 57.6991 44.4H54.8491C54.7291 43.23 54.4591 42.39 54.0691 41.88H54.8491V29.76H54.0691C54.4591 29.25 54.7291 28.44 54.8491 27.27H57.6991C57.8191 28.44 58.0891 29.25 58.4491 29.76H57.9091L60.0991 36.36L62.3191 29.76H61.7191C62.1091 29.25 62.4091 28.44 62.5291 27.27H65.3491C65.4691 28.44 65.7391 29.25 66.1891 29.76H65.3491V41.88ZM66.7591 23.73V25.65H53.6191V23.73H66.7591ZM66.7591 46.08V48H53.6191V46.08H66.7591ZM75.807 41.88H76.587C76.167 42.39 75.927 43.23 75.807 44.4H67.857C67.737 43.23 67.467 42.39 67.077 41.88H67.857V29.76H67.077C67.467 29.25 67.737 28.44 67.857 27.27H75.807C75.927 28.44 76.167 29.25 76.587 29.76H75.807V41.88ZM70.707 41.88H72.957V29.76H70.707V41.88ZM77.187 23.73V25.65H66.627V23.73H77.187ZM77.187 46.08V48H66.627V46.08H77.187ZM78.0173 27.27H85.9673C86.0873 28.41 86.3573 29.22 86.7473 29.76C86.2673 30.3 85.8173 30.84 85.6073 33.36H85.4573C85.2773 31.29 85.0373 29.76 83.4173 29.76V41.88H84.1673C83.7773 42.39 83.5373 43.26 83.4173 44.4H80.5973C80.4473 43.26 80.1773 42.39 79.7873 41.88H80.5973V29.76C78.9773 29.76 78.7373 31.29 78.5273 33.36H78.3773C78.1673 30.84 77.7473 30.3 77.2373 29.76C77.6273 29.22 77.9273 28.41 78.0173 27.27ZM87.1073 23.73V25.65H77.0273V23.73H87.1073ZM87.1073 46.08V48H77.0273V46.08H87.1073ZM91.039 41.88H91.789C91.429 42.39 91.159 43.23 91.039 44.4H88.189C88.069 43.23 87.799 42.39 87.409 41.88H88.189V29.76H87.409C87.799 29.25 88.069 28.44 88.189 27.27H91.039C91.159 28.44 91.429 29.25 91.789 29.76H91.039V41.88ZM92.389 23.73V25.65H86.959V23.73H92.389ZM92.389 46.08V48H86.959V46.08H92.389ZM101.412 41.88H102.192C101.772 42.39 101.532 43.23 101.412 44.4H93.4624C93.3424 43.23 93.0724 42.39 92.6824 41.88H93.4624V29.76H92.6824C93.0724 29.25 93.3424 28.44 93.4624 27.27H101.412C101.532 28.44 101.772 29.25 102.192 29.76H101.412V41.88ZM96.3124 41.88H98.5624V29.76H96.3124V41.88ZM102.792 23.73V25.65H92.2324V23.73H102.792ZM102.792 46.08V48H92.2324V46.08H102.792ZM115.593 44.4H116.733C116.163 45.15 115.773 46.32 115.593 48H111.573C111.423 46.32 111.033 45.15 110.493 44.4H111.573V43.65L108.393 35.31V44.4H109.503C108.963 45.15 108.573 46.32 108.393 48H104.373C104.193 46.32 103.833 45.15 103.263 44.4H104.373V27.27H103.263C103.833 26.55 104.193 25.41 104.373 23.73H108.393C108.573 25.41 108.963 26.55 109.503 27.27H108.543L111.573 35.13V27.27H110.493C111.033 26.55 111.423 25.41 111.573 23.73H115.593C115.773 25.41 116.163 26.55 116.733 27.27H115.593V44.4Z" fill="#9D3636" fill-opacity="0.71"/>
</svg>
