<svg width="152" height="68" viewBox="0 0 152 68" fill="none" xmlns="http://www.w3.org/2000/svg">
<g clip-path="url(#clip0_967_5221)">
<path d="M131.006 65.1742C130.375 65.1821 129.744 65.1899 129.058 65.1697C128.941 65.1355 128.88 65.1239 128.818 65.1239C124.534 65.1229 120.25 65.1226 115.966 65.1249C115.871 65.125 115.776 65.1554 115.681 65.1717C114.808 65.1831 113.934 65.2002 113.061 65.2042C112.406 65.2071 111.751 65.1826 111.097 65.1904C110.605 65.1963 110.113 65.252 109.621 65.2504C109.346 65.2495 109.071 65.1768 108.765 65.1005C108.447 64.5053 108.076 64.0079 107.516 63.6463C107.516 63.6463 107.509 63.6342 107.49 63.6145C107.351 63.5246 107.231 63.4544 107.112 63.3842C107.112 63.3842 107.102 63.3936 107.095 63.3728C107.064 63.3456 107.039 63.3391 107.015 63.3326C106.058 62.7584 104.963 62.6287 103.908 62.8218C102.742 63.0352 101.723 63.6314 101.167 64.6552C100.893 65.1609 100.477 65.2283 99.9855 65.2303C98.211 65.2378 96.4363 65.2345 94.6617 65.2317C91.2283 65.2263 87.7948 65.2198 84.3614 65.211C83.1173 65.2079 81.8732 65.1982 80.6292 65.1873C80.5234 65.1864 80.418 65.154 80.2622 65.1022C79.4305 65.0654 78.649 65.0625 77.8676 65.0596C77.5538 65.1258 77.2408 65.2432 76.9259 65.2478C76.2047 65.2584 75.4824 65.2164 74.7608 65.1891C74.642 65.1846 74.5247 65.1461 74.3571 65.0962C72.9976 65.0644 71.6878 65.0593 70.3779 65.0575C70.3358 65.0575 70.2937 65.0923 70.2516 65.1109C70.1233 65.1367 69.9952 65.1842 69.8668 65.185C68.7943 65.1913 67.7217 65.1811 66.6493 65.1918C65.8474 65.1998 65.0459 65.2442 64.2442 65.2482C63.7021 65.2509 63.1597 65.2116 62.5483 65.1916C61.473 65.1912 60.4668 65.1876 59.4607 65.1913C59.2412 65.1921 59.0219 65.2185 58.8025 65.2332C58.7284 65.2336 58.6543 65.234 58.5268 65.2172C57.8353 65.2116 57.1972 65.2232 56.559 65.2348C55.5918 65.2423 54.6244 65.262 53.6573 65.2542C52.3972 65.2441 51.1374 65.2134 49.8775 65.1869C49.7849 65.185 49.6931 65.1452 49.5492 65.096C49.3734 65.0633 49.2495 65.0527 49.1255 65.0527C34.9215 65.052 20.7175 65.052 6.51347 65.0542C6.38095 65.0542 6.24844 65.0842 6.11593 65.1003C5.56125 65.2666 5.01261 65.2196 4.42592 65.0325C3.75416 64.6323 3.55816 64.0851 3.55924 63.4214C3.56824 57.895 3.56434 52.3686 3.56433 46.8421C3.56433 46.1545 3.56424 46.1542 4.28928 45.9941C7.37888 45.312 9.99151 43.9165 11.9155 41.5676C14.2638 38.7007 15.1188 35.4523 14.5654 31.9176C13.9342 27.8853 11.7298 24.7924 7.81996 22.7865C6.79949 22.263 5.7182 21.8607 4.56059 21.6571C4.56059 21.6571 4.55821 21.6605 4.54023 21.6427C4.43587 21.6113 4.34951 21.5977 4.24125 21.5674C3.94708 21.4528 3.55117 21.5801 3.55274 21.0713C3.57017 15.4052 3.56084 9.73906 3.566 4.07291C3.56704 2.92876 4.2432 2.33066 5.49369 2.33063C12.6173 2.3305 19.7409 2.33057 26.8644 2.33056C51.3237 2.33056 75.783 2.33082 100.242 2.32764C100.569 2.32759 100.812 2.35103 101.001 2.6745C101.824 4.0834 103.121 4.81876 104.878 4.80141C106.617 4.78424 107.891 4.03686 108.696 2.63631C108.837 2.39099 108.983 2.32556 109.264 2.32568C121.792 2.33131 134.321 2.33042 146.849 2.33199C147.01 2.33201 147.175 2.33674 147.331 2.36836C148.116 2.52753 148.513 3.02771 148.702 3.70506C148.704 4.02479 148.708 4.34452 148.708 4.66425C148.708 24.2731 148.708 43.8819 148.707 63.4907C148.707 64.3879 148.35 64.9091 147.518 65.1334C147.204 65.2182 146.858 65.2304 146.526 65.2296C145.359 65.2268 144.193 65.2039 142.967 65.1629C141.489 65.1327 140.07 65.1277 138.65 65.126C138.593 65.1259 138.536 65.1575 138.479 65.1742C137.923 65.182 137.366 65.1898 136.755 65.1694C134.847 65.136 132.993 65.1304 131.14 65.1276C131.095 65.1275 131.051 65.158 131.006 65.1742ZM8.10831 63.6857C38.384 63.6857 68.6596 63.6857 98.9353 63.6857C99.5696 63.6857 99.5696 63.6853 99.6024 63.1062C99.6621 62.053 100.665 61.1368 101.847 61.0864C102.137 61.074 102.262 60.9986 102.224 60.7301C102.213 60.6514 102.223 60.5703 102.223 60.4904C102.223 42.7834 102.223 25.0764 102.223 7.36938C102.223 7.27799 102.215 7.18605 102.224 7.09532C102.243 6.88293 102.163 6.76938 101.91 6.78955C100.698 6.88614 99.4628 5.89025 99.3686 4.72894C99.3386 4.35976 99.1604 4.30318 98.8036 4.30326C68.3412 4.31014 37.8787 4.31343 7.41628 4.29542C6.22914 4.29471 5.2685 5.10104 5.2798 6.25956C5.32227 10.6117 5.29531 14.9644 5.29853 19.3169C5.29898 19.9209 5.20463 19.8252 5.84131 20.0271C8.65453 20.9195 11.104 22.3317 12.9942 24.4538C16.4534 28.3376 17.5315 32.7936 16.2965 37.6348C14.9385 42.9579 11.2755 46.4593 5.65467 48.2431C5.40961 48.3209 5.29047 48.4023 5.29097 48.6624C5.29952 53.0949 5.29492 57.5273 5.29959 61.9598C5.30046 62.7876 5.91548 63.4905 6.80585 63.643C7.20413 63.7113 7.62374 63.6747 8.10831 63.6857ZM107.295 52.268C107.295 54.9868 107.302 57.7056 107.286 60.4244C107.284 60.7755 107.399 60.9112 107.773 60.8595C107.834 60.8511 107.898 60.8581 107.96 60.8595C109.392 60.8911 110.67 61.9193 110.8 63.2231C110.841 63.6333 110.989 63.6922 111.38 63.6919C122.29 63.6835 133.199 63.6855 144.109 63.6847C145.347 63.6846 146.171 62.9312 146.171 61.7989C146.171 43.2582 146.171 24.7176 146.169 6.17701C146.169 6.04125 146.163 5.90179 146.13 5.77034C145.892 4.81908 145.18 4.31066 144.088 4.31059C133.228 4.30992 122.369 4.30982 111.509 4.31219C111.252 4.31225 110.951 4.27622 110.753 4.38394C110.633 4.44895 110.677 4.76031 110.638 4.95939C110.382 6.26153 109.106 7.12819 107.788 7.06452C107.298 7.04087 107.297 7.06187 107.295 7.51006C107.294 7.6243 107.295 7.73853 107.295 7.85277C107.295 22.635 107.295 37.4172 107.295 52.268ZM104.476 32.4887C104.508 32.5542 104.539 32.6196 104.598 32.7396C104.782 32.2817 104.738 31.1218 104.475 30.8886C104.475 31.4523 104.475 31.9399 104.476 32.4887ZM104.474 60.0086C104.487 60.2124 104.501 60.4161 104.514 60.6198C104.575 60.6159 104.635 60.6119 104.695 60.608C104.713 60.04 104.725 59.4722 104.687 58.9049C104.62 58.9028 104.553 58.9008 104.486 58.8987C104.482 59.2464 104.478 59.5942 104.474 60.0086ZM104.474 56.5128C104.487 56.7185 104.5 56.9241 104.512 57.1298C104.574 57.1262 104.635 57.1227 104.696 57.1191C104.713 56.5493 104.723 55.9795 104.689 55.41C104.62 55.4077 104.552 55.4054 104.483 55.403C104.48 55.7507 104.477 56.0984 104.474 56.5128ZM104.587 53.636C104.617 53.619 104.673 53.6022 104.674 53.585C104.678 53.0446 104.677 52.5041 104.672 51.9637C104.672 51.945 104.62 51.9267 104.506 51.8514C104.472 52.4799 104.422 53.0468 104.587 53.636ZM104.481 48.5425C104.499 49.0779 104.408 49.6203 104.612 50.1485C104.686 49.5946 104.687 49.0411 104.678 48.4877C104.678 48.4861 104.558 48.4859 104.481 48.5425ZM104.708 45.824C104.7 45.5212 104.692 45.2185 104.684 44.9157C104.422 45.1573 104.423 46.4278 104.676 46.6648C104.687 46.407 104.698 46.1492 104.708 45.824ZM104.475 42.1931C104.479 42.5188 104.483 42.8444 104.487 43.17C104.76 42.9305 104.761 41.6692 104.503 41.4242C104.494 41.6581 104.484 41.892 104.475 42.1931ZM104.481 38.0607C104.496 38.5964 104.412 39.1382 104.538 39.6911C104.619 39.6548 104.658 39.6458 104.658 39.6359C104.673 39.1068 104.687 38.5777 104.689 38.0485C104.689 38.0344 104.562 38.0198 104.481 38.0607ZM104.474 35.0014C104.497 35.3908 104.422 35.789 104.539 36.2555C104.78 35.8865 104.754 34.6262 104.51 34.4128C104.496 34.6147 104.485 34.7753 104.474 35.0014ZM104.474 24.7808C104.482 25.0832 104.491 25.3855 104.499 25.6879C104.771 25.4388 104.762 24.1701 104.474 23.9717C104.474 24.219 104.474 24.4663 104.474 24.7808ZM104.708 21.8803C104.676 21.4108 104.777 20.9316 104.648 20.4693C104.608 20.4708 104.569 20.4723 104.53 20.4737C104.53 21.0437 104.53 21.6137 104.53 22.1836C104.568 22.1885 104.606 22.1934 104.644 22.1982C104.666 22.1131 104.687 22.028 104.708 21.8803ZM104.474 18.1904C104.489 18.3591 104.503 18.5278 104.518 18.6965C104.578 18.6918 104.638 18.6871 104.699 18.6824C104.699 18.1138 104.75 17.5442 104.668 16.9771C104.603 16.9755 104.539 16.9739 104.474 16.9723C104.474 17.3563 104.474 17.7403 104.474 18.1904ZM104.709 14.1582C104.694 13.9308 104.68 13.7034 104.666 13.476C104.622 13.4804 104.578 13.4848 104.534 13.4893C104.534 14.0577 104.534 14.6262 104.534 15.1947C104.586 15.1964 104.638 15.1982 104.69 15.1999C104.696 14.8752 104.702 14.5504 104.709 14.1582ZM104.709 11.2643C104.707 10.8385 104.706 10.4127 104.704 9.98683C104.411 10.2247 104.422 11.5024 104.657 11.7447C104.677 11.5771 104.693 11.453 104.709 11.2643ZM104.476 28.9929C104.508 29.0585 104.539 29.1241 104.597 29.2441C104.782 28.7891 104.738 27.628 104.475 27.3928C104.475 27.9573 104.475 28.4445 104.476 28.9929ZM104.481 8.0781C104.515 8.11901 104.549 8.15992 104.583 8.20083C104.624 8.14241 104.699 8.08454 104.7 8.02548C104.708 7.57315 104.706 7.12054 104.697 6.66816C104.696 6.61775 104.637 6.56828 104.604 6.51837C104.562 6.52161 104.519 6.52485 104.477 6.52809C104.477 7.02467 104.477 7.52125 104.481 8.0781Z" fill="#DFD2BA"/>
<path d="M6.15137 65.1097C6.24874 65.0842 6.38125 65.0542 6.51376 65.0542C20.7178 65.052 34.9218 65.052 49.1258 65.0526C49.2498 65.0526 49.3737 65.0632 49.5172 65.0909C49.4748 65.1155 49.4127 65.1204 49.3506 65.1204C34.9626 65.1202 20.5745 65.1197 6.15137 65.1097Z" fill="white"/>
<path d="M115.716 65.18C115.777 65.1558 115.872 65.1253 115.967 65.1253C120.251 65.123 124.535 65.1233 128.819 65.1242C128.88 65.1242 128.942 65.1359 129.023 65.1637C124.611 65.1862 120.181 65.1871 115.716 65.18Z" fill="#FFFF00"/>
<path d="M131.04 65.1814C131.051 65.1584 131.095 65.1279 131.139 65.1279C132.993 65.1308 134.847 65.1364 136.72 65.1635C134.85 65.1863 132.962 65.1872 131.04 65.1814Z" fill="#FFFF00"/>
<path d="M138.513 65.181C138.536 65.1574 138.593 65.1259 138.65 65.126C140.069 65.1277 141.489 65.1327 142.933 65.1544C141.487 65.177 140.017 65.1824 138.513 65.181Z" fill="#FFFF00"/>
<path d="M70.2861 65.1156C70.2939 65.0924 70.336 65.0576 70.3781 65.0576C71.6879 65.0594 72.9978 65.0645 74.3273 65.0911C73.0048 65.1155 71.6627 65.1178 70.2861 65.1156Z" fill="white"/>
<path d="M58.8369 65.2436C59.0222 65.2187 59.2416 65.1922 59.461 65.1914C60.4671 65.1878 61.4733 65.1913 62.5142 65.1966C62.4587 65.22 62.3686 65.2554 62.2784 65.2556C61.1426 65.2579 60.0068 65.2552 58.8369 65.2436Z" fill="#FF0000"/>
<path d="M77.8828 65.0858C78.649 65.0625 79.4304 65.0654 80.2327 65.0896C79.4684 65.1113 78.6832 65.1117 77.8828 65.0858Z" fill="white"/>
<path d="M56.5928 65.2453C57.1967 65.2231 57.8349 65.2115 58.4986 65.2173C57.8917 65.2418 57.2594 65.2488 56.5928 65.2453Z" fill="#EB0000"/>
<path d="M107.119 63.4072C107.232 63.4544 107.351 63.5246 107.483 63.6131C107.372 63.5644 107.249 63.4973 107.119 63.4072Z" fill="#41210C"/>
<path d="M4.28968 21.6527C4.25974 21.6489 4.26119 21.6166 4.26206 21.6004C4.34928 21.5979 4.43564 21.6115 4.54131 21.6415C4.48027 21.6574 4.39994 21.6569 4.28968 21.6527Z" fill="#693613"/>
<path d="M107.026 63.3468C107.04 63.3392 107.065 63.3457 107.1 63.3674C107.087 63.3753 107.062 63.3681 107.026 63.3468Z" fill="#41210C"/>
<path d="M8.07059 63.6858C7.62333 63.6747 7.20372 63.7113 6.80544 63.643C5.91508 63.4905 5.30006 62.7876 5.29918 61.9598C5.29451 57.5273 5.29912 53.0949 5.29056 48.6624C5.29006 48.4023 5.40921 48.3209 5.65427 48.2431C11.2751 46.4593 14.9381 42.9579 16.2961 37.6348C17.5311 32.7936 16.453 28.3376 12.9938 24.4538C11.1036 22.3317 8.65413 20.9195 5.8409 20.0271C5.20423 19.8251 5.29857 19.9209 5.29812 19.3169C5.2949 14.9644 5.32186 10.6117 5.2794 6.25955C5.26809 5.10103 6.22874 4.29471 7.41587 4.29541C37.8783 4.31342 68.3408 4.31014 98.8032 4.30326C99.16 4.30318 99.3382 4.35975 99.3682 4.72894C99.4624 5.89024 100.697 6.88614 101.909 6.78955C102.162 6.76937 102.243 6.88292 102.223 7.09531C102.215 7.18605 102.222 7.27798 102.222 7.36937C102.222 25.0764 102.222 42.7834 102.222 60.4904C102.222 60.5703 102.213 60.6514 102.224 60.7301C102.261 60.9986 102.137 61.074 101.846 61.0864C100.664 61.1368 99.6617 62.053 99.602 63.1062C99.5692 63.6853 99.5692 63.6857 98.9349 63.6857C68.6592 63.6857 38.3836 63.6857 8.07059 63.6858ZM101.718 51.5825C101.718 41.1412 101.718 30.6999 101.718 20.2586C101.718 16.0661 101.715 11.8736 101.724 7.68107C101.725 7.35938 101.634 7.24722 101.267 7.17641C100.066 6.9448 99.2814 6.2451 98.9716 5.1615C98.87 4.80598 98.7275 4.72289 98.3534 4.72333C90.1837 4.73283 82.0139 4.73057 73.8441 4.73057C51.7883 4.73057 29.7324 4.73482 7.6766 4.71855C6.52138 4.7177 5.72872 5.1872 5.74158 6.47201C5.78365 10.6756 5.76218 14.8798 5.74846 19.0837C5.74733 19.4285 5.86658 19.5708 6.2177 19.687C10.0757 20.9637 13.107 23.173 15.1042 26.4859C17.1331 29.8514 17.7535 33.4506 16.8921 37.212C15.6122 42.8013 11.9933 46.5754 6.15067 48.5464C5.83601 48.6526 5.74941 48.7943 5.75015 49.0901C5.76075 53.294 5.7572 57.498 5.75746 61.7019C5.75753 62.7233 6.34796 63.2685 7.46109 63.2685C37.8486 63.269 68.2361 63.2689 98.6236 63.2681C98.7687 63.2681 98.9138 63.2565 99.0533 63.2505C99.0886 63.1024 99.1178 62.9915 99.1411 62.8796C99.377 61.7473 100.105 61.0196 101.313 60.7268C101.648 60.6457 101.727 60.5181 101.725 60.2189C101.713 57.363 101.718 54.507 101.718 51.5825Z" fill="#EDE7CE"/>
<path d="M107.294 52.2339C107.294 37.4174 107.294 22.6352 107.294 7.85297C107.294 7.73873 107.294 7.62449 107.295 7.51026C107.296 7.06207 107.298 7.04107 107.787 7.06471C109.106 7.12838 110.382 6.26172 110.637 4.95959C110.677 4.7605 110.632 4.44914 110.752 4.38413C110.951 4.27641 111.251 4.31244 111.509 4.31239C122.368 4.31002 133.228 4.31012 144.088 4.31079C145.18 4.31085 145.892 4.81928 146.13 5.77053C146.163 5.90199 146.169 6.04145 146.169 6.17721C146.171 24.7178 146.171 43.2584 146.17 61.7991C146.17 62.9314 145.347 63.6848 144.108 63.6849C133.199 63.6857 122.289 63.6837 111.38 63.6921C110.989 63.6924 110.841 63.6335 110.8 63.2233C110.669 61.9195 109.392 60.8913 107.959 60.8597C107.897 60.8583 107.834 60.8513 107.773 60.8597C107.399 60.9114 107.284 60.7757 107.286 60.4246C107.301 57.7058 107.294 54.987 107.294 52.2339ZM107.76 25.6029C107.76 36.9802 107.76 48.3575 107.76 59.7347C107.76 59.8604 107.769 59.9867 107.758 60.1116C107.741 60.3107 107.832 60.3682 108.047 60.4131C108.551 60.5183 109.08 60.6096 109.531 60.8256C110.571 61.3238 111.11 62.1796 111.314 63.2696C111.502 63.2696 111.685 63.2696 111.869 63.2696C122.541 63.2696 133.213 63.2696 143.885 63.2696C143.985 63.2696 144.085 63.272 144.184 63.2684C144.944 63.2415 145.499 62.8206 145.654 62.1329C145.701 61.923 145.715 61.7036 145.715 61.4886C145.718 47.2212 145.717 32.9539 145.717 18.6866C145.717 14.6428 145.699 10.599 145.729 6.55541C145.738 5.40342 145.147 4.69171 143.75 4.71511C140.787 4.76475 137.823 4.73025 134.859 4.73025C127.138 4.73025 119.417 4.73246 111.696 4.72354C111.322 4.72311 111.147 4.7801 111.062 5.16607C110.771 6.48322 109.6 7.40271 108.157 7.47099C107.775 7.48907 107.755 7.64698 107.756 7.92006C107.761 13.7915 107.76 19.6629 107.76 25.6029Z" fill="#EEE8D0"/>
<path d="M104.475 32.4582C104.475 31.94 104.475 31.4524 104.475 30.8887C104.738 31.1219 104.782 32.2817 104.598 32.7397C104.54 32.6197 104.508 32.5543 104.475 32.4582Z" fill="#ECE4CB"/>
<path d="M104.474 59.9755C104.478 59.5944 104.481 59.2467 104.485 58.8989C104.553 58.901 104.62 58.9031 104.687 58.9051C104.724 59.4724 104.713 60.0403 104.695 60.6082C104.635 60.6121 104.574 60.6161 104.514 60.62C104.5 60.4163 104.487 60.2126 104.474 59.9755Z" fill="#ECE4CB"/>
<path d="M104.474 56.4797C104.477 56.0987 104.479 55.751 104.482 55.4033C104.551 55.4056 104.62 55.408 104.689 55.4103C104.723 55.9797 104.713 56.5496 104.696 57.1194C104.635 57.123 104.573 57.1265 104.512 57.13C104.499 56.9244 104.486 56.7188 104.474 56.4797Z" fill="#ECE4CB"/>
<path d="M104.559 53.6272C104.422 53.047 104.472 52.4801 104.506 51.8516C104.62 51.9269 104.672 51.9452 104.672 51.9639C104.677 52.5043 104.678 53.0448 104.674 53.5852C104.674 53.6024 104.617 53.6192 104.559 53.6272Z" fill="#ECE4CB"/>
<path d="M104.488 48.514C104.558 48.4862 104.679 48.4863 104.679 48.4879C104.687 49.0413 104.687 49.5948 104.612 50.1487C104.409 49.6205 104.5 49.0781 104.488 48.514Z" fill="#EDE5CD"/>
<path d="M104.708 45.858C104.698 46.1495 104.687 46.4073 104.677 46.6651C104.423 46.4281 104.422 45.1576 104.685 44.916C104.692 45.2188 104.7 45.5215 104.708 45.858Z" fill="#EDE5CD"/>
<path d="M104.475 42.1596C104.484 41.8921 104.494 41.6582 104.503 41.4243C104.761 41.6693 104.76 42.9306 104.487 43.1701C104.483 42.8445 104.479 42.5189 104.475 42.1596Z" fill="#EDE5CD"/>
<path d="M104.487 38.0331C104.562 38.0198 104.689 38.0343 104.689 38.0485C104.687 38.5777 104.673 39.1068 104.658 39.6358C104.658 39.6458 104.619 39.6548 104.537 39.6911C104.412 39.1382 104.496 38.5964 104.487 38.0331Z" fill="#ECE4CB"/>
<path d="M104.474 34.9689C104.485 34.7756 104.496 34.6149 104.51 34.4131C104.754 34.6265 104.78 35.8868 104.539 36.2558C104.423 35.7893 104.498 35.391 104.474 34.9689Z" fill="#ECE4CB"/>
<path d="M104.474 24.7471C104.474 24.4662 104.474 24.219 104.474 23.9717C104.761 24.17 104.771 25.4387 104.499 25.6878C104.49 25.3855 104.482 25.0831 104.474 24.7471Z" fill="#ECE4CB"/>
<path d="M104.708 21.9114C104.686 22.0279 104.665 22.113 104.644 22.1981C104.606 22.1933 104.568 22.1884 104.529 22.1836C104.529 21.6136 104.529 21.0436 104.529 20.4736C104.569 20.4722 104.608 20.4707 104.647 20.4692C104.777 20.9315 104.676 21.4107 104.708 21.9114Z" fill="#ECE4CB"/>
<path d="M104.474 18.1577C104.474 17.7407 104.474 17.3567 104.474 16.9727C104.538 16.9742 104.603 16.9758 104.667 16.9774C104.749 17.5445 104.699 18.1141 104.698 18.6828C104.638 18.6875 104.578 18.6922 104.517 18.6969C104.503 18.5282 104.488 18.3594 104.474 18.1577Z" fill="#ECE4CB"/>
<path d="M104.709 14.1919C104.703 14.5504 104.697 14.8752 104.69 15.2C104.638 15.1983 104.586 15.1965 104.534 15.1948C104.534 14.6263 104.534 14.0578 104.534 13.4893C104.578 13.4849 104.622 13.4805 104.666 13.4761C104.68 13.7035 104.695 13.9309 104.709 14.1919Z" fill="#ECE4CB"/>
<path d="M104.709 11.2965C104.693 11.453 104.678 11.5771 104.657 11.7447C104.422 11.5024 104.411 10.2247 104.705 9.98682C104.706 10.4126 104.707 10.8385 104.709 11.2965Z" fill="#ECE4CB"/>
<path d="M104.475 28.9626C104.475 28.4448 104.475 27.9575 104.475 27.3931C104.738 27.6282 104.782 28.7893 104.597 29.2444C104.539 29.1243 104.508 29.0587 104.475 28.9626Z" fill="#ECE4CB"/>
<path d="M104.479 8.04816C104.477 7.52144 104.477 7.02486 104.477 6.52828C104.519 6.52504 104.562 6.5218 104.604 6.51855C104.637 6.56846 104.696 6.61794 104.697 6.66835C104.706 7.12073 104.708 7.57334 104.7 8.02567C104.699 8.08473 104.624 8.1426 104.583 8.20102C104.549 8.16011 104.515 8.1192 104.479 8.04816Z" fill="#EDE5CD"/>
<path d="M101.719 51.617C101.719 54.5072 101.714 57.3632 101.726 60.2191C101.727 60.5183 101.648 60.6459 101.314 60.727C100.106 61.0198 99.3778 61.7475 99.1419 62.8798C99.1185 62.9917 99.0893 63.1026 99.0541 63.2507C98.9145 63.2567 98.7694 63.2683 98.6244 63.2683C68.2369 63.2691 37.8494 63.2692 7.46185 63.2687C6.34873 63.2687 5.75829 62.7235 5.75823 61.7022C5.75797 57.4982 5.76151 53.2942 5.75092 49.0903C5.75017 48.7945 5.83677 48.6528 6.15144 48.5466C11.9941 46.5756 15.613 42.8015 16.8929 37.2122C17.7542 33.4508 17.1339 29.8516 15.1049 26.4861C13.1077 23.1732 10.0765 20.9639 6.21846 19.6872C5.86734 19.571 5.74809 19.4287 5.74922 19.0839C5.76294 14.88 5.78441 10.6758 5.74234 6.4722C5.72948 5.1874 6.52215 4.7179 7.67736 4.71875C29.7332 4.73502 51.789 4.73077 73.8449 4.73077C82.0147 4.73077 90.1844 4.73303 98.3541 4.72353C98.7282 4.72309 98.8707 4.80618 98.9724 5.1617C99.2821 6.24529 100.066 6.945 101.267 7.17661C101.634 7.24742 101.726 7.35958 101.725 7.68127C101.715 11.8738 101.719 16.0663 101.719 20.2588C101.719 30.7001 101.719 41.1414 101.719 51.617Z" fill="#DFD2BA"/>
<path d="M117.812 25.6314C117.812 19.7257 117.813 13.8543 117.808 7.98286C117.807 7.70978 117.827 7.55186 118.209 7.53378C119.652 7.4655 120.823 6.54602 121.114 5.22887C121.199 4.8429 121.374 4.7859 121.748 4.78634C129.469 4.79525 137.19 4.79305 144.911 4.79304C147.875 4.79304 150.839 4.82754 153.802 4.7779C155.199 4.75451 155.79 5.46621 155.781 6.6182C155.751 10.6617 155.769 14.7056 155.769 18.7494C155.769 33.0167 155.77 47.284 155.767 61.5513C155.767 61.7664 155.753 61.9858 155.706 62.1957C155.551 62.8834 154.996 63.3043 154.236 63.3312C154.137 63.3347 154.037 63.3324 153.937 63.3324C143.265 63.3324 132.593 63.3324 121.921 63.3324C121.737 63.3324 121.554 63.3324 121.366 63.3324C121.162 62.2424 120.623 61.3865 119.583 60.8884C119.132 60.6724 118.603 60.5811 118.099 60.4759C117.884 60.4309 117.793 60.3735 117.81 60.1743C117.821 60.0495 117.812 59.9232 117.812 59.7975C117.812 48.4202 117.812 37.043 117.812 25.6314Z" fill="#DFD2BA"/>
<path d="M52.96 43.4H54.1C53.53 44.15 53.14 45.32 52.96 47H48.94C48.79 45.32 48.4 44.15 47.86 43.4H48.94V42.65L45.76 34.31V43.4H46.87C46.33 44.15 45.94 45.32 45.76 47H41.74C41.56 45.32 41.2 44.15 40.63 43.4H41.74V26.27H40.63C41.2 25.55 41.56 24.41 41.74 22.73H45.76C45.94 24.41 46.33 25.55 46.87 26.27H45.91L48.94 34.13V26.27H47.86C48.4 25.55 48.79 24.41 48.94 22.73H52.96C53.14 24.41 53.53 25.55 54.1 26.27H52.96V43.4ZM63.9456 40.88H64.7256C64.3056 41.39 64.0656 42.23 63.9456 43.4H55.9956C55.8756 42.23 55.6056 41.39 55.2156 40.88H55.9956V28.76H55.2156C55.6056 28.25 55.8756 27.44 55.9956 26.27H63.9456C64.0656 27.44 64.3056 28.25 64.7256 28.76H63.9456V40.88ZM58.8456 40.88H61.0956V28.76H58.8456V40.88ZM65.3256 22.73V24.65H54.7656V22.73H65.3256ZM65.3256 45.08V47H54.7656V45.08H65.3256ZM74.346 40.88H75.126C74.706 41.39 74.466 42.23 74.346 43.4H71.496C71.376 42.23 71.136 41.39 70.716 40.88H71.496V37.4C70.686 37.22 69.936 36.77 69.246 35.93V40.88H69.996C69.636 41.39 69.366 42.23 69.246 43.4H66.396C66.276 42.23 66.006 41.39 65.616 40.88H66.396V28.76H65.616C66.006 28.22 66.276 27.41 66.396 26.27H74.346C74.466 27.41 74.706 28.22 75.126 28.76H74.346V32.96C72.906 32.96 71.736 33.44 70.806 34.4C71.676 35.42 72.846 35.93 74.346 35.93V40.88ZM71.496 31.55V28.76H69.246V32.96C69.876 32.33 70.686 31.76 71.496 31.55ZM75.726 22.73V24.65H65.166V22.73H75.726ZM75.726 45.08V47H65.166V45.08H75.726ZM87.2964 40.88H88.1364C87.6864 41.39 87.4164 42.23 87.2964 43.4H84.4764C84.3564 42.23 84.0564 41.39 83.6664 40.88H84.4764V35.42L83.4264 38.96C83.0064 38.57 82.5564 38.42 82.1064 38.42C81.6264 38.42 81.1764 38.57 80.6964 38.96L79.6464 35.42V40.88H80.3964C80.0364 41.39 79.7664 42.23 79.6464 43.4H76.7964C76.6764 42.23 76.4064 41.39 76.0164 40.88H76.7964V28.76H76.0164C76.4064 28.25 76.6764 27.44 76.7964 26.27H79.6464C79.7664 27.44 80.0364 28.25 80.3964 28.76H79.8564L82.0464 35.36L84.2664 28.76H83.6664C84.0564 28.25 84.3564 27.44 84.4764 26.27H87.2964C87.4164 27.44 87.6864 28.25 88.1364 28.76H87.2964V40.88ZM88.7064 22.73V24.65H75.5664V22.73H88.7064ZM88.7064 45.08V47H75.5664V45.08H88.7064ZM97.3942 40.88H98.3242C97.9042 41.39 97.6342 42.23 97.5142 43.4H94.6642C94.5742 42.23 94.2742 41.39 93.8842 40.88H94.9642L94.6642 39.11H92.3542L92.1142 40.88H93.1942C92.8042 41.39 92.5642 42.23 92.4142 43.4H89.5642C89.4742 42.23 89.1742 41.39 88.7842 40.88H89.6842L91.5742 28.76H90.7342C91.0942 28.25 91.3942 27.44 91.4842 26.27H95.1142C95.2042 27.41 95.5042 28.22 95.8942 28.76H95.0242L97.3942 40.88ZM92.6842 37.01H94.2142L93.3742 32.69L92.6842 37.01ZM98.6842 22.73V24.65H88.5742V22.73H98.6842ZM98.6842 45.08V47H88.5742V45.08H98.6842ZM111.495 43.4H112.635C112.065 44.15 111.675 45.32 111.495 47H100.275C100.095 45.32 99.7352 44.15 99.1652 43.4H100.275V26.27H99.1652C99.7352 25.55 100.095 24.41 100.275 22.73H104.295C104.475 24.41 104.865 25.55 105.405 26.27H104.295V43.4H107.475V40.13C108.255 40.55 108.915 40.79 109.545 40.79C110.145 40.79 110.775 40.55 111.495 40.13V43.4Z" fill="#9D3636" fill-opacity="0.71"/>
</g>
<defs>
<clipPath id="clip0_967_5221">
<rect width="152" height="68" fill="white"/>
</clipPath>
</defs>
</svg>
