<svg width="406" height="144" viewBox="0 0 406 144" fill="none" xmlns="http://www.w3.org/2000/svg">
<path d="M53.16 54.2935H49.78V73.2735C41.07 73.2735 31.71 78.3435 27.68 85.3635V106.813H30.93C29.37 109.023 28.2 112.663 27.68 117.733H15.33C14.81 112.663 13.64 109.023 11.95 106.813H15.33V54.2935H11.95C13.64 51.9535 14.81 48.4435 15.33 43.5035H49.78C50.3 48.4435 51.34 51.9535 53.16 54.2935ZM37.43 66.3835V54.2935H27.68V72.4935C30.41 69.7635 33.92 67.2935 37.43 66.3835ZM55.24 28.1635V36.4835H10V28.1635H55.24ZM55.24 125.013V133.333H10V125.013H55.24ZM94.4675 106.813H97.8475C96.0275 109.023 94.9875 112.663 94.4675 117.733H60.0175C59.4975 112.663 58.3275 109.023 56.6375 106.813H60.0175V54.2935H56.6375C58.3275 52.0835 59.4975 48.5735 60.0175 43.5035H94.4675C94.9875 48.5735 96.0275 52.0835 97.8475 54.2935H94.4675V106.813ZM72.3675 106.813H82.1175V54.2935H72.3675V106.813ZM100.448 28.1635V36.4835H54.6875V28.1635H100.448ZM100.448 125.013V133.333H54.6875V125.013H100.448ZM139.536 106.813H142.916C141.096 109.023 140.056 112.663 139.536 117.733H127.186C126.666 112.663 125.626 109.023 123.806 106.813H127.186V91.7335C123.546 90.8235 120.296 88.7435 117.436 85.3635V106.813H120.686C119.126 109.023 117.956 112.663 117.436 117.733H105.086C104.566 112.663 103.396 109.023 101.706 106.813H105.086V54.2935H101.706C103.396 51.9535 104.566 48.4435 105.086 43.5035H117.436C117.956 48.4435 119.126 51.9535 120.686 54.2935H117.436V72.4935C120.296 69.3735 123.546 67.6835 127.186 66.3835V54.2935H123.806C125.496 51.9535 126.666 48.4435 127.186 43.5035H139.536C140.056 48.4435 141.096 51.9535 142.916 54.2935H139.536V72.4935C133.296 72.4935 128.226 74.5735 124.196 78.7335C127.966 83.1535 133.036 85.3635 139.536 85.3635V106.813ZM145.516 28.1635V36.4835H99.7559V28.1635H145.516ZM145.516 125.013V133.333H99.7559V125.013H145.516ZM184.604 106.813H187.984C186.164 109.023 185.124 112.663 184.604 117.733H150.154C149.634 112.663 148.464 109.023 146.774 106.813H150.154V54.2935H146.774C148.464 52.0835 149.634 48.5735 150.154 43.5035H184.604C185.124 48.5735 186.164 52.0835 187.984 54.2935H184.604V64.3035C182.394 63.0035 180.444 62.3535 178.624 62.3535C176.674 62.3535 174.594 63.0035 172.254 64.3035V54.2935H162.504V74.4435H180.184C179.144 76.0035 178.624 77.4335 178.624 78.9935C178.624 80.5535 179.144 82.1135 180.184 83.4135H162.504V106.813H172.254V96.8035C174.594 98.1035 176.674 98.7535 178.624 98.7535C180.444 98.7535 182.394 98.1035 184.604 96.8035V106.813ZM190.064 28.1635V36.4835H144.824V28.1635H190.064ZM190.064 125.013V133.333H144.824V125.013H190.064ZM229.292 106.813H232.672C230.852 109.023 229.812 112.663 229.292 117.733H216.942C216.422 112.663 215.382 109.023 213.562 106.813H216.942V91.7335C213.432 90.9535 210.182 89.0035 207.192 85.3635V106.813H210.442C208.882 109.023 207.712 112.663 207.192 117.733H194.842C194.322 112.663 193.152 109.023 191.462 106.813H194.842V54.2935H191.462C193.152 51.9535 194.322 48.4435 194.842 43.5035H229.292C229.812 48.4435 230.852 51.9535 232.672 54.2935H229.292V72.4935C223.052 72.4935 217.982 74.5735 213.952 78.7335C217.722 83.1535 222.792 85.3635 229.292 85.3635V106.813ZM216.942 66.3835V54.2935H207.192V72.4935C209.922 69.7635 213.432 67.2935 216.942 66.3835ZM235.272 28.1635V36.4835H189.512V28.1635H235.272ZM235.272 125.013V133.333H189.512V125.013H235.272ZM277.74 54.2935H274.36V64.3035C272.15 63.0035 270.2 62.3535 268.38 62.3535C266.43 62.3535 264.35 63.0035 262.01 64.3035V54.2935H252.26V74.4435H269.94C268.77 75.7435 268.25 77.1735 268.25 78.8635C268.25 80.5535 268.77 82.1135 269.94 83.4135H252.26V106.813H255.51C253.95 109.023 252.78 112.663 252.26 117.733H239.91C239.39 112.663 238.22 109.023 236.53 106.813H239.91V54.2935H236.53C238.22 52.0835 239.39 48.5735 239.91 43.5035H274.36C274.88 48.5735 275.92 52.0835 277.74 54.2935ZM279.3 28.1635V36.4835H234.58V28.1635H279.3ZM279.3 125.013V133.333H234.58V125.013H279.3ZM310.251 106.813H314.281C312.461 109.023 311.291 112.663 310.771 117.733H298.421C298.031 112.663 296.731 109.023 295.041 106.813H299.721L298.421 99.1435H288.411L287.371 106.813H292.051C290.361 109.023 289.321 112.663 288.671 117.733H276.321C275.931 112.663 274.631 109.023 272.941 106.813H276.841L285.031 54.2935H281.391C282.951 52.0835 284.251 48.5735 284.641 43.5035H300.371C300.761 48.4435 302.061 51.9535 303.751 54.2935H299.981L310.251 106.813ZM289.841 90.0435H296.471L292.831 71.3235L289.841 90.0435ZM315.841 28.1635V36.4835H272.031V28.1635H315.841ZM315.841 125.013V133.333H272.031V125.013H315.841ZM354.975 106.813H358.355C356.535 109.023 355.495 112.663 354.975 117.733H320.525C320.005 112.663 318.835 109.023 317.145 106.813H320.525V54.2935H317.145C318.835 52.0835 320.005 48.5735 320.525 43.5035H354.975C355.495 48.5735 356.535 52.0835 358.355 54.2935H354.975V64.3035C352.765 63.0035 350.815 62.3535 348.995 62.3535C347.045 62.3535 344.965 63.0035 342.625 64.3035V54.2935H332.875V106.813H342.625V96.8035C344.965 98.1035 347.045 98.7535 348.995 98.7535C350.815 98.7535 352.765 98.1035 354.975 96.8035V106.813ZM360.435 28.1635V36.4835H315.195V28.1635H360.435ZM360.435 125.013V133.333H315.195V125.013H360.435ZM399.663 106.813H403.043C401.223 109.023 400.183 112.663 399.663 117.733H365.213C364.693 112.663 363.523 109.023 361.833 106.813H365.213V54.2935H361.833C363.523 52.0835 364.693 48.5735 365.213 43.5035H399.663C400.183 48.5735 401.223 52.0835 403.043 54.2935H399.663V64.3035C397.453 63.0035 395.503 62.3535 393.683 62.3535C391.733 62.3535 389.653 63.0035 387.313 64.3035V54.2935H377.563V74.4435H395.243C394.203 76.0035 393.683 77.4335 393.683 78.9935C393.683 80.5535 394.203 82.1135 395.243 83.4135H377.563V106.813H387.313V96.8035C389.653 98.1035 391.733 98.7535 393.683 98.7535C395.503 98.7535 397.453 98.1035 399.663 96.8035V106.813ZM405.123 28.1635V36.4835H359.883V28.1635H405.123ZM405.123 125.013V133.333H359.883V125.013H405.123Z" fill="#3C2519"/>
<path d="M43.16 48.96H39.78V67.94C31.07 67.94 21.71 73.01 17.68 80.03V101.48H20.93C19.37 103.69 18.2 107.33 17.68 112.4H5.33C4.81 107.33 3.64 103.69 1.95 101.48H5.33V48.96H1.95C3.64 46.62 4.81 43.11 5.33 38.17H39.78C40.3 43.11 41.34 46.62 43.16 48.96ZM27.43 61.05V48.96H17.68V67.16C20.41 64.43 23.92 61.96 27.43 61.05ZM45.24 22.83V31.15H0V22.83H45.24ZM45.24 119.68V128H0V119.68H45.24ZM84.4675 101.48H87.8475C86.0275 103.69 84.9875 107.33 84.4675 112.4H50.0175C49.4975 107.33 48.3275 103.69 46.6375 101.48H50.0175V48.96H46.6375C48.3275 46.75 49.4975 43.24 50.0175 38.17H84.4675C84.9875 43.24 86.0275 46.75 87.8475 48.96H84.4675V101.48ZM62.3675 101.48H72.1175V48.96H62.3675V101.48ZM90.4475 22.83V31.15H44.6875V22.83H90.4475ZM90.4475 119.68V128H44.6875V119.68H90.4475ZM129.536 101.48H132.916C131.096 103.69 130.056 107.33 129.536 112.4H117.186C116.666 107.33 115.626 103.69 113.806 101.48H117.186V86.4C113.546 85.49 110.296 83.41 107.436 80.03V101.48H110.686C109.126 103.69 107.956 107.33 107.436 112.4H95.0859C94.5659 107.33 93.3959 103.69 91.7059 101.48H95.0859V48.96H91.7059C93.3959 46.62 94.5659 43.11 95.0859 38.17H107.436C107.956 43.11 109.126 46.62 110.686 48.96H107.436V67.16C110.296 64.04 113.546 62.35 117.186 61.05V48.96H113.806C115.496 46.62 116.666 43.11 117.186 38.17H129.536C130.056 43.11 131.096 46.62 132.916 48.96H129.536V67.16C123.296 67.16 118.226 69.24 114.196 73.4C117.966 77.82 123.036 80.03 129.536 80.03V101.48ZM135.516 22.83V31.15H89.7559V22.83H135.516ZM135.516 119.68V128H89.7559V119.68H135.516ZM174.604 101.48H177.984C176.164 103.69 175.124 107.33 174.604 112.4H140.154C139.634 107.33 138.464 103.69 136.774 101.48H140.154V48.96H136.774C138.464 46.75 139.634 43.24 140.154 38.17H174.604C175.124 43.24 176.164 46.75 177.984 48.96H174.604V58.97C172.394 57.67 170.444 57.02 168.624 57.02C166.674 57.02 164.594 57.67 162.254 58.97V48.96H152.504V69.11H170.184C169.144 70.67 168.624 72.1 168.624 73.66C168.624 75.22 169.144 76.78 170.184 78.08H152.504V101.48H162.254V91.47C164.594 92.77 166.674 93.42 168.624 93.42C170.444 93.42 172.394 92.77 174.604 91.47V101.48ZM180.064 22.83V31.15H134.824V22.83H180.064ZM180.064 119.68V128H134.824V119.68H180.064ZM219.292 101.48H222.672C220.852 103.69 219.812 107.33 219.292 112.4H206.942C206.422 107.33 205.382 103.69 203.562 101.48H206.942V86.4C203.432 85.62 200.182 83.67 197.192 80.03V101.48H200.442C198.882 103.69 197.712 107.33 197.192 112.4H184.842C184.322 107.33 183.152 103.69 181.462 101.48H184.842V48.96H181.462C183.152 46.62 184.322 43.11 184.842 38.17H219.292C219.812 43.11 220.852 46.62 222.672 48.96H219.292V67.16C213.052 67.16 207.982 69.24 203.952 73.4C207.722 77.82 212.792 80.03 219.292 80.03V101.48ZM206.942 61.05V48.96H197.192V67.16C199.922 64.43 203.432 61.96 206.942 61.05ZM225.272 22.83V31.15H179.512V22.83H225.272ZM225.272 119.68V128H179.512V119.68H225.272ZM267.74 48.96H264.36V58.97C262.15 57.67 260.2 57.02 258.38 57.02C256.43 57.02 254.35 57.67 252.01 58.97V48.96H242.26V69.11H259.94C258.77 70.41 258.25 71.84 258.25 73.53C258.25 75.22 258.77 76.78 259.94 78.08H242.26V101.48H245.51C243.95 103.69 242.78 107.33 242.26 112.4H229.91C229.39 107.33 228.22 103.69 226.53 101.48H229.91V48.96H226.53C228.22 46.75 229.39 43.24 229.91 38.17H264.36C264.88 43.24 265.92 46.75 267.74 48.96ZM269.3 22.83V31.15H224.58V22.83H269.3ZM269.3 119.68V128H224.58V119.68H269.3ZM300.251 101.48H304.281C302.461 103.69 301.291 107.33 300.771 112.4H288.421C288.031 107.33 286.731 103.69 285.041 101.48H289.721L288.421 93.81H278.411L277.371 101.48H282.051C280.361 103.69 279.321 107.33 278.671 112.4H266.321C265.931 107.33 264.631 103.69 262.941 101.48H266.841L275.031 48.96H271.391C272.951 46.75 274.251 43.24 274.641 38.17H290.371C290.761 43.11 292.061 46.62 293.751 48.96H289.981L300.251 101.48ZM279.841 84.71H286.471L282.831 65.99L279.841 84.71ZM305.841 22.83V31.15H262.031V22.83H305.841ZM305.841 119.68V128H262.031V119.68H305.841ZM344.975 101.48H348.355C346.535 103.69 345.495 107.33 344.975 112.4H310.525C310.005 107.33 308.835 103.69 307.145 101.48H310.525V48.96H307.145C308.835 46.75 310.005 43.24 310.525 38.17H344.975C345.495 43.24 346.535 46.75 348.355 48.96H344.975V58.97C342.765 57.67 340.815 57.02 338.995 57.02C337.045 57.02 334.965 57.67 332.625 58.97V48.96H322.875V101.48H332.625V91.47C334.965 92.77 337.045 93.42 338.995 93.42C340.815 93.42 342.765 92.77 344.975 91.47V101.48ZM350.435 22.83V31.15H305.195V22.83H350.435ZM350.435 119.68V128H305.195V119.68H350.435ZM389.663 101.48H393.043C391.223 103.69 390.183 107.33 389.663 112.4H355.213C354.693 107.33 353.523 103.69 351.833 101.48H355.213V48.96H351.833C353.523 46.75 354.693 43.24 355.213 38.17H389.663C390.183 43.24 391.223 46.75 393.043 48.96H389.663V58.97C387.453 57.67 385.503 57.02 383.683 57.02C381.733 57.02 379.653 57.67 377.313 58.97V48.96H367.563V69.11H385.243C384.203 70.67 383.683 72.1 383.683 73.66C383.683 75.22 384.203 76.78 385.243 78.08H367.563V101.48H377.313V91.47C379.653 92.77 381.733 93.42 383.683 93.42C385.503 93.42 387.453 92.77 389.663 91.47V101.48ZM395.123 22.83V31.15H349.883V22.83H395.123ZM395.123 119.68V128H349.883V119.68H395.123Z" fill="#B22D36"/>
</svg>
