<svg width="406" height="162" viewBox="0 0 406 162" fill="none" xmlns="http://www.w3.org/2000/svg">
<path d="M53.16 54.96H49.78V73.94C41.07 73.94 31.71 79.01 27.68 86.03V107.48H30.93C29.37 109.69 28.2 113.33 27.68 118.4H15.33C14.81 113.33 13.64 109.69 11.95 107.48H15.33V54.96H11.95C13.64 52.62 14.81 49.11 15.33 44.17H49.78C50.3 49.11 51.34 52.62 53.16 54.96ZM37.43 67.05V54.96H27.68V73.16C30.41 70.43 33.92 67.96 37.43 67.05ZM55.24 28.83V37.15H10V28.83H55.24ZM55.24 125.68V134H10V125.68H55.24ZM94.4675 107.48H97.8475C96.0275 109.69 94.9875 113.33 94.4675 118.4H60.0175C59.4975 113.33 58.3275 109.69 56.6375 107.48H60.0175V54.96H56.6375C58.3275 52.75 59.4975 49.24 60.0175 44.17H94.4675C94.9875 49.24 96.0275 52.75 97.8475 54.96H94.4675V107.48ZM72.3675 107.48H82.1175V54.96H72.3675V107.48ZM100.448 28.83V37.15H54.6875V28.83H100.448ZM100.448 125.68V134H54.6875V125.68H100.448ZM139.536 107.48H142.916C141.096 109.69 140.056 113.33 139.536 118.4H127.186C126.666 113.33 125.626 109.69 123.806 107.48H127.186V92.4C123.546 91.49 120.296 89.41 117.436 86.03V107.48H120.686C119.126 109.69 117.956 113.33 117.436 118.4H105.086C104.566 113.33 103.396 109.69 101.706 107.48H105.086V54.96H101.706C103.396 52.62 104.566 49.11 105.086 44.17H117.436C117.956 49.11 119.126 52.62 120.686 54.96H117.436V73.16C120.296 70.04 123.546 68.35 127.186 67.05V54.96H123.806C125.496 52.62 126.666 49.11 127.186 44.17H139.536C140.056 49.11 141.096 52.62 142.916 54.96H139.536V73.16C133.296 73.16 128.226 75.24 124.196 79.4C127.966 83.82 133.036 86.03 139.536 86.03V107.48ZM145.516 28.83V37.15H99.7559V28.83H145.516ZM145.516 125.68V134H99.7559V125.68H145.516ZM184.604 107.48H187.984C186.164 109.69 185.124 113.33 184.604 118.4H150.154C149.634 113.33 148.464 109.69 146.774 107.48H150.154V54.96H146.774C148.464 52.75 149.634 49.24 150.154 44.17H184.604C185.124 49.24 186.164 52.75 187.984 54.96H184.604V64.97C182.394 63.67 180.444 63.02 178.624 63.02C176.674 63.02 174.594 63.67 172.254 64.97V54.96H162.504V75.11H180.184C179.144 76.67 178.624 78.1 178.624 79.66C178.624 81.22 179.144 82.78 180.184 84.08H162.504V107.48H172.254V97.47C174.594 98.77 176.674 99.42 178.624 99.42C180.444 99.42 182.394 98.77 184.604 97.47V107.48ZM190.064 28.83V37.15H144.824V28.83H190.064ZM190.064 125.68V134H144.824V125.68H190.064ZM229.292 107.48H232.672C230.852 109.69 229.812 113.33 229.292 118.4H216.942C216.422 113.33 215.382 109.69 213.562 107.48H216.942V92.4C213.432 91.62 210.182 89.67 207.192 86.03V107.48H210.442C208.882 109.69 207.712 113.33 207.192 118.4H194.842C194.322 113.33 193.152 109.69 191.462 107.48H194.842V54.96H191.462C193.152 52.62 194.322 49.11 194.842 44.17H229.292C229.812 49.11 230.852 52.62 232.672 54.96H229.292V73.16C223.052 73.16 217.982 75.24 213.952 79.4C217.722 83.82 222.792 86.03 229.292 86.03V107.48ZM216.942 67.05V54.96H207.192V73.16C209.922 70.43 213.432 67.96 216.942 67.05ZM235.272 28.83V37.15H189.512V28.83H235.272ZM235.272 125.68V134H189.512V125.68H235.272ZM277.74 54.96H274.36V64.97C272.15 63.67 270.2 63.02 268.38 63.02C266.43 63.02 264.35 63.67 262.01 64.97V54.96H252.26V75.11H269.94C268.77 76.41 268.25 77.84 268.25 79.53C268.25 81.22 268.77 82.78 269.94 84.08H252.26V107.48H255.51C253.95 109.69 252.78 113.33 252.26 118.4H239.91C239.39 113.33 238.22 109.69 236.53 107.48H239.91V54.96H236.53C238.22 52.75 239.39 49.24 239.91 44.17H274.36C274.88 49.24 275.92 52.75 277.74 54.96ZM279.3 28.83V37.15H234.58V28.83H279.3ZM279.3 125.68V134H234.58V125.68H279.3ZM310.251 107.48H314.281C312.461 109.69 311.291 113.33 310.771 118.4H298.421C298.031 113.33 296.731 109.69 295.041 107.48H299.721L298.421 99.81H288.411L287.371 107.48H292.051C290.361 109.69 289.321 113.33 288.671 118.4H276.321C275.931 113.33 274.631 109.69 272.941 107.48H276.841L285.031 54.96H281.391C282.951 52.75 284.251 49.24 284.641 44.17H300.371C300.761 49.11 302.061 52.62 303.751 54.96H299.981L310.251 107.48ZM289.841 90.71H296.471L292.831 71.99L289.841 90.71ZM315.841 28.83V37.15H272.031V28.83H315.841ZM315.841 125.68V134H272.031V125.68H315.841ZM354.975 107.48H358.355C356.535 109.69 355.495 113.33 354.975 118.4H320.525C320.005 113.33 318.835 109.69 317.145 107.48H320.525V54.96H317.145C318.835 52.75 320.005 49.24 320.525 44.17H354.975C355.495 49.24 356.535 52.75 358.355 54.96H354.975V64.97C352.765 63.67 350.815 63.02 348.995 63.02C347.045 63.02 344.965 63.67 342.625 64.97V54.96H332.875V107.48H342.625V97.47C344.965 98.77 347.045 99.42 348.995 99.42C350.815 99.42 352.765 98.77 354.975 97.47V107.48ZM360.435 28.83V37.15H315.195V28.83H360.435ZM360.435 125.68V134H315.195V125.68H360.435ZM399.663 107.48H403.043C401.223 109.69 400.183 113.33 399.663 118.4H365.213C364.693 113.33 363.523 109.69 361.833 107.48H365.213V54.96H361.833C363.523 52.75 364.693 49.24 365.213 44.17H399.663C400.183 49.24 401.223 52.75 403.043 54.96H399.663V64.97C397.453 63.67 395.503 63.02 393.683 63.02C391.733 63.02 389.653 63.67 387.313 64.97V54.96H377.563V75.11H395.243C394.203 76.67 393.683 78.1 393.683 79.66C393.683 81.22 394.203 82.78 395.243 84.08H377.563V107.48H387.313V97.47C389.653 98.77 391.733 99.42 393.683 99.42C395.503 99.42 397.453 98.77 399.663 97.47V107.48ZM405.123 28.83V37.15H359.883V28.83H405.123ZM405.123 125.68V134H359.883V125.68H405.123Z" fill="#3C2519"/>
<path d="M43.16 48.96H39.78V67.94C31.07 67.94 21.71 73.01 17.68 80.03V101.48H20.93C19.37 103.69 18.2 107.33 17.68 112.4H5.33C4.81 107.33 3.64 103.69 1.95 101.48H5.33V48.96H1.95C3.64 46.62 4.81 43.11 5.33 38.17H39.78C40.3 43.11 41.34 46.62 43.16 48.96ZM27.43 61.05V48.96H17.68V67.16C20.41 64.43 23.92 61.96 27.43 61.05ZM45.24 22.83V31.15H0V22.83H45.24ZM45.24 119.68V128H0V119.68H45.24ZM84.4675 101.48H87.8475C86.0275 103.69 84.9875 107.33 84.4675 112.4H50.0175C49.4975 107.33 48.3275 103.69 46.6375 101.48H50.0175V48.96H46.6375C48.3275 46.75 49.4975 43.24 50.0175 38.17H84.4675C84.9875 43.24 86.0275 46.75 87.8475 48.96H84.4675V101.48ZM62.3675 101.48H72.1175V48.96H62.3675V101.48ZM90.4475 22.83V31.15H44.6875V22.83H90.4475ZM90.4475 119.68V128H44.6875V119.68H90.4475ZM129.536 101.48H132.916C131.096 103.69 130.056 107.33 129.536 112.4H117.186C116.666 107.33 115.626 103.69 113.806 101.48H117.186V86.4C113.546 85.49 110.296 83.41 107.436 80.03V101.48H110.686C109.126 103.69 107.956 107.33 107.436 112.4H95.0859C94.5659 107.33 93.3959 103.69 91.7059 101.48H95.0859V48.96H91.7059C93.3959 46.62 94.5659 43.11 95.0859 38.17H107.436C107.956 43.11 109.126 46.62 110.686 48.96H107.436V67.16C110.296 64.04 113.546 62.35 117.186 61.05V48.96H113.806C115.496 46.62 116.666 43.11 117.186 38.17H129.536C130.056 43.11 131.096 46.62 132.916 48.96H129.536V67.16C123.296 67.16 118.226 69.24 114.196 73.4C117.966 77.82 123.036 80.03 129.536 80.03V101.48ZM135.516 22.83V31.15H89.7559V22.83H135.516ZM135.516 119.68V128H89.7559V119.68H135.516ZM174.604 101.48H177.984C176.164 103.69 175.124 107.33 174.604 112.4H140.154C139.634 107.33 138.464 103.69 136.774 101.48H140.154V48.96H136.774C138.464 46.75 139.634 43.24 140.154 38.17H174.604C175.124 43.24 176.164 46.75 177.984 48.96H174.604V58.97C172.394 57.67 170.444 57.02 168.624 57.02C166.674 57.02 164.594 57.67 162.254 58.97V48.96H152.504V69.11H170.184C169.144 70.67 168.624 72.1 168.624 73.66C168.624 75.22 169.144 76.78 170.184 78.08H152.504V101.48H162.254V91.47C164.594 92.77 166.674 93.42 168.624 93.42C170.444 93.42 172.394 92.77 174.604 91.47V101.48ZM180.064 22.83V31.15H134.824V22.83H180.064ZM180.064 119.68V128H134.824V119.68H180.064ZM219.292 101.48H222.672C220.852 103.69 219.812 107.33 219.292 112.4H206.942C206.422 107.33 205.382 103.69 203.562 101.48H206.942V86.4C203.432 85.62 200.182 83.67 197.192 80.03V101.48H200.442C198.882 103.69 197.712 107.33 197.192 112.4H184.842C184.322 107.33 183.152 103.69 181.462 101.48H184.842V48.96H181.462C183.152 46.62 184.322 43.11 184.842 38.17H219.292C219.812 43.11 220.852 46.62 222.672 48.96H219.292V67.16C213.052 67.16 207.982 69.24 203.952 73.4C207.722 77.82 212.792 80.03 219.292 80.03V101.48ZM206.942 61.05V48.96H197.192V67.16C199.922 64.43 203.432 61.96 206.942 61.05ZM225.272 22.83V31.15H179.512V22.83H225.272ZM225.272 119.68V128H179.512V119.68H225.272ZM267.74 48.96H264.36V58.97C262.15 57.67 260.2 57.02 258.38 57.02C256.43 57.02 254.35 57.67 252.01 58.97V48.96H242.26V69.11H259.94C258.77 70.41 258.25 71.84 258.25 73.53C258.25 75.22 258.77 76.78 259.94 78.08H242.26V101.48H245.51C243.95 103.69 242.78 107.33 242.26 112.4H229.91C229.39 107.33 228.22 103.69 226.53 101.48H229.91V48.96H226.53C228.22 46.75 229.39 43.24 229.91 38.17H264.36C264.88 43.24 265.92 46.75 267.74 48.96ZM269.3 22.83V31.15H224.58V22.83H269.3ZM269.3 119.68V128H224.58V119.68H269.3ZM300.251 101.48H304.281C302.461 103.69 301.291 107.33 300.771 112.4H288.421C288.031 107.33 286.731 103.69 285.041 101.48H289.721L288.421 93.81H278.411L277.371 101.48H282.051C280.361 103.69 279.321 107.33 278.671 112.4H266.321C265.931 107.33 264.631 103.69 262.941 101.48H266.841L275.031 48.96H271.391C272.951 46.75 274.251 43.24 274.641 38.17H290.371C290.761 43.11 292.061 46.62 293.751 48.96H289.981L300.251 101.48ZM279.841 84.71H286.471L282.831 65.99L279.841 84.71ZM305.841 22.83V31.15H262.031V22.83H305.841ZM305.841 119.68V128H262.031V119.68H305.841ZM344.975 101.48H348.355C346.535 103.69 345.495 107.33 344.975 112.4H310.525C310.005 107.33 308.835 103.69 307.145 101.48H310.525V48.96H307.145C308.835 46.75 310.005 43.24 310.525 38.17H344.975C345.495 43.24 346.535 46.75 348.355 48.96H344.975V58.97C342.765 57.67 340.815 57.02 338.995 57.02C337.045 57.02 334.965 57.67 332.625 58.97V48.96H322.875V101.48H332.625V91.47C334.965 92.77 337.045 93.42 338.995 93.42C340.815 93.42 342.765 92.77 344.975 91.47V101.48ZM350.435 22.83V31.15H305.195V22.83H350.435ZM350.435 119.68V128H305.195V119.68H350.435ZM389.663 101.48H393.043C391.223 103.69 390.183 107.33 389.663 112.4H355.213C354.693 107.33 353.523 103.69 351.833 101.48H355.213V48.96H351.833C353.523 46.75 354.693 43.24 355.213 38.17H389.663C390.183 43.24 391.223 46.75 393.043 48.96H389.663V58.97C387.453 57.67 385.503 57.02 383.683 57.02C381.733 57.02 379.653 57.67 377.313 58.97V48.96H367.563V69.11H385.243C384.203 70.67 383.683 72.1 383.683 73.66C383.683 75.22 384.203 76.78 385.243 78.08H367.563V101.48H377.313V91.47C379.653 92.77 381.733 93.42 383.683 93.42C385.503 93.42 387.453 92.77 389.663 91.47V101.48ZM395.123 22.83V31.15H349.883V22.83H395.123ZM395.123 119.68V128H349.883V119.68H395.123Z" fill="#B22D36"/>
</svg>
