<svg width="16" height="16" viewBox="0 0 16 16" fill="none" xmlns="http://www.w3.org/2000/svg">
<path d="M15.7516 14.5551L11.3192 10.1215C12.2867 8.84935 12.735 7.25711 12.5734 5.6669C12.4118 4.0767 11.6523 2.60726 10.4487 1.55587C9.24507 0.504474 7.68713 -0.0503658 6.09005 0.00359721C4.49297 0.0575602 2.97601 0.716297 1.84606 1.84654C0.716113 2.97678 0.0575454 4.49413 0.00359628 6.09162C-0.0503528 7.68911 0.504344 9.24746 1.55546 10.4514C2.60658 11.6553 4.07565 12.415 5.66544 12.5766C7.25524 12.7382 8.84707 12.2898 10.1189 11.3221L14.5514 15.7557C14.7119 15.9123 14.9273 16 15.1515 16C15.3758 16 15.5911 15.9123 15.7516 15.7557C15.9107 15.5964 16 15.3805 16 15.1554C16 14.9303 15.9107 14.7144 15.7516 14.5551ZM1.74339 6.32551C1.74339 5.41893 2.01215 4.53272 2.51568 3.77894C3.01922 3.02515 3.73491 2.43765 4.57226 2.09072C5.4096 1.74379 6.33099 1.65301 7.21992 1.82988C8.10884 2.00674 8.92537 2.4433 9.56624 3.08434C10.2071 3.72538 10.6436 4.54212 10.8204 5.43127C10.9972 6.32042 10.9064 7.24205 10.5596 8.07961C10.2128 8.91717 9.62542 9.63305 8.87182 10.1367C8.11823 10.6404 7.23225 10.9092 6.32591 10.9092C5.11099 10.9078 3.94625 10.4244 3.08717 9.56509C2.22809 8.70579 1.74483 7.54074 1.74339 6.32551Z" fill="#808080"/>
</svg>
