<svg width="121" height="90" viewBox="0 0 121 90" fill="none" xmlns="http://www.w3.org/2000/svg">
<path d="M32.3322 41.4546L32.9176 40.565L31.8556 39.1721L30.3452 39.9474L32.3322 41.4546ZM25.7198 42.322L29.1442 44.9181L30.5155 44.2136L32.1583 41.7186L30.0338 40.1084L25.7198 42.322ZM17.3942 36.4062C17.3291 36.5893 17.2588 36.7628 17.19 36.9331L17.7264 36.659L17.3942 36.4062ZM22.352 34.2845L19.878 32.4071L19.3322 32.3135L18.2384 32.394C18.1176 33.7666 17.878 34.9445 17.5031 36.0916L18.0379 36.4982L22.352 34.2845ZM30.0682 39.7365L31.6635 38.9193L29.2764 35.7901L26.6436 37.142L30.0682 39.7365ZM26.366 36.9307L29.0838 35.5362L27.7212 33.7483L24.9895 33.2821L22.9411 34.3336L26.366 36.9307ZM24.4744 33.194L20.5531 32.5219L22.664 34.1237L24.4744 33.194ZM20.1718 49.8755L23.5963 52.4732L25.8359 51.3245L26.9936 49.5635L24.4854 47.6628L20.1718 49.8755ZM22.9562 57.8655L25.9348 60.1247C26.3619 58.61 26.8708 57.156 27.4588 55.799L27.2671 55.6528L22.9562 57.8655ZM29.7499 45.3779L30.1646 44.7472L29.4218 45.129L29.7499 45.3779ZM18.3312 60.2385L21.7556 62.8362L25.7504 60.7853C25.7791 60.6725 25.8094 60.5598 25.839 60.4484L22.6442 58.0258L18.3312 60.2385ZM24.8494 65.1808C25.063 63.7966 25.3343 62.4593 25.6562 61.1863L22.0322 63.046L24.8494 65.1808ZM25.5922 51.8009L23.8728 52.6825L27.302 55.2826L27.8026 55.0262C27.9692 54.657 28.1499 54.2802 28.3447 53.9009L25.6431 51.8813C25.6151 51.8617 25.6015 51.8309 25.5922 51.8009ZM21.4286 39.4645L18.0042 36.8684L17.0135 37.3772C16.6078 38.3164 16.087 39.2769 15.3942 40.3724L17.116 41.6772L21.4286 39.4645ZM24.7974 47.5025L27.1676 49.2995L29.576 45.6419L29.1103 45.2883L24.7974 47.5025ZM39.4286 33.101C39.4286 32.5724 38.9875 32.1441 38.4427 32.1441C37.8984 32.1441 37.4567 32.5724 37.4567 33.101C37.4567 33.6305 37.8984 34.0589 38.4427 34.0589C38.9875 34.0589 39.4286 33.6305 39.4286 33.101ZM39.5479 42.0009C39.0764 41.7369 38.4739 41.8937 38.2015 42.3519C37.9296 42.8091 38.0911 43.3952 38.5624 43.6597C39.0338 43.9237 39.6375 43.7669 39.9094 43.3087C40.1818 42.8515 40.0203 42.2664 39.5479 42.0009ZM8.4931 64.9351L5.06657 62.3374L3.6411 63.0692C3.55044 64.1891 3.50777 65.3594 3.50884 66.64L4.18017 67.1477L8.4931 64.9351ZM15.2264 40.6414C14.6698 41.5062 13.9884 42.4828 13.0494 43.766L16.8046 41.838L15.2264 40.6414ZM119.011 10.267H88.6468V11.0398H119.011V10.267ZM119.011 12.104H88.6468V15.0079H119.011V12.104ZM119.011 16.0711H88.6468V16.5359H119.011V16.0711ZM112.999 1.69035C115.284 2.32762 115.442 3.48124 116.104 5.74704C116.362 4.79424 116.234 3.7543 115.723 2.83891C115.431 2.40751 115.034 2.00497 114.53 1.80468C114.03 1.59829 113.488 1.5689 112.999 1.69035ZM87.0375 6.52634H45.7264V15.3489C46.5494 13.9464 47.6619 12.767 49.0083 11.9178C49.516 9.82548 50.3046 8.21715 51.5375 8.21715H87.0375V6.52634ZM87.0375 9.779H82.1198C81.266 9.779 80.4608 10.1027 79.8526 10.6913C79.2499 11.2755 78.9166 12.0549 78.9166 12.8848C78.9166 14.5574 80.287 15.9174 81.9931 15.9832C82.0364 15.9821 82.0764 15.9699 82.1198 15.9699H84.6546V15.8081C84.6546 15.3772 85.014 15.0278 85.4588 15.0278H87.0375V9.779ZM84.6546 20.1511V17.5576H82.1198C82.0764 17.5576 82.0364 17.5459 81.9931 17.5444C80.287 17.6106 78.9166 18.9686 78.9166 20.639C78.9166 22.3546 80.3542 23.749 82.1198 23.749H85.5562C85.4884 23.617 85.4051 23.4951 85.3447 23.3606C84.8875 22.3471 84.6546 21.2643 84.6546 20.1511ZM83.8755 25.1616C81.7578 25.1626 79.6406 25.2157 77.5234 25.4736C79.6406 25.7311 81.7578 25.7857 83.8755 25.7857C85.9931 25.7857 88.1098 25.7336 90.227 25.4736C88.1098 25.2147 85.9931 25.1616 83.8755 25.1616ZM88.8875 20.1171H97.8404V19.5867H88.8875V20.1171ZM75.6879 32.1441C75.8264 28.4981 75.7916 24.8511 75.8484 21.2051C75.7911 17.559 75.826 13.9116 75.6879 10.267C75.5499 13.9116 75.5843 17.559 75.527 21.2051C75.5838 24.8511 75.5494 28.4981 75.6879 32.1441ZM84.4916 28.2417H76.4922V33.6888C76.4922 34.1186 76.1327 34.4681 75.6879 34.4681H60.3854V38.0337C66.2708 37.3064 73.251 36.9695 82.7572 36.9514V34.6846C82.7572 32.4289 83.3655 30.202 84.4916 28.2417ZM56.978 42.1951V45.4851C56.978 45.4851 43.7135 48.0862 47.901 57.1781C48.0999 57.6066 47.5212 57.9717 47.1911 57.6288C44.3796 54.6817 43.751 49.429 46.6036 45.4816C43.9322 47.3266 42.6854 50.8582 43.5608 54.1134C45.5264 60.6325 52.5479 61.3391 55.4764 61.3391C61.6004 61.3391 67.7504 58.7147 70.776 54.8062C72.6583 52.377 73.1796 49.6853 72.3146 46.7748C71.2447 42.8359 64.9796 39.9758 56.978 42.1951ZM46.2952 49.8482C46.6094 48.1094 47.4119 46.5198 48.4171 44.9839C47.7166 45.5938 47.116 46.315 46.6348 47.1191C46.1655 47.9299 45.837 48.8206 45.6624 49.737C45.3146 51.5719 45.6051 53.514 46.4875 55.1334C46.114 53.3531 45.9822 51.5794 46.2952 49.8482ZM53.9608 31.4371V32.9067H73.1818V31.4371H53.9608ZM59.3884 22.124C58.0916 22.124 57.037 23.1497 57.037 24.4096V24.7925H73.1818V22.124H59.3884ZM53.9608 17.774V18.5791H73.1818V17.774H53.9608ZM57.1646 11.1086H73.1818V9.77745H57.0968C56.9916 10.2564 57.027 10.663 57.1646 11.1086ZM55.487 9.77745H53.9608V12.2425H54.8494C55.6327 14.1512 57.5442 15.5067 59.7838 15.5067H73.1818V14.568H59.7843C57.2422 14.568 55.1223 12.4508 55.487 9.77745ZM56.4375 28.9811H53.9608V29.9598H73.1818V29.0211H59.3884C57.2056 29.0211 55.4296 27.2964 55.4296 25.1773V24.4096C55.4296 22.2874 57.2056 20.5628 59.3884 20.5628H73.1818V19.6266H59.389C56.7791 19.6266 54.6583 21.6127 54.4952 24.1091H53.9608V25.4762H54.4952C54.5291 25.9957 54.6348 26.4938 54.826 26.9551H53.9608V27.5012H55.1124C55.4474 28.0814 55.8947 28.582 56.4375 28.9811ZM58.777 38.2461V34.4681H44.9223C44.4775 34.4681 44.1182 34.1186 44.1182 33.6888V25.5733H39.8775C38.5974 28.4733 35.5218 30.6486 30.4067 30.5125C33.9427 29.7398 37.1264 28.6574 38.8442 25.5733H37.978C37.6818 26.0265 37.3411 26.4654 36.8931 26.8665C34.3255 29.1647 29.5504 29.977 22.3463 29.3412L29.4088 30.549C29.6108 30.5828 29.7927 30.6926 29.9146 30.8519L36.8812 39.9915C37.0802 40.252 37.0922 40.604 36.9135 40.876L30.2531 50.9933L31.6603 52.0432C36.701 44.5387 45.3588 40.1376 58.777 38.2461ZM30.2723 54.354C27.9094 58.1245 26.8103 62.5292 26.2692 66.8832C25.8056 71.2687 25.8884 75.693 26.4931 80.0406C26.4192 75.6576 26.375 71.2818 26.9083 66.9535C27.3775 62.6247 28.3968 58.347 30.2723 54.354ZM27.4146 82.274C23.4504 82.6492 18.4218 82.8035 15.1624 82.761C12.0004 82.7959 6.80204 82.6224 2.9151 82.2118C6.79217 83.1231 11.189 83.328 15.1619 83.3836C17.216 83.3629 19.2718 83.3149 21.3203 83.1438C23.366 82.9703 25.4124 82.7262 27.4146 82.274ZM31.4494 45.7257C30.3155 47.4362 29.227 49.174 28.316 51.0216C29.6739 49.4523 30.8546 47.7731 31.99 46.0642C33.125 44.3546 34.214 42.6173 35.1234 40.7673C33.764 42.3352 32.5843 44.0168 31.4494 45.7257ZM3.18697 66.7154C3.18697 66.7154 3.1927 67.4127 3.20257 67.7496C3.2379 69.1971 3.33644 70.6911 3.50257 72.316L3.56604 72.9028C3.70564 74.1247 3.8875 75.4133 4.10884 76.7248C4.2703 77.6868 4.45044 78.6371 4.6427 79.5499C4.6583 79.6223 4.72444 79.6754 4.80044 79.6754H24.5379C24.5832 79.6754 24.6255 79.6572 24.6551 79.6263C24.6859 79.5949 24.7015 79.5509 24.6988 79.5085C24.6416 78.6436 24.5984 77.7565 24.5666 76.7961C24.5542 76.4583 24.5442 76.1199 24.5375 75.7836C24.5031 74.1687 24.5212 72.5816 24.5922 71.0669L24.5988 70.9541C24.6802 69.2683 24.8239 67.6509 25.0291 66.1442C25.0542 65.9561 25.1212 65.4878 25.1212 65.4878C25.3578 63.9028 25.6687 62.3698 26.0452 60.9273C26.0864 60.7604 26.1318 60.5911 26.1755 60.4277C26.6223 58.8042 27.1687 57.2505 27.7994 55.8071C27.8859 55.6048 27.9744 55.404 28.0728 55.2037C28.2608 54.7839 28.4692 54.354 28.6927 53.9267C28.7275 53.8609 28.7078 53.778 28.6463 53.7324L25.9546 51.7221L33.2479 40.6428C33.2838 40.5883 33.2812 40.5175 33.2422 40.4653L27.9422 33.5142C27.9166 33.4814 27.8812 33.4596 27.8395 33.453C24.9411 33.0362 17.9979 31.4477 17.9286 32.2362C17.8103 33.6836 17.5682 34.9111 17.1687 36.1037C17.0338 36.4946 16.8942 36.8543 16.7416 37.2037C16.3239 38.1828 15.7864 39.1756 15.0479 40.3284C14.4051 41.3408 13.6151 42.4682 12.4135 44.0932L12.3936 44.1038C12.3494 44.128 12.3286 44.171 12.3212 44.2161C11.7192 45.0319 6.7395 51.7322 6.7395 51.7322C5.9135 52.9672 5.21817 54.4122 4.6739 56.0282C4.47804 56.6016 4.30257 57.1999 4.14884 57.8084C3.8895 58.8315 3.6807 59.9305 3.52857 61.0726C3.44844 61.6436 3.38177 62.261 3.32497 62.9606C3.2275 64.136 3.1827 65.3634 3.18697 66.7154ZM40.8026 14.8668C41.8228 14.3207 42.6676 13.5545 43.378 12.7063C42.4796 13.3704 41.5854 14.0101 40.587 14.4345C39.5906 14.8461 38.5212 15.0368 37.4578 14.9316C35.3026 14.7208 33.4062 13.4805 31.478 12.38C33.0791 13.8782 35.0088 15.3256 37.3968 15.5547C38.5708 15.667 39.7786 15.403 40.8026 14.8668ZM39.1427 18.1569C39.152 18.3536 39.1624 18.5518 39.1739 18.7566C39.2572 20.3103 39.3526 22.2251 38.752 24.012H39.526C40.0468 22.3779 40.1056 20.587 40.001 18.8548C40.6651 20.8748 40.6884 22.5124 40.3728 24.012H44.1182V15.7449C42.5114 17.8888 40.1942 18.1569 39.1427 18.1569ZM50.5187 21.2036C50.5171 18.1832 50.5364 15.2011 50.5922 12.1029C48.3603 16.7898 48.3556 25.6147 50.5187 30.3082V21.2036ZM45.7264 32.9067H49.7427C49.451 32.3075 49.2056 31.5838 49.0083 30.7704C47.6619 29.9182 46.5494 28.7404 45.7264 27.3379V32.9067ZM48.5676 14.265L48.5712 14.2367C46.7838 15.9674 45.7264 18.5417 45.7264 21.3431C45.7264 24.1451 46.7838 26.7193 48.5712 28.4515L48.5682 28.4258C47.976 24.2735 47.925 18.7876 48.5676 14.265ZM103.52 20.1171C103.52 20.5485 103.88 20.899 104.324 20.899C104.768 20.899 105.128 20.5485 105.128 20.1171C105.128 19.6862 104.768 19.3378 104.324 19.3378C103.88 19.3378 103.52 19.6862 103.52 20.1171ZM120.619 6.889V17.3167C120.619 17.7476 120.259 18.0986 119.815 18.0986H87.8431C87.3988 18.0986 87.0395 17.7476 87.0395 17.3167V16.589H86.2619V20.1511C86.2619 21.0468 86.4494 21.9181 86.8198 22.738C87.063 23.2842 87.4036 23.7708 87.7859 24.2295V19.9012C87.7859 19.3485 88.2474 18.9003 88.816 18.9003H98.5538V19.3029H99.1444C99.8658 18.7536 101.172 18.3859 102.67 18.3859C104.944 18.3859 106.787 19.2331 106.787 20.275C106.787 21.3188 104.944 22.164 102.67 22.164C101.172 22.164 99.8658 21.7963 99.1444 21.2476H98.5538V21.6517H93.6378C93.4698 21.6517 93.3324 21.7836 93.3324 21.9465V22.1564C93.3324 22.4113 93.1203 22.6187 92.8578 22.6187H91.4651C91.2974 22.6187 91.1614 22.7496 91.1614 22.9125V24.4272C92.087 24.6362 92.766 25.4722 92.6936 26.4513C92.6182 27.4754 91.6838 28.2417 90.626 28.2417H86.3603C85.0822 30.11 84.3651 32.3798 84.3651 34.6846V37.7323C84.3651 38.1631 84.0051 38.5131 83.5608 38.5131C82.9354 38.5131 82.3546 38.5182 81.7504 38.5208V39.3724C81.7504 39.3724 76.6015 40.1806 72.577 40.9327C71.8218 41.0753 71.4974 41.9609 72.0072 42.5202C73.7228 44.4078 74.537 47.0736 74.537 49.3682C74.537 63.0546 46.1744 69.2022 41.7916 54.5498C41.752 54.3981 41.714 54.2453 41.6786 54.0951C41.6755 54.0824 41.6755 54.0683 41.6718 54.0537C41.6499 53.9024 41.625 53.7587 41.5922 53.6212C40.8182 50.0814 37.1879 49.7991 32.326 54.0177C28.3764 60.6245 26.9875 69.7564 28.1151 81.9493L28.1103 81.9841L28.1176 82.0175C28.1176 83.1348 26.7291 83.8899 23.6155 84.4609C22.1994 84.7224 20.5004 84.909 18.7042 85.0278C19.001 88.1236 17.9442 89.1012 16.0416 89.4881C14.8431 89.7319 13.4832 89.0612 12.7484 87.7882C10.139 88.0513 7.1635 87.9168 7.09884 87.2886C7.01404 86.4687 8.50777 85.8785 12.2375 85.2676C12.2422 85.217 12.2583 85.1623 12.264 85.1133C8.68484 84.9606 2.53697 84.3895 1.99524 82.3078C1.9791 82.2699 1.95617 82.2375 1.9463 82.1951C0.691103 77.0086 -2.8313 59.2974 4.5463 49.3136C5.73484 47.7058 6.7947 46.2917 7.73844 45.0344C13.5832 37.2493 14.7994 35.6299 14.7994 29.9123C14.7994 29.5016 15.126 29.1612 15.5468 29.1323L18.6911 28.9174C18.7474 28.7959 18.4155 27.3303 19.6015 27.4674C23.9406 28.0307 27.4822 28.1238 30.2484 27.7728C32.428 24.3473 35.7556 23.4967 37.3072 23.2893C37.725 21.8676 37.6458 20.2932 37.5676 18.8381C37.539 18.2979 37.5119 17.7856 37.5119 17.3167C37.5119 17.2945 37.5239 17.2779 37.526 17.2561C33.7848 16.6901 31.2146 12.2815 28.3958 11.5294C27.9515 11.4115 27.9546 10.7939 28.402 10.6878C29.5187 10.4208 30.925 10.8947 33.6108 12.5131C37.2499 14.7041 40.8436 15.1198 44.1182 9.5251V5.74704C44.1182 5.31563 44.4775 4.96618 44.9223 4.96618H87.8416C88.2864 4.96618 88.6458 5.31563 88.6458 5.74704V6.1097H108.756V4.23336C108.756 -0.778726 117.24 -0.784812 117.24 4.23336V6.1097H119.815C120.259 6.1097 120.619 6.45915 120.619 6.889ZM54.3338 36.172C53.8624 35.9064 53.2598 36.0648 52.9875 36.5214C52.7146 36.9801 52.876 37.5654 53.3484 37.8294C53.8198 38.0934 54.4223 37.9366 54.6942 37.4784C54.9666 37.0217 54.8051 36.436 54.3338 36.172ZM3.81297 61.3871C3.7603 61.7953 3.7135 62.2302 3.6723 62.7016L4.7895 62.1265L3.81297 61.3871ZM61.866 36.7005L61.876 36.7936C65.1416 36.5593 68.4146 36.5139 71.6838 36.4739C73.3198 36.4608 74.9556 36.4582 76.5916 36.484C80.6651 36.5503 81.4818 36.4532 81.9822 36.4452C81.987 36.2186 81.9051 34.7761 82.1822 32.4496C82.3359 31.2717 82.5307 30.0842 83.0223 28.9837L82.9406 28.9346C82.1884 29.938 81.8182 31.1508 81.5218 32.3368C81.2682 33.3883 81.1463 34.4604 81.0594 35.5338C77.9327 35.5378 74.7968 35.733 71.6651 35.8639C68.3906 36.0244 65.116 36.2833 61.866 36.7005ZM9.4135 59.753L5.98844 57.1585L4.44737 57.9485C4.20457 58.918 4.0083 59.9528 3.8603 61.0275L5.1015 61.9673L9.4135 59.753ZM20.5056 44.6435L17.0822 42.0489L12.7687 44.2641L16.1911 46.8576L20.5056 44.6435ZM9.7187 48.2263C9.7187 48.2263 7.38897 51.362 7.37284 51.3842L11.2551 49.3916L9.7187 48.2263ZM15.8796 47.018L12.5244 44.475C11.9436 45.2625 9.9083 47.9739 9.9083 47.9739L11.5666 49.2307L15.8796 47.018ZM4.9151 56.3442C4.7875 56.7311 4.6723 57.1327 4.5635 57.5368L5.7119 56.9475L4.9151 56.3442ZM10.3364 54.573L6.94737 52.0042C6.18177 53.167 5.53217 54.5184 5.01657 56.0245L6.0239 56.7867L10.3364 54.573ZM14.9594 52.1995L11.5338 49.6039L7.22084 51.8176L10.6468 54.4137L14.9594 52.1995ZM7.88324 69.9557L12.1963 67.742L8.77177 65.1459L4.45884 67.3596L7.88324 69.9557ZM14.3151 57.5909L10.0026 59.8036L13.4296 62.4022L17.7422 60.1884L14.3151 57.5909ZM11.5884 72.7652L15.901 70.5514L12.4728 67.9513L8.15977 70.1656L11.5884 72.7652ZM12.5078 67.5827L16.8208 65.3684L13.3963 62.7723L9.08324 64.9851L12.5078 67.5827ZM23.302 76.1614L19.8775 73.5658L15.5651 75.7795L18.99 78.3766L23.302 76.1614ZM10.6635 77.9441L14.9764 75.7304L11.5531 73.1344L7.24004 75.3486L10.6635 77.9441ZM16.4895 70.6005L19.9119 73.1966L24.225 70.9824L20.8026 68.3879L16.4895 70.6005ZM24.2364 76.4749C24.2318 76.3297 24.227 76.1861 24.2239 76.041L23.8906 76.2119L24.2364 76.4749ZM12.7843 67.7921L16.213 70.3906L20.5255 68.177L17.0974 65.5783L12.7843 67.7921ZM19.6004 73.356L16.178 70.7614L11.8651 72.9751L15.2879 75.5696L19.6004 73.356ZM4.14684 67.519L3.52697 67.8391C3.5635 69.1778 3.6551 70.5631 3.80204 72.0506L7.57124 70.1165L4.14684 67.519ZM26.3318 37.3009L22.0182 39.5165L25.4427 42.1111L29.7562 39.8969L26.3318 37.3009ZM20.1884 73.4065L23.613 76.002L24.216 75.693C24.1859 74.2 24.2031 72.7303 24.2635 71.3142L20.1884 73.4065ZM3.5119 67.039C3.51404 67.1892 3.51604 67.3379 3.51924 67.4881L3.86817 67.3081L3.5119 67.039ZM19.8947 49.6657L24.2083 47.4519L20.7838 44.8559L16.4692 47.0701L19.8947 49.6657ZM24.5208 47.2911L28.8332 45.0773L25.4083 42.4828L21.0952 44.6955L24.5208 47.2911ZM18.3155 36.7097L21.74 39.3042L26.0546 37.0899L22.6296 34.4938L18.3155 36.7097ZM20.8176 44.4841L25.1307 42.2705L21.7062 39.6759L17.3947 41.8896L20.8176 44.4841ZM6.92804 75.509L4.44577 76.7844C4.59524 77.6594 4.75724 78.5268 4.93217 79.3633H7.8999L10.3515 78.105L6.92804 75.509ZM15.2531 75.9404L10.94 78.154L12.5338 79.3633H17.0698L18.678 78.5374L15.2531 75.9404ZM8.5859 79.3633H12.0108L10.628 78.3148L8.5859 79.3633ZM18.0203 60.3993L13.7083 62.6121L17.1327 65.2092L21.4442 62.9954L18.0203 60.3993ZM17.7542 79.3633H19.7671L18.9546 78.7473L17.7542 79.3633ZM24.2984 70.6421C24.3755 69.1672 24.5031 67.742 24.677 66.3976L21.114 68.2275L24.2984 70.6421ZM3.93324 73.238C4.05777 74.279 4.20937 75.3578 4.39164 76.4592L6.65097 75.299L3.93324 73.238ZM23.5791 76.3727L19.2666 78.5865L20.2911 79.3633H24.3671C24.3155 78.5708 24.277 77.754 24.2484 76.88L23.5791 76.3727ZM11.2764 72.9246L7.84844 70.3259L3.83324 72.3874L3.87857 72.8016L6.96297 75.1387L11.2764 72.9246ZM15.5484 52.2501L18.9728 54.8462L23.2843 52.6335L19.8598 50.0374L15.5484 52.2501ZM18.9379 55.2163L14.6255 57.4306L18.0531 60.0292L22.3671 57.8149L18.9379 55.2163ZM11.8452 49.4431L15.2712 52.0392L19.5832 49.8265L16.1572 47.2304L11.8452 49.4431ZM17.4094 65.4191L20.837 68.0176L24.7212 66.0234C24.7427 65.8632 24.79 65.5329 24.79 65.5329L21.7212 63.2048L17.4094 65.4191ZM26.99 55.4429L23.5608 52.8433L19.2499 55.0561L22.6786 57.6556L26.99 55.4429ZM14.3484 57.2197L18.6614 55.0065L15.237 52.4109L10.9239 54.6236L14.3484 57.2197ZM8.80511 64.7741L13.1176 62.5616L9.69057 59.9644L5.37857 62.1771L8.80511 64.7741ZM10.613 54.7839L14.0375 57.38L9.72497 59.5927L6.30044 56.9966L10.613 54.7839Z" fill="black"/>
</svg>
