<svg width="161" height="98" viewBox="0 0 161 98" fill="none" xmlns="http://www.w3.org/2000/svg">
<path d="M58.8401 93.99C53.5374 95.0452 47.9014 94.8303 42.6028 93.3763C32.1894 90.6081 22.7774 83.3019 17.0494 74.218C14.1707 69.6954 12.1547 64.6058 11.5494 59.375C12.9721 64.4491 15.4321 69.1063 18.4414 73.3337C24.4507 81.633 32.9721 88.455 43.0921 91.8265C48.0921 93.4695 53.4281 94.2373 58.8401 93.99ZM50.0921 96.182C38.4254 96.182 27.4921 89.5477 18.9827 80.7901C9.63473 67.9825 6.37073 58.057 9.5454 52.0856C12.7481 46.065 21.4161 45.7595 23.1214 45.7595C31.6001 45.7595 38.8441 50.6238 40.7814 57.596C40.7774 57.7113 40.5107 66.992 40.7907 67.4076C44.1974 72.4597 50.5187 76.0785 56.2854 78.2071V78.1644C57.0281 78.4363 57.7787 78.6965 58.5427 78.9412V78.9813C59.3201 79.2299 60.1121 79.463 60.9201 79.6844V79.6507C63.3227 80.3123 65.7961 80.8406 68.2867 81.242V81.2743C85.2747 83.9687 110.885 80.57 119.756 67.4063C119.851 67.2652 119.901 67.1008 119.901 66.9325C119.901 63.8652 119.86 61.0362 119.787 58.382C122.113 58.6202 123.94 59.7803 125.101 61.782C127.337 65.6351 126.643 71.5521 123.333 76.8554C120.495 81.4025 111.483 91.9003 89.0041 91.2296C86.4507 90.4204 83.7121 89.8352 80.2721 89.8352C68.8667 89.8352 65.3374 96.182 50.0921 96.182ZM4.95474 42.1252C6.91607 39.0605 9.66407 37.0744 13.4641 36.5642C22.1027 35.4482 33.4507 42.2313 41.4267 46.5376C41.3707 47.1449 41.3147 47.756 41.2641 48.393C33.3441 43.7099 22.1547 36.2367 13.5147 36.9941C11.8014 37.1534 10.1147 37.6686 8.64408 38.5672C7.16275 39.4554 5.94007 40.7204 4.95474 42.1252ZM57.4814 17.9963C58.3387 17.3748 59.2281 16.7313 60.1441 16.04C64.1481 13.0206 65.6881 10.0025 67.1947 6.11961C70.1281 4.59182 70.6027 5.75322 71.8187 9.14674C74.0241 15.3032 76.6267 18.4987 84.9547 18.4948C92.5707 18.4948 94.5334 13.5359 91.5267 10.1295C89.4641 7.79115 90.6081 3.26212 93.2787 5.93447C100.925 25.5524 126.853 45.6106 92.5147 72.5866C108.693 66.4443 115.455 57.4808 117.665 50.7779C117.668 50.8207 117.939 56.1421 117.976 57.2879C118.068 60.1648 118.117 63.2761 118.119 66.6709C117.301 67.844 116.275 68.9561 115.101 70.0114V63.4224C112.905 65.8449 110.239 68.2026 106.64 70.2392C99.9014 74.0548 91.0307 75.9892 80.2734 75.9892C75.6481 75.9892 71.6041 75.637 68.0454 75.0323C68.1267 75.0466 68.2041 75.0621 68.2867 75.0764V79.5316C65.7174 79.1121 63.2574 78.5541 60.9201 77.8847V73.313L60.9347 73.3181C60.0654 73.0359 59.2401 72.7355 58.4481 72.4222C58.4814 72.4351 58.5094 72.4506 58.5427 72.4636V77.1467C57.7734 76.889 57.0201 76.6197 56.2854 76.3349V71.4964C56.3307 71.5171 56.3841 71.5366 56.4294 71.5573C54.9881 70.8905 53.6854 70.1745 52.5014 69.43C52.0721 58.8908 51.1067 41.2059 55.4534 32.3175C50.6734 40.7385 50.4254 57.5947 50.2067 67.8504C49.9187 67.6329 49.6441 67.4141 49.3721 67.194C48.8667 55.5206 47.5507 37.0886 54.3841 27.9335C47.2694 36.3817 47.1747 53.9747 47.0054 65.0784C46.5974 64.677 46.2041 64.2769 45.8401 63.8833C45.5507 52.1348 44.5027 33.7482 52.3214 24.8882C44.3987 32.8665 43.8934 49.9104 43.5147 61.1229C43.1547 60.6594 42.8188 60.2166 42.5028 59.7971C43.1828 29.1117 48.3134 24.6384 57.4814 17.9963ZM136.604 42.2507C153.44 35.1737 157.476 45.6986 149.881 59.6392C147.241 64.5644 143.803 69.0235 139.935 73.0475C143.464 68.7464 146.7 64.2044 149.147 59.2805C151.277 54.8952 153.977 48.2519 151.665 43.9469C149.08 39.045 142.229 41.0195 136.919 42.9849C131.709 45.0539 126.756 47.7547 121.873 50.5475C126.52 47.3935 131.383 44.5062 136.604 42.2507ZM119.127 46.6127C131.745 39.8088 148.047 30.1073 155.739 42.1252C147.517 30.409 131.637 41.1852 119.291 48.4759C119.24 47.835 119.183 47.2225 119.127 46.6127ZM115.815 46.9714C115.247 41.8649 114.175 36.9527 112.339 32.2903C110.567 27.7082 107.831 23.0303 103.872 19.9721C112.581 23.455 117.544 37.2142 115.815 46.9714ZM131.425 86.6734C119.844 94.5778 107.068 96.0396 98.7041 93.8735C109.737 95.1566 121.355 91.5313 130.401 85.2583C141.68 77.583 148.331 66.6852 148.991 65.9225C148.991 65.9225 151.584 61.8117 152.352 60.6439C149.988 65.6597 147.305 70.6134 143.744 75C140.259 79.4254 136.139 83.421 131.425 86.6734ZM141.363 32.8444C132.52 33.8608 125.831 39.9552 118.751 43.1234C116.351 23.8032 110.437 21.4157 101.495 14.6727C93.2507 8.45534 96.1774 0.81894 89.9587 0.81894C83.7521 0.81894 84.6854 10.2214 80.2721 10.2214C76.0334 10.2214 76.6441 0.81894 70.5894 0.81894C64.3801 0.81894 67.2281 8.50713 59.0507 14.6727C58.1441 15.3576 57.2641 15.9946 56.4147 16.6083C49.1161 21.8974 43.9667 25.6444 41.7961 43.1234C39.5547 42.1213 37.3107 40.8019 34.9534 39.3958C30.1161 36.5111 25.1147 33.5255 19.1841 32.8444C13.0401 32.1375 7.80273 33.3442 4.4454 36.2405C-1.79727 41.6267 -0.474602 50.7844 2.41206 58.3871C7.10273 70.7649 17.0094 81.8311 18.0174 82.1625C26.8134 91.1377 38.0774 97.9131 50.0921 97.9131C65.6414 97.9131 69.4241 91.565 80.2721 91.565C91.0974 91.565 94.9001 97.9131 110.455 97.9131C137.356 97.9131 160.537 63.9778 160.537 47.3171C160.537 36.2263 152.38 31.5743 141.363 32.8444Z" fill="black"/>
</svg>
