<svg width="94" height="113" viewBox="0 0 94 113" fill="none" xmlns="http://www.w3.org/2000/svg">
<path d="M8.5198 64.9816C11.3293 66.3178 12.7807 69.0406 13.3277 71.7764C13.3829 72.0522 13.6303 72.2581 13.9313 72.2684C15.1558 72.3073 16.8881 72.2866 20.9886 72.7669C23.3209 73.0608 25.6355 73.4661 27.9323 74.1639C26.923 73.5243 25.8137 73.0323 24.6793 72.6141C23.5413 72.205 22.3662 71.8943 21.1787 71.6573C18.9583 71.2145 16.6985 71.0307 14.435 71.0268C13.3397 67.3432 10.9391 65.4102 8.5198 64.9816ZM81.2474 67.3355C80.3219 68.4062 79.7089 69.6932 79.3121 71.0268C74.8506 71.0332 69.5157 71.8192 65.8151 74.1639C69.9714 72.9016 75.4589 72.3397 79.7917 72.2684H79.8167C80.1058 72.2633 80.3621 72.0626 80.4193 71.7764C80.9673 69.0406 82.4183 66.3178 85.2277 64.9816C83.7047 65.2509 82.2798 66.143 81.2474 67.3355ZM21.4803 40.4527C13.8579 43.4151 12.6162 53.0001 20.5693 54.9875C14.0897 50.7123 15.797 45.3313 21.4803 40.4527ZM32.7933 57.1329C28.4219 57.933 24.4855 58.034 20.2465 57.0448C13.1813 55.3992 10.7053 46.9109 15.849 41.8769C20.3897 37.4321 25.4089 35.2414 29.1225 34.8555C19.1922 32.5457 17.0438 36.4157 16.0121 34.3674C13.285 28.9722 16.4995 22.391 20.6001 18.4641C18.3167 22.3768 16.0298 28.1008 17.7277 32.2906C27.2974 29.2855 35.2474 35.2439 36.637 35.7062C38.5157 36.3302 40.875 36.4921 42.5865 34.9733C41.5517 36.8714 39.0693 37.5046 36.8413 37.2663C43.7531 43.3141 40.7345 55.6763 32.7933 57.1329ZM72.2673 40.4527C77.9818 45.3572 79.6146 50.7407 73.1782 54.9875C81.1501 52.9949 79.8583 43.4021 72.2673 40.4527ZM60.9547 57.1847C52.9183 55.71 50.0235 43.2234 56.9678 37.2585C54.7266 37.5162 52.2074 36.8921 51.161 34.9733C52.8719 36.4921 55.2313 36.3302 57.111 35.7062C58.3323 35.2996 66.6042 29.3347 76.0198 32.2906C77.7183 28.0995 75.4282 22.3729 73.1479 18.4641C77.3241 22.4635 80.4298 29.0357 77.7355 34.3674C76.7235 36.3704 74.2553 32.5755 64.4855 34.8879C68.0646 35.209 73.2121 37.3414 77.8974 41.9274C83.8741 47.7758 81.0913 60.8721 60.9547 57.1847ZM46.8741 51.8918C43.1594 51.8918 41.2069 59.3909 37.3907 67.9013C35.8719 71.2883 37.6859 75.2502 41.3355 76.2938C41.9599 76.4712 42.5979 76.6239 43.2365 76.7482C44.4979 76.9929 45.7214 76.1786 45.9579 74.9486L46.8741 70.1761L47.7902 74.9486C48.0255 76.1786 49.249 76.9929 50.5115 76.7482C51.149 76.6239 51.787 76.4712 52.4115 76.2938C56.0621 75.2502 57.8755 71.2883 56.3569 67.9013C52.5407 59.3909 50.5875 51.8918 46.8741 51.8918ZM47.7099 20.7234C47.6818 15.7671 47.5334 10.8121 46.8741 5.85586C46.2137 10.8121 46.0651 15.7671 46.037 20.7234C46.0621 25.6784 46.2105 30.6334 46.8741 35.5896C47.537 30.6334 47.6859 25.6784 47.7099 20.7234ZM91.6741 50.9453C92.247 47.9324 92.2037 44.8807 91.5526 41.8769C90.0798 35.0925 87.1995 26.4928 84.2151 19.9673C83.4282 18.2466 82.323 16.7045 80.9313 15.3826C74.1631 8.94251 61.0069 2.4429 46.8735 2.4429C32.7397 2.4429 19.5845 8.94251 12.8167 15.3826C11.4246 16.7032 10.3198 18.2466 9.53126 19.9673C6.54846 26.4902 3.66886 35.0899 2.19433 41.8769C1.5422 44.8833 1.50219 47.935 2.07406 50.9466C3.81926 60.1069 6.37713 65.9604 7.01366 67.329C8.76566 67.9323 10.5689 69.3864 11.2933 71.2378C11.9959 73.0336 11.4079 74.9926 12.3621 75.3176C12.7902 75.4613 13.5703 75.1233 14.0641 74.577C14.4094 74.195 14.6485 74.3076 16.5913 74.384C20.823 74.5498 26.6839 74.7841 29.3714 77.8863C29.4709 74.7129 30.7417 73.1113 31.4287 69.5016C32.5183 63.8707 24.4318 59.98 16.6307 66.0485C16.573 66.0938 16.4891 66.0848 16.4422 66.0291C16.4001 65.9786 16.4037 65.9048 16.4485 65.8582C25.1522 56.8273 38.0313 63.4551 32.9042 74.1795C31.5913 76.8674 31.3755 77.2351 30.5777 80.235C31.0053 81.8729 30.749 82.5073 30.8241 86.0044H31.4474V85.2107C31.4474 82.493 34.7479 81.0222 36.8689 82.8426C37.9553 81.2799 40.2126 80.9406 41.7318 82.2445C42.9131 80.5445 45.425 80.336 46.8735 81.9156C48.3189 80.3399 50.8313 80.5419 52.0151 82.2445C53.5307 80.9445 55.7891 81.2747 56.8787 82.8426C58.999 81.0235 62.2995 82.493 62.2995 85.2107V86.0044H62.9241C63.0017 82.383 62.7474 81.8638 63.1719 80.2415C62.9558 79.4309 62.7397 78.6347 62.4865 77.8798C61.6293 75.3098 57.6881 69.7243 61.0359 65.0321C64.1355 60.5523 71.8193 60.1717 77.2985 65.8582C77.4126 65.976 77.2459 66.1495 77.1162 66.0485C71.0277 61.3123 64.7083 62.6796 62.8359 66.1145C60.9375 69.4679 64.1719 73.5127 64.3714 77.5458C64.3777 77.6624 64.3725 77.7776 64.3766 77.8928C67.437 74.3517 74.5083 74.5653 79.0031 74.3012C79.2646 74.2831 79.5137 74.3879 79.6839 74.577C80.175 75.1233 80.9558 75.4613 81.3855 75.3176C81.7594 75.1907 81.999 74.5951 82.0417 73.6823C81.9323 70.6837 83.9042 68.3557 86.7303 67.3381C87.3594 65.9837 89.9293 60.1251 91.6741 50.9453ZM76.2386 77.8177C75.9105 77.4319 75.4241 77.2428 74.9214 77.2998L74.9031 77.3024C73.2621 82.6225 74.3137 88.0566 72.2673 91.6585C73.6246 87.9685 71.9318 83.3372 72.4214 77.7569C72.1037 77.841 71.7917 77.9355 71.487 78.0456C69.8621 84.1425 71.0569 90.321 68.7526 94.4953C70.285 90.4842 68.7417 85.4373 69.023 79.5151C66.0022 82.6782 69.8151 89.943 61.2709 91.5278V94.1651C61.2709 97.1107 57.3465 98.2902 55.6255 95.8677C54.1741 97.0421 52.1162 96.6925 51.1058 95.2696C49.7933 96.3325 47.9735 96.159 46.8735 95.0119C45.7735 96.159 43.9547 96.3325 42.6422 95.2696C41.6329 96.6899 39.575 97.0447 38.1214 95.8677C36.399 98.2928 32.4755 97.1081 32.4755 94.1651V91.5278C24.0246 89.9598 27.5985 82.5254 24.7246 79.5138C25.0063 85.4502 23.4631 90.4842 24.9943 94.4953C22.687 90.3159 23.8902 84.1619 22.2599 78.0443C21.9553 77.9355 21.6443 77.841 21.3255 77.7569C21.8146 83.3307 20.1255 87.9763 21.4803 91.6585C19.425 88.041 20.4938 82.6484 18.8449 77.3024L18.8271 77.2998C18.7678 77.2933 18.7105 77.2908 18.6531 77.2908C17.675 77.2908 16.9271 78.2191 17.2277 79.172C20.7954 90.479 15.7709 98.7692 23.1391 103.323C30.323 107.76 31.5157 111.557 37.473 110.836C54.1667 108.787 58.249 113.388 63.6589 108.52C65.785 106.608 68.1235 104.86 70.6089 103.323C77.9813 98.7667 72.9433 90.5049 76.5198 79.172C76.6698 78.6969 76.5678 78.2022 76.2386 77.8177ZM34.7157 83.6622C32.3558 83.6622 33.3173 86.8265 33.1203 88.0255C33.1203 90.0763 36.311 90.0725 36.311 88.0255C36.1099 86.8032 37.0563 83.6622 34.7157 83.6622ZM39.5793 83.064C37.2189 83.064 38.1803 86.2284 37.9839 87.4273C37.9839 89.4782 41.1741 89.4743 41.1741 87.4273C40.9735 86.205 41.9193 83.064 39.5793 83.064ZM44.4417 82.4671C42.0959 82.4671 43.0391 85.6587 42.847 86.8304C42.847 88.88 46.0365 88.8787 46.0365 86.8304C45.8365 85.6082 46.7818 82.4671 44.4417 82.4671ZM49.3047 82.4671C46.9449 82.4671 47.9063 85.6302 47.7099 86.8304C47.7099 88.88 50.9001 88.8774 50.9001 86.8304C50.7001 85.6082 51.6454 82.4671 49.3047 82.4671ZM58.1746 95.5479C60.3334 95.5479 59.397 92.5312 59.5979 91.1432C58.5673 91.3193 57.6339 91.0241 56.911 90.4207C56.8151 90.6007 56.7511 90.8001 56.7511 91.0189C56.9547 92.4626 55.9917 95.5479 58.1746 95.5479ZM53.6537 94.9498C55.825 94.9498 54.8735 91.9006 55.0777 90.4609C54.0485 90.7522 53.0855 90.558 52.3017 90.0258C52.2599 90.1514 52.2307 90.2809 52.2307 90.4207C52.4334 91.8553 51.4755 94.9498 53.6537 94.9498ZM36.8359 90.4207C36.1173 91.0215 35.1839 91.3206 34.1485 91.1432C34.3594 92.5972 33.4235 95.5479 35.5725 95.5479C37.7359 95.5479 36.7787 92.5636 36.9965 91.0189C36.9965 90.8001 36.9323 90.6007 36.8359 90.4207ZM41.4454 90.0258C40.6626 90.558 39.7026 90.7535 38.6693 90.4609C38.8823 91.9563 37.9381 94.9498 40.0927 94.9498C42.2563 94.9498 41.299 91.9667 41.5167 90.4207C41.5167 90.2809 41.487 90.1514 41.4454 90.0258ZM45.9917 89.6063C45.0626 90.0984 44.0761 90.1126 43.2017 89.763C43.2001 89.7837 43.1897 89.8018 43.1897 89.8226C43.3907 91.2481 42.4303 94.3529 44.6137 94.3529C46.7746 94.3529 45.8178 91.3737 46.0365 89.8226C46.0365 89.7462 46.0047 89.6789 45.9917 89.6063ZM50.5459 89.763C49.6693 90.1139 48.6834 90.0971 47.7547 89.6063C47.7417 89.6789 47.7099 89.7462 47.7099 89.8226C47.9137 91.2675 46.9506 94.3529 49.1339 94.3529C51.2965 94.3529 50.3402 91.3698 50.5574 89.8226C50.5574 89.8018 50.547 89.7837 50.5459 89.763ZM61.7501 89.7824C64.0897 89.2464 64.9995 88.2041 65.4714 86.1041C65.1531 86.0497 64.8631 85.9125 64.5965 85.7092C64.5137 86.1352 64.9553 87.628 63.7599 87.628H62.2995C62.275 87.8313 62.4443 88.7725 61.7501 89.7824ZM57.4365 88.0255C57.4365 88.8787 58.1526 89.574 59.0313 89.574C61.3913 89.574 60.4298 86.4096 60.6266 85.2107C60.6266 83.1598 57.4365 83.1637 57.4365 85.2107C57.4365 85.4463 57.4365 88.1925 57.4365 88.0255ZM52.573 87.4273C52.573 88.2818 53.2891 88.9758 54.1683 88.9758C56.5282 88.9758 55.5667 85.8127 55.7637 84.6125C55.7637 82.5629 52.573 82.5655 52.573 84.6125C52.573 84.8482 52.573 87.5943 52.573 87.4273ZM29.1506 86.8162V85.7092C28.8845 85.9125 28.5938 86.0497 28.2755 86.1041C28.747 88.2002 29.6537 89.2464 31.9974 89.7824C31.3026 88.7725 31.4725 87.83 31.4474 87.628C30.8303 87.5309 29.1506 87.997 29.1506 86.8162ZM93.3198 51.2405C91.2834 61.961 88.2183 68.0968 88.0897 68.3531C87.9834 68.5616 87.7913 68.7183 87.5594 68.7791C87.5594 68.7791 87.187 68.884 86.6823 69.13C87.2334 71.9681 87.535 77.8566 82.2241 82.6588C81.4318 83.3735 80.3375 83.6026 79.3026 83.2712C78.5402 83.0265 77.9282 82.4969 77.5793 81.8224C75.2465 93.1591 79.1459 99.9747 71.5074 104.694C69.1063 106.176 66.8479 107.865 64.7959 109.711C58.637 115.251 54.6115 110.374 37.6839 112.447C30.8974 113.283 29.6146 109.25 22.2407 104.694C14.6069 99.9785 18.5183 93.2498 16.1689 81.8237C15.8198 82.4969 15.2079 83.0265 14.4449 83.2712C13.4079 83.6026 12.3151 83.3748 11.523 82.6588C6.21099 77.8591 6.51313 71.9694 7.0646 69.1313C6.18233 68.6975 5.89019 68.8102 5.65793 68.3531C5.52873 68.0968 2.47139 61.961 0.428728 51.2418C-0.182739 48.0205 -0.140072 44.7564 0.556328 41.5429C2.05259 34.6522 4.97606 25.9244 8.00219 19.3069C8.87713 17.3972 10.1026 15.6868 11.6454 14.2212C18.6558 7.55066 32.2673 0.819285 46.8735 0.819285C61.4787 0.819285 75.0913 7.55066 82.1017 14.2212C83.6454 15.6868 84.8714 17.3985 85.7449 19.3069C88.7725 25.927 91.6949 34.6548 93.1913 41.5416C93.887 44.7538 93.9323 48.0179 93.3198 51.2405ZM10.9422 53.6358C10.4146 51.3376 10.1818 49.1754 10.5855 47.1258C11.5381 42.2369 16.9037 35.5832 7.69326 27.7603C9.25833 31.4659 11.3662 34.9423 9.98339 40.1018C9.11513 43.3387 6.63233 48.5694 10.9422 53.6358ZM81.0277 35.1468C79.1146 42.0582 85.0209 43.9757 82.8047 53.6358C86.935 48.7818 84.8313 44.0845 83.7646 40.1018C82.4303 35.1274 84.3006 31.91 86.0542 27.7603C84.2583 29.2855 81.7209 32.6402 81.0277 35.1468ZM31.1771 100.913C40.4433 97.9549 54.0834 98.2086 62.5698 100.913C54.1859 96.3442 39.597 96.3313 31.1771 100.913ZM53.1433 106.832C55.1719 107.377 57.175 108.157 58.8417 109.447C50.9506 108.378 42.9621 108.343 34.9053 109.447C36.573 108.16 38.5761 107.382 40.6042 106.834C42.6449 106.292 44.7621 106.064 46.8741 106.034C48.9859 106.06 51.1031 106.288 53.1433 106.832Z" fill="black"/>
</svg>
