<svg width="26" height="28" viewBox="0 0 26 28" fill="none" xmlns="http://www.w3.org/2000/svg">
<path d="M4.37233 13.7364C3.9924 13.0504 3.61408 12.3763 3.22972 11.7062C2.68325 10.7536 2.1302 9.80543 1.58532 8.8517C1.48887 8.68286 1.40131 8.58869 1.18591 8.59819C0.492028 8.6288 -0.0419991 8.03623 0.00868988 7.33786C0.0463214 6.81939 0.501145 6.35467 1.01079 6.31035C1.5532 6.26318 2.00283 6.42811 2.28703 6.9723C2.33276 7.05986 2.40166 7.06975 2.4814 7.06831C3.87162 7.04328 5.26183 7.01801 6.65208 6.99493C7.18554 6.98607 7.71912 6.97633 8.25256 6.98055C8.40388 6.98175 8.49551 6.9269 8.57991 6.79197C9.55821 5.22782 10.541 3.66701 11.524 2.10639C11.5935 1.99606 11.6282 1.91166 11.5365 1.77773C11.2199 1.31551 11.2732 0.769746 11.6548 0.369346C12.1419 -0.141864 13.0029 -0.119108 13.4629 0.417134C13.7915 0.800147 13.8349 1.34801 13.5479 1.76931C13.4546 1.90616 13.476 1.98971 13.5534 2.11234C14.5451 3.68354 15.5338 5.25691 16.5195 6.8326C16.59 6.94534 16.6711 6.97729 16.7891 6.97869C18.0718 6.99386 19.3547 7.00142 20.6369 7.03797C21.2782 7.05625 21.9195 7.04576 22.5603 7.07068C22.71 7.0765 22.7987 7.02673 22.8834 6.88294C23.3244 6.13356 24.4298 6.09411 24.9182 6.80861C25.1338 7.1241 25.1899 7.47834 25.0425 7.85021C24.8705 8.28433 24.5459 8.50131 24.1351 8.58445C24.0546 8.60074 23.9662 8.61929 23.8895 8.59949C23.7008 8.55077 23.6045 8.64159 23.5088 8.80917C22.608 10.3868 21.7014 11.9606 20.7912 13.5319C20.7094 13.6732 20.6998 13.7786 20.7845 13.9245C21.706 15.513 22.6226 17.1049 23.5368 18.6984C23.606 18.8189 23.6819 18.8715 23.8145 18.8589C24.0606 18.8356 24.2923 18.9041 24.5115 19.0275C24.8756 19.2323 25.0916 19.5587 25.0967 20.0029C25.1017 20.4388 24.8919 20.7674 24.5475 20.9844C23.9411 21.3665 23.1821 21.1603 22.8195 20.5056C22.7456 20.3722 22.6532 20.3787 22.5463 20.3807C21.175 20.4074 19.8037 20.4342 18.4324 20.4615C17.8738 20.4727 17.3152 20.489 16.7565 20.4943C16.6309 20.4955 16.5608 20.5568 16.4953 20.6614C15.6063 22.082 14.7152 23.5011 13.8245 24.9205C13.7204 25.0864 13.6172 25.2531 13.5108 25.4173C13.461 25.494 13.4526 25.5561 13.5116 25.6394C13.7579 25.9869 13.8169 26.3706 13.6358 26.7694C13.4376 27.2055 13.0874 27.4184 12.6567 27.4578C12.016 27.5164 11.501 27.1377 11.3586 26.5287C11.2854 26.2157 11.3557 25.9324 11.533 25.6879C11.6158 25.5738 11.6179 25.5003 11.5441 25.3833C10.5446 23.801 9.54825 22.2164 8.55558 20.629C8.48136 20.5103 8.38952 20.4989 8.27833 20.4971C7.30688 20.4811 6.33542 20.4648 5.36402 20.445C4.43725 20.426 3.51048 20.4059 2.5839 20.3784C2.42324 20.3736 2.32606 20.4153 2.23339 20.5784C1.82442 21.2978 0.769993 21.3769 0.260754 20.7405C-0.2737 20.0725 0.0523207 19.1084 0.884441 18.8975C0.946186 18.8818 1.0127 18.851 1.07097 18.8628C1.38672 18.9269 1.52485 18.72 1.67239 18.4607C2.54416 16.9284 3.42963 15.4055 4.30995 13.879C4.3335 13.8382 4.35095 13.7931 4.37233 13.7364ZM17.931 8.89355C17.8642 8.82945 17.7996 8.76227 17.7302 8.70169C15.6178 6.85829 13.2242 6.27772 10.6058 6.91011C8.63556 7.38595 7.05983 8.55899 6.00652 10.4635C4.99876 12.2857 4.86118 14.2172 5.62617 16.1849C6.3512 18.0498 7.64665 19.3057 9.32636 20.095C10.7529 20.7654 12.2451 20.952 13.7815 20.6921C15.6504 20.3758 17.2531 19.5101 18.4774 17.9072C19.7005 16.3059 20.1659 14.47 19.7922 12.4093C19.5404 11.021 18.8947 9.8714 17.931 8.89355ZM13.5136 24.093C14.1612 23.0618 14.8087 22.0306 15.478 20.9649C15.2133 21.0445 14.9956 21.1188 14.774 21.1738C14.6209 21.2118 14.5204 21.2986 14.4327 21.441C13.9289 22.2584 13.4182 23.0707 12.9067 23.8824C12.676 24.2485 12.3944 24.2429 12.1663 23.8787C11.6497 23.0539 11.1312 22.2304 10.6125 21.4071C10.5664 21.3341 10.5298 21.2465 10.4414 21.2201C10.1749 21.1406 9.908 21.0628 9.63624 20.9829C9.63968 21.0725 9.69053 21.1208 9.72551 21.1765C10.5129 22.4297 11.304 23.6802 12.0864 24.9371C12.1927 25.1079 12.2902 25.2264 12.4955 25.1516C12.5458 25.1333 12.6121 25.1432 12.6646 25.1617C12.7846 25.2039 12.8504 25.1507 12.9152 25.0441C13.1048 24.7318 13.3035 24.4263 13.5136 24.093ZM21.0586 17.0611C21.1159 17.1611 21.173 17.2612 21.2305 17.3611C21.4605 17.7603 21.6961 18.1558 21.9188 18.5599C22.0639 18.8229 21.9726 19.0349 21.6993 19.1034C21.6443 19.1172 21.5863 19.121 21.5295 19.1219C20.5711 19.1383 19.6119 19.1844 18.6545 19.156C18.1778 19.1418 17.9805 19.5338 17.6598 19.7542C17.7449 19.7796 17.8204 19.7808 17.8959 19.7794C19.3681 19.7517 20.8403 19.7175 22.3127 19.7017C22.5763 19.6988 22.781 19.6806 22.9119 19.3759C22.9749 19.2293 22.9917 19.1458 22.9123 19.0091C22.1979 17.779 21.4915 16.5434 20.7786 15.3123C20.7078 15.19 20.6582 15.0436 20.5268 14.9474C20.4727 15.1893 20.4297 15.4122 20.3713 15.6302C20.3376 15.7563 20.359 15.8573 20.4216 15.9633C20.6314 16.3191 20.8365 16.6781 21.0586 17.0611ZM20.4988 7.71658C19.5551 7.71306 18.6114 7.71026 17.666 7.69653C17.8124 7.85871 17.9655 7.98194 18.1075 8.11885C18.2227 8.22998 18.3459 8.27751 18.5013 8.28968C18.9646 8.32596 19.4279 8.30012 19.891 8.31245C20.4683 8.32783 21.0458 8.33639 21.6231 8.35362C21.9443 8.3632 22.0709 8.61794 21.9112 8.92048C21.889 8.96253 21.8653 9.00366 21.8417 9.04475C21.3752 9.85504 20.9083 10.665 20.4429 11.4759C20.3964 11.5569 20.3322 11.6371 20.3547 11.7426C20.4075 11.9897 20.4659 12.2353 20.5223 12.4828C20.609 12.4645 20.6329 12.3945 20.665 12.3389C21.4102 11.048 22.1545 9.75642 22.8972 8.46383C22.9518 8.36893 23.0549 8.26928 22.9552 8.14907C22.8309 7.9992 22.8223 7.73925 22.5335 7.74653C21.8677 7.7633 21.2004 7.76998 20.4988 7.71658ZM14.561 5.03413C14.021 4.17672 13.4779 3.32156 12.9441 2.45958C12.8605 2.32451 12.7706 2.27147 12.6294 2.29767C12.58 2.30684 12.5264 2.31057 12.4778 2.30007C12.3058 2.26294 12.1999 2.33679 12.1016 2.49514C11.3315 3.73504 10.5531 4.96882 9.77871 6.2056C9.74112 6.26563 9.68656 6.32248 9.70388 6.43239C9.91482 6.43033 10.1024 6.31706 10.3035 6.28063C10.4472 6.25461 10.5389 6.17281 10.6193 6.04365C11.1301 5.22337 11.6467 4.40734 12.1614 3.58997C12.3912 3.22504 12.6859 3.22996 12.9166 3.59785C13.437 4.42785 13.9597 5.25617 14.4818 6.08488C14.5175 6.14148 14.5463 6.20979 14.6126 6.23029C14.877 6.31216 15.1422 6.39087 15.4072 6.47075C15.4157 6.45708 15.4243 6.44341 15.4329 6.42974C15.1471 5.973 14.8613 5.51625 14.561 5.03413ZM6.02631 7.7073C4.96024 7.72295 3.89419 7.74512 2.82808 7.74979C2.55236 7.751 2.29301 7.73369 2.19559 8.0979C2.19393 8.10413 2.18912 8.11039 2.18425 8.1144C2.06174 8.21515 2.08016 8.31252 2.15851 8.44676C2.72507 9.41747 3.28295 10.3942 3.84453 11.3684C4.06623 11.753 4.29034 12.1359 4.53315 12.5537C4.59136 12.3001 4.63004 12.0901 4.68927 11.8873C4.73369 11.7351 4.7135 11.614 4.63534 11.4799C4.1443 10.6376 3.66079 9.78999 3.17237 8.94581C3.09661 8.81488 3.04878 8.68356 3.12311 8.53743C3.19586 8.39439 3.32118 8.35489 3.46218 8.35151C3.83633 8.34254 4.21038 8.32727 4.58456 8.32225C5.17485 8.31433 5.7662 8.2881 6.35523 8.31633C6.82146 8.33867 7.07645 8.00778 7.37328 7.7148C6.9326 7.64066 6.49829 7.72382 6.02631 7.7073ZM3.00346 17.5576C2.76277 17.974 2.52874 18.3952 2.2788 18.8049C2.13798 19.0357 2.01427 19.2487 2.26045 19.4844C2.27395 19.4973 2.28228 19.519 2.28846 19.5384C2.32462 19.6516 2.39427 19.6934 2.50569 19.6944C2.76568 19.6965 3.02551 19.7184 3.28554 19.7224C4.59304 19.7429 5.90058 19.7607 7.20812 19.7777C7.27148 19.7786 7.3418 19.7985 7.41128 19.7372C7.24715 19.5933 7.08768 19.467 6.94333 19.3226C6.82681 19.2061 6.70123 19.1691 6.54639 19.1676C5.54982 19.1576 4.55333 19.1389 3.55682 19.1229C3.51239 19.1222 3.46746 19.1246 3.42365 19.1183C3.10887 19.0726 2.99891 18.813 3.16864 18.5186C3.6323 17.7144 4.09409 16.9089 4.5612 16.1071C4.66454 15.9297 4.77411 15.7714 4.67809 15.5386C4.6037 15.3582 4.61261 15.1439 4.51706 14.93C4.00522 15.8188 3.51187 16.6755 3.00346 17.5576ZM12.3003 0.380883C11.8894 0.451111 11.6878 0.702118 11.7683 1.07628C11.9298 0.78241 12.1713 0.601802 12.4461 0.403367C12.374 0.390108 12.3501 0.38572 12.3003 0.380883ZM23.1516 19.8923C23.3174 19.6307 23.5408 19.4392 23.823 19.273C23.6079 19.2183 23.4497 19.2652 23.3057 19.3776C23.1286 19.5158 23.0661 19.7076 23.1516 19.8923ZM11.7382 26.0223C11.7401 26.081 11.7144 26.146 11.784 26.2084C11.9421 25.925 12.1805 25.7408 12.4503 25.5683C12.0963 25.5023 11.8776 25.6396 11.7382 26.0223ZM0.88712 19.2533C0.526242 19.3464 0.324384 19.6273 0.436218 19.9228C0.604648 19.6442 0.82749 19.4464 1.06434 19.2511C1.01482 19.2511 0.965293 19.2511 0.88712 19.2533ZM23.7416 6.76496C23.752 6.65387 23.6724 6.66691 23.6235 6.68171C23.4596 6.73131 23.2923 6.7861 23.1993 6.96183C23.1426 7.06907 23.0679 7.17883 23.1545 7.36201C23.3142 7.10681 23.5028 6.92224 23.7416 6.76496ZM0.50275 7.26883C0.635197 7.03461 0.847509 6.89532 1.06834 6.7246C0.866723 6.62274 0.728069 6.73805 0.598902 6.82733C0.466421 6.91891 0.397902 7.07469 0.386564 7.24649C0.381842 7.31805 0.429346 7.34233 0.50275 7.26883Z" fill="#333333"/>
<ellipse cx="12.598" cy="13.7709" rx="7.03279" ry="6.77089" fill="#333333"/>
<ellipse cx="12.56" cy="13.7504" rx="6.61349" ry="6.33339" fill="white"/>
<ellipse cx="12.5407" cy="13.8124" rx="6.3276" ry="6.02088" fill="#333333"/>
<path d="M11.5243 17.1295C11.0496 17.1295 10.5996 17.0771 10.1743 16.9723C9.74897 16.8613 9.39452 16.7103 9.11096 16.5192V14.8918H10.9603V14.9843C10.9603 15.3171 11.1205 15.4836 11.4411 15.4836C11.6075 15.4836 11.7308 15.4404 11.8109 15.3541C11.8972 15.2617 11.9404 15.1199 11.9404 14.9288V11.3227H11.1082V9.80623H14.9917V11.3227H14.5294V14.4295C14.5294 15.3356 14.2643 16.0137 13.7342 16.4637C13.2041 16.9075 12.4674 17.1295 11.5243 17.1295Z" fill="white"/>
</svg>
