<svg width="26" height="28" viewBox="0 0 26 28" fill="none" xmlns="http://www.w3.org/2000/svg">
<path d="M4.37233 13.7364C3.9924 13.0504 3.61408 12.3763 3.22972 11.7062C2.68325 10.7536 2.1302 9.80543 1.58532 8.8517C1.48887 8.68286 1.40131 8.58869 1.18591 8.59819C0.492028 8.6288 -0.0419991 8.03623 0.00868988 7.33786C0.0463214 6.81939 0.501145 6.35467 1.01079 6.31035C1.5532 6.26318 2.00283 6.42811 2.28703 6.9723C2.33276 7.05986 2.40166 7.06975 2.4814 7.06831C3.87162 7.04328 5.26183 7.01801 6.65208 6.99493C7.18554 6.98607 7.71912 6.97633 8.25256 6.98055C8.40388 6.98175 8.49551 6.9269 8.57991 6.79197C9.55821 5.22782 10.541 3.66701 11.524 2.10639C11.5935 1.99606 11.6282 1.91166 11.5365 1.77773C11.2199 1.31551 11.2732 0.769746 11.6548 0.369346C12.1419 -0.141864 13.0029 -0.119108 13.4629 0.417134C13.7915 0.800147 13.8349 1.34801 13.5479 1.76931C13.4546 1.90616 13.476 1.98971 13.5534 2.11234C14.5451 3.68354 15.5338 5.25691 16.5195 6.8326C16.59 6.94534 16.6711 6.97729 16.7891 6.97869C18.0718 6.99386 19.3547 7.00142 20.6369 7.03797C21.2782 7.05625 21.9195 7.04576 22.5603 7.07068C22.71 7.0765 22.7987 7.02673 22.8834 6.88294C23.3244 6.13356 24.4298 6.09411 24.9182 6.80861C25.1338 7.1241 25.1899 7.47834 25.0425 7.85021C24.8705 8.28433 24.5459 8.50131 24.1351 8.58445C24.0546 8.60074 23.9662 8.61929 23.8895 8.59949C23.7008 8.55077 23.6045 8.64159 23.5088 8.80917C22.608 10.3868 21.7014 11.9606 20.7912 13.5319C20.7094 13.6732 20.6998 13.7786 20.7845 13.9245C21.706 15.513 22.6226 17.1049 23.5368 18.6984C23.606 18.8189 23.6819 18.8715 23.8145 18.8589C24.0606 18.8356 24.2923 18.9041 24.5115 19.0275C24.8756 19.2323 25.0916 19.5587 25.0967 20.0029C25.1017 20.4388 24.8919 20.7674 24.5475 20.9844C23.9411 21.3665 23.1821 21.1603 22.8195 20.5056C22.7456 20.3722 22.6532 20.3787 22.5463 20.3807C21.175 20.4074 19.8037 20.4342 18.4324 20.4615C17.8738 20.4727 17.3152 20.489 16.7565 20.4943C16.6309 20.4955 16.5608 20.5568 16.4953 20.6614C15.6063 22.082 14.7152 23.5011 13.8245 24.9205C13.7204 25.0864 13.6172 25.2531 13.5108 25.4173C13.461 25.494 13.4526 25.5561 13.5116 25.6394C13.7579 25.9869 13.8169 26.3706 13.6358 26.7694C13.4376 27.2055 13.0874 27.4184 12.6567 27.4578C12.0159 27.5164 11.501 27.1377 11.3586 26.5287C11.2854 26.2157 11.3557 25.9324 11.533 25.6879C11.6158 25.5738 11.6179 25.5003 11.5441 25.3833C10.5446 23.801 9.54825 22.2164 8.55558 20.629C8.48136 20.5103 8.38952 20.4989 8.27833 20.4971C7.30688 20.4811 6.33542 20.4648 5.36402 20.445C4.43725 20.426 3.51048 20.4059 2.5839 20.3784C2.42324 20.3736 2.32606 20.4153 2.23339 20.5784C1.82442 21.2978 0.769993 21.3769 0.260754 20.7405C-0.2737 20.0725 0.0523207 19.1084 0.884441 18.8975C0.946186 18.8818 1.0127 18.851 1.07097 18.8628C1.38672 18.9269 1.52485 18.72 1.67239 18.4607C2.54416 16.9284 3.42963 15.4055 4.30995 13.879C4.3335 13.8382 4.35095 13.7931 4.37233 13.7364ZM17.931 8.89355C17.8642 8.82945 17.7996 8.76227 17.7302 8.70169C15.6178 6.85829 13.2242 6.27772 10.6058 6.91011C8.63556 7.38595 7.05983 8.55899 6.00652 10.4635C4.99876 12.2857 4.86118 14.2172 5.62617 16.1849C6.3512 18.0498 7.64665 19.3057 9.32636 20.095C10.7529 20.7654 12.2451 20.952 13.7815 20.6921C15.6504 20.3758 17.2531 19.5101 18.4774 17.9072C19.7005 16.3059 20.1659 14.47 19.7922 12.4093C19.5404 11.021 18.8947 9.8714 17.931 8.89355ZM13.5136 24.093C14.1612 23.0618 14.8087 22.0306 15.478 20.9649C15.2133 21.0445 14.9956 21.1188 14.774 21.1738C14.6209 21.2118 14.5204 21.2986 14.4327 21.441C13.9289 22.2584 13.4182 23.0707 12.9067 23.8824C12.676 24.2485 12.3944 24.2429 12.1663 23.8787C11.6497 23.0539 11.1312 22.2304 10.6125 21.4071C10.5664 21.3341 10.5298 21.2465 10.4414 21.2201C10.1749 21.1406 9.908 21.0628 9.63624 20.9829C9.63968 21.0725 9.69053 21.1208 9.72551 21.1765C10.5129 22.4297 11.304 23.6802 12.0864 24.9371C12.1927 25.1079 12.2902 25.2264 12.4955 25.1516C12.5458 25.1333 12.6121 25.1432 12.6646 25.1617C12.7846 25.2039 12.8504 25.1507 12.9152 25.044C13.1048 24.7318 13.3035 24.4263 13.5136 24.093ZM21.0586 17.0611C21.1159 17.1611 21.173 17.2612 21.2305 17.3611C21.4605 17.7603 21.6961 18.1558 21.9188 18.5599C22.0639 18.8229 21.9726 19.0349 21.6993 19.1034C21.6443 19.1172 21.5863 19.121 21.5295 19.1219C20.5711 19.1383 19.6119 19.1844 18.6545 19.156C18.1778 19.1418 17.9805 19.5338 17.6598 19.7542C17.7449 19.7796 17.8204 19.7808 17.8959 19.7794C19.3681 19.7517 20.8403 19.7175 22.3127 19.7017C22.5763 19.6988 22.781 19.6806 22.9119 19.3759C22.9749 19.2293 22.9917 19.1458 22.9123 19.0091C22.1979 17.779 21.4915 16.5434 20.7786 15.3123C20.7078 15.19 20.6582 15.0436 20.5268 14.9474C20.4727 15.1893 20.4297 15.4122 20.3713 15.6302C20.3376 15.7563 20.359 15.8573 20.4216 15.9633C20.6314 16.3191 20.8365 16.6781 21.0586 17.0611ZM20.4988 7.71658C19.5551 7.71306 18.6114 7.71026 17.666 7.69653C17.8124 7.85871 17.9655 7.98194 18.1075 8.11885C18.2227 8.22998 18.3459 8.27751 18.5013 8.28968C18.9646 8.32596 19.4279 8.30012 19.891 8.31245C20.4683 8.32783 21.0458 8.33639 21.6231 8.35362C21.9443 8.3632 22.0709 8.61794 21.9112 8.92048C21.889 8.96253 21.8653 9.00366 21.8417 9.04475C21.3752 9.85504 20.9083 10.665 20.4429 11.4759C20.3964 11.5569 20.3322 11.6371 20.3547 11.7426C20.4075 11.9897 20.4659 12.2353 20.5223 12.4828C20.609 12.4645 20.6329 12.3945 20.665 12.3389C21.4102 11.048 22.1545 9.75642 22.8972 8.46383C22.9518 8.36893 23.0549 8.26928 22.9552 8.14907C22.8309 7.9992 22.8223 7.73925 22.5335 7.74653C21.8677 7.7633 21.2004 7.76998 20.4988 7.71658ZM14.561 5.03413C14.021 4.17673 13.4779 3.32156 12.9441 2.45958C12.8605 2.32451 12.7706 2.27147 12.6294 2.29767C12.58 2.30684 12.5264 2.31057 12.4778 2.30007C12.3058 2.26295 12.1999 2.33679 12.1016 2.49514C11.3315 3.73504 10.5531 4.96882 9.77871 6.2056C9.74112 6.26563 9.68656 6.32248 9.70388 6.43239C9.91482 6.43033 10.1024 6.31706 10.3035 6.28063C10.4472 6.25461 10.5389 6.17281 10.6193 6.04365C11.1301 5.22337 11.6467 4.40734 12.1614 3.58997C12.3912 3.22504 12.6859 3.22996 12.9166 3.59785C13.437 4.42785 13.9597 5.25617 14.4818 6.08488C14.5175 6.14148 14.5463 6.20979 14.6126 6.23029C14.877 6.31216 15.1422 6.39087 15.4072 6.47075C15.4157 6.45708 15.4243 6.44341 15.4329 6.42974C15.1471 5.973 14.8613 5.51625 14.561 5.03413ZM6.02631 7.7073C4.96024 7.72295 3.89419 7.74512 2.82808 7.74979C2.55236 7.751 2.29301 7.73369 2.19559 8.0979C2.19393 8.10413 2.18912 8.11039 2.18425 8.1144C2.06174 8.21515 2.08016 8.31252 2.15851 8.44676C2.72507 9.41747 3.28295 10.3942 3.84453 11.3684C4.06623 11.753 4.29034 12.1359 4.53315 12.5537C4.59136 12.3001 4.63004 12.0901 4.68927 11.8873C4.73369 11.7351 4.7135 11.614 4.63534 11.4799C4.1443 10.6376 3.66079 9.78999 3.17237 8.94581C3.09661 8.81488 3.04878 8.68356 3.12311 8.53743C3.19586 8.39439 3.32118 8.35489 3.46218 8.35151C3.83633 8.34254 4.21038 8.32727 4.58456 8.32225C5.17485 8.31433 5.7662 8.2881 6.35523 8.31633C6.82146 8.33867 7.07645 8.00778 7.37328 7.7148C6.9326 7.64066 6.49829 7.72382 6.02631 7.7073ZM3.00346 17.5576C2.76277 17.974 2.52874 18.3952 2.2788 18.8049C2.13798 19.0357 2.01427 19.2487 2.26045 19.4844C2.27395 19.4973 2.28228 19.519 2.28846 19.5384C2.32462 19.6516 2.39427 19.6934 2.50569 19.6944C2.76568 19.6965 3.02551 19.7184 3.28554 19.7224C4.59304 19.7429 5.90058 19.7607 7.20812 19.7777C7.27148 19.7786 7.3418 19.7985 7.41128 19.7372C7.24715 19.5933 7.08768 19.467 6.94333 19.3226C6.82681 19.2061 6.70123 19.1691 6.54639 19.1676C5.54982 19.1576 4.55333 19.1389 3.55682 19.1229C3.51239 19.1222 3.46746 19.1246 3.42365 19.1183C3.10887 19.0726 2.99891 18.813 3.16864 18.5186C3.6323 17.7144 4.09409 16.9089 4.5612 16.1071C4.66454 15.9297 4.77411 15.7714 4.67809 15.5386C4.6037 15.3582 4.61261 15.1439 4.51706 14.93C4.00522 15.8188 3.51187 16.6755 3.00346 17.5576ZM12.3003 0.380883C11.8894 0.451111 11.6878 0.702118 11.7683 1.07628C11.9298 0.78241 12.1713 0.601802 12.4461 0.403367C12.374 0.390108 12.3501 0.38572 12.3003 0.380883ZM23.1516 19.8923C23.3174 19.6307 23.5408 19.4392 23.823 19.273C23.6079 19.2183 23.4497 19.2652 23.3057 19.3776C23.1286 19.5158 23.0661 19.7076 23.1516 19.8923ZM11.7382 26.0223C11.7401 26.081 11.7144 26.146 11.784 26.2084C11.9421 25.925 12.1805 25.7408 12.4503 25.5683C12.0963 25.5023 11.8776 25.6396 11.7382 26.0223ZM0.88712 19.2533C0.526242 19.3464 0.324384 19.6273 0.436218 19.9228C0.604648 19.6442 0.82749 19.4464 1.06434 19.2511C1.01482 19.2511 0.965293 19.2511 0.88712 19.2533ZM23.7416 6.76496C23.752 6.65387 23.6724 6.66691 23.6235 6.68171C23.4596 6.73131 23.2923 6.7861 23.1993 6.96183C23.1426 7.06907 23.0679 7.17883 23.1545 7.36201C23.3142 7.10681 23.5029 6.92224 23.7416 6.76496ZM0.50275 7.26883C0.635197 7.03461 0.847509 6.89532 1.06834 6.7246C0.866723 6.62274 0.728069 6.73805 0.598902 6.82733C0.466421 6.91891 0.397902 7.07469 0.386564 7.24649C0.381842 7.31805 0.429346 7.34233 0.50275 7.26883Z" fill="#FCD32B"/>
<ellipse cx="12.598" cy="13.7709" rx="7.03279" ry="6.77089" fill="#FCD32B"/>
<ellipse cx="12.56" cy="13.7504" rx="6.61349" ry="6.33339" fill="white"/>
<ellipse cx="12.5407" cy="13.8124" rx="6.3276" ry="6.02088" fill="#FCD32B"/>
<g filter="url(#filter0_d_946_131)">
<path d="M11.9842 9.46387C11.901 9.47732 11.8458 9.51152 11.7206 9.62303C11.6701 9.67036 11.6163 9.70656 11.6026 9.70415C11.5856 9.70115 11.5746 9.72381 11.5626 9.79199C11.5535 9.84312 11.5536 9.89235 11.5613 9.89897C11.59 9.92513 11.5648 9.97867 11.5192 9.98821C11.4681 9.99854 11.4296 10.0673 11.4477 10.1144C11.4552 10.1316 11.4792 10.1551 11.5015 10.1679C11.5893 10.2185 11.681 10.087 11.6077 10.0144C11.5778 9.98449 11.579 9.97767 11.6089 9.91791C11.6449 9.84341 11.7118 9.80249 11.8141 9.79065C11.8805 9.78302 11.887 9.78593 11.9097 9.82683C11.9309 9.86573 11.9374 9.86864 11.9502 9.84628C11.958 9.83184 11.9645 9.80487 11.9627 9.78522C11.9609 9.76556 11.9664 9.75423 11.974 9.76085C11.989 9.77579 12.0101 9.94472 12.0017 9.99245C11.9981 10.0129 12.002 10.0505 12.0112 10.0785C12.0247 10.1213 12.022 10.1366 11.9916 10.1893C11.9734 10.223 11.9544 10.2706 11.9485 10.2941C11.9419 10.3316 11.9322 10.337 11.8896 10.3294C11.7481 10.3045 11.6445 10.4339 11.7107 10.5563C11.7426 10.6146 11.767 10.6259 11.7632 10.5778C11.7617 10.5565 11.7792 10.5367 11.8155 10.5203C11.9153 10.4728 11.9224 10.4723 11.8927 10.511C11.8789 10.5297 11.8621 10.5847 11.8571 10.633C11.8484 10.7123 11.8409 10.7251 11.7931 10.7571C11.7201 10.8022 11.5743 11.0612 11.5969 11.1021C11.6185 11.1393 11.6307 11.1397 11.6994 11.0991C11.758 11.0655 11.7632 11.0664 11.7572 11.1198C11.7565 11.1338 11.7774 11.155 11.8049 11.1686C11.8567 11.1936 11.8567 11.1936 11.8166 11.2217C11.7946 11.2371 11.7798 11.2609 11.7822 11.2771C11.7866 11.292 11.7653 11.3234 11.7363 11.3481C11.683 11.3914 11.6681 11.4363 11.6828 11.5021C11.689 11.5366 11.6907 11.5369 11.7078 11.51C11.7392 11.4611 11.8185 11.4505 11.969 11.4735C12.1609 11.5021 12.1574 11.5015 12.1505 11.5407C12.1472 11.5594 12.1556 11.582 12.1683 11.5895C12.2475 11.6386 12.0672 11.6842 11.9087 11.6562C11.7195 11.6228 11.6753 11.6344 11.5388 11.7509C11.3483 11.9142 11.159 11.981 10.9766 11.9488C10.8846 11.9326 10.8394 11.9 10.8472 11.8557C10.8586 11.7909 10.7523 11.7458 10.6953 11.7902C10.6055 11.8605 10.6815 11.9881 10.7913 11.953C10.8379 11.9384 10.9453 12.0768 10.9072 12.1035C10.8917 12.1113 10.8342 12.1486 10.7769 12.1842L10.6739 12.2504L10.6034 12.1519C10.5652 12.0994 10.4522 11.9829 10.35 11.8945C10.2495 11.8065 10.1376 11.6936 10.1022 11.6452C10.0643 11.5911 10.0369 11.5669 10.0342 11.5823C10.0312 11.5993 10.0123 11.5872 9.97115 11.5413C9.91429 11.475 9.91319 11.4713 9.93694 11.3964C9.95749 11.3297 9.95718 11.3015 9.92538 11.2028C9.90352 11.1374 9.89529 11.0745 9.90371 11.0566C9.91273 11.0354 9.90972 11.0225 9.89608 11.0201C9.85858 11.0135 9.83864 11.0469 9.82211 11.1406C9.80347 11.2463 9.76127 11.2863 9.67133 11.2881C9.56405 11.2885 9.51994 11.2596 9.50278 11.1775C9.49295 11.1336 9.477 11.1044 9.45996 11.1014C9.43439 11.0969 9.43088 11.1068 9.43009 11.1612C9.42889 11.1978 9.4307 11.2474 9.43361 11.2707C9.43693 11.3117 9.43492 11.3131 9.37366 11.2918C9.33907 11.2787 9.29635 11.2518 9.28091 11.2298C9.25734 11.194 9.25744 11.1834 9.2847 11.1285C9.30124 11.0945 9.31868 11.0554 9.32279 11.0421C9.35195 10.9365 9.30573 10.9195 9.25872 11.0167C9.20299 11.1334 9.18956 11.1398 9.14012 11.0714C9.10051 11.0169 9.0971 11.0163 9.09139 11.0487C9.08297 11.0964 9.17082 11.256 9.25506 11.3465C9.29196 11.3864 9.32375 11.4254 9.32254 11.4322C9.32134 11.439 9.27161 11.432 9.21145 11.4143C9.04882 11.3699 9.07019 11.4281 9.24114 11.4952C9.27262 11.506 9.32527 11.5363 9.35635 11.5594C9.43857 11.6214 9.46675 11.621 9.57943 11.5601C9.63577 11.5296 9.6863 11.5121 9.69162 11.5219C9.69864 11.5319 9.74858 11.6374 9.80294 11.7577C9.89491 11.9637 9.90183 11.9842 9.89944 12.1174C9.89666 12.2926 9.88213 12.3252 9.82347 12.2991C9.77925 12.2807 9.77925 12.2807 9.82669 12.3506C9.87833 12.4265 9.92556 12.4577 10.0518 12.4993C10.0952 12.5122 10.162 12.5521 10.1998 12.5869C10.2726 12.6524 10.4364 12.7499 10.491 12.7595C10.5097 12.7628 10.6218 12.7351 10.7428 12.6967C10.8635 12.66 10.9716 12.6351 10.984 12.6443C10.9968 12.6518 11.0124 12.6827 11.0178 12.7118C11.023 12.7426 11.0344 12.7674 11.0395 12.7683C11.0514 12.7704 11.2114 12.7002 11.4547 12.5867C11.5218 12.5546 11.5787 12.5312 11.5815 12.5352C11.5899 12.5473 11.4936 12.7746 11.429 12.8915C11.3815 12.9815 11.3745 13.0014 11.4024 12.9729C11.4216 12.9534 11.4736 12.9081 11.5166 12.8735L11.5926 12.8114L11.6018 12.8587C11.6078 12.8843 11.6071 12.9282 11.6023 12.9554C11.5936 13.0049 11.6087 13.0286 11.7359 13.1547C11.7928 13.2105 11.7975 13.2236 11.7902 13.3049C11.7838 13.3811 11.7933 13.4074 11.8443 13.4867C11.8777 13.5365 11.8953 13.566 11.8818 13.553C11.8595 13.5298 11.8535 13.534 11.8337 13.5867C11.8059 13.6644 11.7428 13.7236 11.6459 13.7645C11.6025 13.7815 11.4694 13.8687 11.3468 13.9561C11.1878 14.0704 11.1097 14.1146 11.069 14.1162C10.9876 14.1194 10.9445 14.0943 10.9533 14.0449C10.9677 13.963 10.8956 13.9134 10.815 13.9519C10.727 13.9927 10.7583 14.1142 10.8572 14.1211C10.897 14.1246 10.9208 14.1393 10.9472 14.1791C11.0272 14.2934 11.1587 14.3148 11.4114 14.2574C11.5708 14.2205 11.5967 14.2233 11.5734 14.2755C11.5644 14.2967 11.5395 14.3679 11.517 14.436C11.4628 14.6039 11.43 14.6702 11.3781 14.7155L11.3345 14.7536L11.2978 14.7119C11.2289 14.6348 11.1095 14.6541 11.0935 14.7445C11.0734 14.8587 11.2378 14.9228 11.3039 14.8272C11.3275 14.7928 11.3421 14.79 11.4239 14.8045C11.4733 14.8132 11.5407 14.8198 11.5726 14.8184C11.6289 14.8178 11.6306 14.8181 11.6083 14.8651C11.5967 14.8912 11.5832 14.9275 11.5765 14.9456C11.5715 14.9641 11.5468 15.0142 11.5231 15.0592C11.4611 15.1713 11.4596 15.2695 11.5231 15.358C11.5498 15.3961 11.57 15.4313 11.5691 15.4364C11.5658 15.4552 11.6342 15.585 11.6951 15.6783C11.7268 15.7278 11.7869 15.8456 11.8295 15.9428C11.8707 16.0379 11.9222 16.1349 11.943 16.1561C11.9656 16.1777 11.9994 16.2153 12.0216 16.2385L12.0597 16.2821L12.0146 16.2883C11.8132 16.3143 11.7038 16.3565 11.837 16.3589C11.909 16.3593 12.0378 16.4259 12.1207 16.5038C12.1645 16.5449 12.1815 16.5778 12.1858 16.633C12.1894 16.6723 12.1962 16.7139 12.1995 16.7251C12.2048 16.7348 12.2066 16.7544 12.2076 16.7687C12.2069 16.7826 12.2175 16.8021 12.2297 16.813C12.2435 16.8242 12.2524 16.8434 12.25 16.857C12.2461 16.8792 12.2723 16.9699 12.333 17.144C12.3599 17.2208 12.3588 17.247 12.3249 17.459C12.2796 17.7357 12.2542 17.7804 12.1218 17.8133L12.0391 17.8339L12.0079 17.7915C11.9481 17.7124 11.8509 17.7251 11.8356 17.8121C11.8191 17.9058 11.9192 17.9656 11.9898 17.9043C12.0251 17.8736 12.0376 17.8723 12.1574 17.9004C12.3837 17.9526 12.5387 17.9009 12.6672 17.7302C12.741 17.6308 12.7587 17.5302 12.735 17.3362C12.7144 17.1638 12.7332 17.067 12.811 16.9647C12.8384 16.9291 12.8604 16.8838 12.8606 16.8627C12.8619 16.8155 12.7796 16.7342 12.7002 16.7062C12.667 16.695 12.6293 16.6796 12.6166 16.6721C12.6041 16.6629 12.5823 16.6572 12.57 16.6568C12.5561 16.6561 12.554 16.6382 12.5623 16.601C12.5732 16.559 12.5694 16.5407 12.546 16.5243C12.5287 16.5125 12.5008 16.4513 12.4841 16.3869C12.4572 16.2802 12.4574 16.2591 12.4907 16.1103L12.5257 15.9513L12.4419 15.998C12.3813 16.033 12.3576 16.0377 12.3535 16.0211C12.3525 16.0069 12.3394 15.9114 12.3293 15.8095C12.2964 15.5277 12.2389 15.3752 12.1205 15.2595C12.0903 15.2313 12.0681 15.1975 12.0705 15.1839C12.0729 15.1702 12.1158 15.1163 12.1642 15.0615C12.2142 15.0071 12.3212 14.8783 12.4024 14.7767C12.6677 14.4385 12.7126 14.4131 12.8443 14.5136C12.8798 14.541 12.948 14.5829 12.9965 14.6072C13.071 14.6432 13.0856 14.6599 13.0886 14.7026C13.0951 14.7652 13.116 14.7865 13.1876 14.7991C13.2541 14.8108 13.3016 14.7806 13.3127 14.7175C13.3274 14.634 13.2316 14.5696 13.1479 14.6058C13.123 14.6172 13.0999 14.6185 13.0977 14.611C13.0938 14.6033 13.0952 14.5456 13.0995 14.4813L13.108 14.3633L13.1592 14.3723C13.1864 14.3771 13.2436 14.3819 13.2871 14.3843L13.3656 14.3876L13.3571 14.5056C13.3508 14.5713 13.3527 14.6999 13.3598 14.7891L13.3728 14.9548L13.3336 14.9479C13.2859 14.9395 13.2018 14.9879 13.1791 15.0366C13.1652 15.0658 13.168 15.0698 13.2118 15.0705C13.2414 15.0722 13.2737 15.0885 13.2987 15.1157C13.3381 15.1613 13.3393 15.1844 13.3082 15.4706C13.3025 15.5329 13.2981 15.6077 13.2998 15.6379C13.3022 15.684 13.2921 15.7016 13.2391 15.7432C13.1717 15.7963 13.0553 15.9779 13.0433 16.0461C13.034 16.0989 13.0768 16.175 13.135 16.2134C13.1778 16.2403 13.1917 16.241 13.2502 16.2179C13.3839 16.1677 13.5339 16.224 13.8194 16.429C13.9471 16.5218 14.0609 16.5542 14.1502 16.526C14.221 16.5033 14.3331 16.4159 14.4285 16.3132C14.4984 16.2359 14.5141 16.2264 14.5484 16.2412C14.6037 16.2667 14.6919 16.205 14.6862 16.1477C14.6711 16.0238 14.4947 16.0278 14.487 16.1513C14.4858 16.188 14.466 16.2003 14.3484 16.2393C14.0741 16.3298 13.9111 16.2676 13.7152 16.0029C13.6132 15.8636 13.6121 15.8599 13.6264 15.7693C13.6334 15.7196 13.6576 15.6219 13.6788 15.5518C13.7072 15.4602 13.7156 15.4124 13.7065 15.3845C13.6891 15.3339 13.7329 15.2749 13.8396 15.2076C13.9287 15.1512 14.0166 15.121 14.0946 15.1172L14.1475 15.116L14.0945 15.068C14.0217 15.0024 13.9529 14.9938 13.8521 15.0375C13.806 15.0593 13.7666 15.0734 13.7655 15.0697C13.7624 15.0674 13.8341 14.8604 13.9221 14.6105C14.0571 14.2336 14.0918 14.1167 14.1283 13.9193C14.1673 13.7082 14.1699 13.6735 14.1485 13.6153C14.0802 13.4345 13.8624 13.3944 13.5131 13.5015C13.45 13.5202 13.4358 13.5212 13.4394 13.5008C13.4418 13.4872 13.4661 13.4686 13.4955 13.4615C13.6045 13.4315 13.5799 13.262 13.4679 13.2791C13.3958 13.2893 13.3702 13.3251 13.384 13.3961C13.3923 13.4486 13.3891 13.4568 13.3484 13.4883C13.2834 13.5383 13.1998 13.5535 13.0925 13.5345C13.0175 13.5213 12.9887 13.525 12.9398 13.5533C12.9066 13.5721 12.8764 13.6036 12.8734 13.6207C12.8698 13.6411 12.8615 13.6485 12.8507 13.6395C12.8248 13.6174 12.8677 13.5037 12.9627 13.3535C13.017 13.2646 13.0574 13.1751 13.081 13.0914L13.1157 12.9639L13.273 13.0391C13.4154 13.1082 13.4623 13.1217 13.8156 13.191C14.0278 13.2337 14.2019 13.2627 14.2034 13.2541C14.2046 13.2473 14.2009 13.2186 14.1969 13.1915C14.1874 13.1459 14.1943 13.1365 14.2942 13.068L14.4036 12.9959L14.3574 12.979L14.3132 12.9607L14.3757 12.875C14.412 12.8287 14.4601 12.7353 14.4824 12.6689C14.5239 12.5532 14.5354 12.5376 14.7404 12.3418C15.0603 12.0326 15.0114 12.0609 15.2115 12.0822C15.4187 12.1029 15.4906 12.0839 15.6642 11.9564C15.8542 11.8159 15.8718 11.7662 15.7087 11.8236L15.6299 11.8519L15.6495 11.8009C15.66 11.7711 15.6716 11.745 15.6756 11.7422C15.69 11.7307 15.659 11.6672 15.6422 11.673C15.6327 11.6766 15.6059 11.7194 15.5832 11.7681C15.5124 11.9103 15.4328 11.9331 15.2614 11.859C15.1636 11.8154 15.1493 11.797 15.19 11.7655C15.2516 11.7149 15.2751 11.6716 15.2627 11.6325C15.2502 11.5934 15.2196 11.5774 15.2145 11.6064C15.2127 11.6166 15.1882 11.6562 15.1602 11.6952C15.1175 11.758 15.0937 11.7732 14.9925 11.7992C14.8835 11.8292 14.8755 11.8349 14.8662 11.8877C14.8523 11.9661 14.7225 12.0944 14.5226 12.2313C14.431 12.2925 14.3717 12.3295 14.3884 12.3149C14.4159 12.2881 14.4142 12.2878 14.3729 12.2928C14.3154 12.3002 14.1724 12.3735 13.9803 12.496L13.8274 12.5956L13.7869 12.5463C13.7653 12.5196 13.6992 12.4658 13.6409 12.4274C13.5389 12.3584 13.513 12.3257 13.5658 12.335C13.5812 12.3377 13.6248 12.3296 13.6656 12.3175C13.7252 12.2981 13.746 12.3 13.7788 12.3234C13.865 12.3825 13.9763 12.2897 13.9227 12.2046C13.8787 12.1354 13.7483 12.1475 13.7354 12.2208C13.7333 12.2327 13.7215 12.2395 13.7113 12.2377C13.6619 12.2289 13.3862 12.1276 13.3384 12.0999L13.2855 12.0712L13.3689 12.0367C13.4674 11.9961 13.5681 11.9136 13.6241 11.8251C13.6553 11.7779 13.6796 11.7593 13.7193 11.754C13.7551 11.7498 13.7829 11.7318 13.7983 11.7047C13.8475 11.6149 13.7256 11.5284 13.6436 11.5948C13.6113 11.619 13.6071 11.6323 13.615 11.6776C13.6256 11.7269 13.621 11.7332 13.5649 11.7619C13.4689 11.8083 13.4476 11.8098 13.1383 11.7693C12.9783 11.7499 12.8214 11.7328 12.7895 11.7342C12.7403 11.7343 12.7276 11.7268 12.692 11.6695C12.6462 11.6 12.6128 11.4904 12.6074 11.4015L12.6028 11.348L12.6413 11.3987C12.6714 11.4374 12.7034 11.4554 12.7823 11.4763C12.8762 11.5017 12.8858 11.5069 12.8937 11.5522C12.9055 11.6246 12.8451 11.6684 12.7665 11.6458L12.7097 11.6287L12.7435 11.6663C12.831 11.7679 13.01 11.6799 13.0037 11.5364C13.0021 11.4852 12.9528 11.4062 12.8943 11.359C12.867 11.3348 12.867 11.3348 12.9116 11.3409C12.9627 11.35 13.074 11.287 13.0812 11.2461C13.0842 11.229 13.0791 11.2281 13.0611 11.2408C12.9909 11.2899 12.8983 11.2068 12.9019 11.0967C12.9051 11.0287 12.908 11.0222 12.9611 11.0105L13.0158 10.999L13.004 10.9266C12.9987 10.887 12.9924 10.8526 12.9927 10.8508C12.9927 10.8508 13.0061 10.855 13.0239 10.8634C13.0517 10.8753 13.124 10.874 13.2112 10.8577C13.2386 10.852 13.2314 10.863 13.1829 10.8984C13.1102 10.9524 13.0948 10.9796 13.1404 10.97C13.1969 10.9589 13.2494 10.9998 13.2704 11.0703C13.2925 11.1445 13.3852 11.2663 13.4244 11.2732C13.4398 11.2759 13.4411 11.2884 13.4303 11.3094C13.4037 11.3609 13.4434 11.4347 13.5013 11.4449C13.5525 11.4539 13.6134 11.4172 13.6212 11.3729C13.6303 11.3218 13.5728 11.2589 13.5179 11.2615C13.4737 11.2626 13.4664 11.2542 13.4545 11.1924C13.4455 11.1539 13.4399 11.0457 13.4411 10.9492C13.442 10.6454 13.4056 10.5827 13.1895 10.5323C13.0308 10.4955 13.0077 10.4668 13.0288 10.3475C13.0387 10.2913 13.0557 10.2644 13.105 10.2239C13.1827 10.162 13.2018 10.1636 13.1898 10.2318C13.1768 10.3051 13.1985 10.3616 13.2317 10.3429C13.2511 10.3323 13.2597 10.3338 13.2658 10.3489C13.2705 10.362 13.2955 10.37 13.3239 10.3679C13.3612 10.3657 13.3901 10.3814 13.4369 10.4248C13.5074 10.4934 13.6456 10.5371 13.7379 10.5218C13.7849 10.5143 13.8 10.5187 13.8202 10.5433C13.8731 10.6124 13.9883 10.587 14.0027 10.5052C14.0204 10.4046 13.8624 10.3539 13.8268 10.4461C13.8015 10.5101 13.7391 10.515 13.6628 10.4593C13.6128 10.4242 13.5963 10.3879 13.5448 10.2118C13.4756 9.9764 13.4619 9.94412 13.4013 9.88949C13.344 9.83545 13.1781 9.80971 12.9842 9.82297C12.9039 9.8299 12.7817 9.83473 12.7129 9.83664L12.5896 9.83776L12.4748 9.7314C12.344 9.6064 12.1942 9.49914 12.1113 9.47047C12.0799 9.45965 12.0224 9.45655 11.9842 9.46387Z" fill="white"/>
</g>
<defs>
<filter id="filter0_d_946_131" x="8.94706" y="9.45996" width="7.01652" height="8.75675" filterUnits="userSpaceOnUse" color-interpolation-filters="sRGB">
<feFlood flood-opacity="0" result="BackgroundImageFix"/>
<feColorMatrix in="SourceAlpha" type="matrix" values="0 0 0 0 0 0 0 0 0 0 0 0 0 0 0 0 0 0 127 0" result="hardAlpha"/>
<feOffset dy="0.143757"/>
<feGaussianBlur stdDeviation="0.0718784"/>
<feComposite in2="hardAlpha" operator="out"/>
<feColorMatrix type="matrix" values="0 0 0 0 0 0 0 0 0 0 0 0 0 0 0 0 0 0 0.25 0"/>
<feBlend mode="normal" in2="BackgroundImageFix" result="effect1_dropShadow_946_131"/>
<feBlend mode="normal" in="SourceGraphic" in2="effect1_dropShadow_946_131" result="shape"/>
</filter>
</defs>
</svg>
