<svg width="108" height="108" viewBox="0 0 108 108" fill="none" xmlns="http://www.w3.org/2000/svg">
<path d="M98.6949 98.6939H8.41992V8.41895H98.6949V98.6939ZM9.37593 97.7369H97.7369V9.37595H9.37593V97.7369Z" fill="#333333"/>
<path d="M9.37601 9.37601H0V0H9.37601V9.37601ZM0.957993 8.41901H8.42V0.957001H0.957993V8.41901Z" fill="#333333"/>
<path d="M107.113 9.37601H97.7363V0H107.113V9.37601ZM98.6943 8.41901H106.157V0.957001H98.6943V8.41901Z" fill="#333333"/>
<path d="M9.37601 107.114H0V97.7368H9.37601V107.114ZM0.957993 106.157H8.42V98.6938H0.957993V106.157Z" fill="#333333"/>
<path d="M107.113 107.114H97.7363V97.7368H107.113V107.114ZM98.6943 106.157H106.157V98.6938H98.6943V106.157Z" fill="#333333"/>
<path d="M6.12489 8.89795H3.25391V98.2159H6.12489V8.89795Z" fill="#333333"/>
<path d="M103.861 8.89795H100.99V98.2159H103.861V8.89795Z" fill="#333333"/>
<path d="M98.2164 3.25293H8.89844V6.12393H98.2164V3.25293Z" fill="#333333"/>
<path d="M98.2164 100.99H8.89844V103.861H98.2164V100.99Z" fill="#333333"/>
<path d="M5.70514 29.7817C5.77314 29.6027 5.94214 29.5427 6.12614 29.5017V28.5097C5.72714 28.3317 4.97214 28.6967 5.07614 29.0077C5.25214 29.0367 5.42814 29.0637 5.61714 29.0937C5.58614 29.3127 5.56314 29.4827 5.54014 29.6527C5.59514 29.6957 5.65014 29.7377 5.70514 29.7817Z" fill="#F2F2F2"/>
<path d="M6.12575 31.6107V31.4317C5.82775 31.3517 5.57775 31.2837 5.34375 31.2217C5.49775 31.6407 5.73275 31.7977 6.12575 31.6107Z" fill="#F2F2F2"/>
<path d="M4.47813 33.1729C4.20313 32.8749 3.89213 33.0949 3.59213 33.1659C3.58713 33.2169 3.58312 33.2689 3.57812 33.3199C3.87212 33.3419 4.16613 33.3649 4.46013 33.3879C4.46613 33.3159 4.47213 33.2449 4.47813 33.1729Z" fill="#F2F2F2"/>
<path d="M9.32288 36.9768C9.05188 36.9218 8.78188 36.8648 8.46088 36.8008C8.44688 36.8888 8.43388 36.9648 8.42188 37.0398V37.2848C8.76287 37.2018 9.04487 37.1338 9.32387 37.0678C9.32387 37.0368 9.32288 37.0068 9.32288 36.9768Z" fill="#F2F2F2"/>
<path d="M27.5176 6.1239H27.6806C27.6626 6.0859 27.6456 6.04891 27.6176 6.00391C27.5846 6.04391 27.5516 6.0839 27.5176 6.1239Z" fill="#F2F2F2"/>
<path d="M3.83789 28.3989C3.83789 28.6359 3.83789 28.8359 3.83789 29.1829C4.27989 28.7219 4.27989 28.7219 3.83789 28.3989Z" fill="#F2F2F2"/>
<path d="M64.9135 4.95296C65.2445 4.95296 65.5744 4.95296 65.9534 4.95296C65.5834 4.41296 65.2334 4.85496 64.8984 4.81896C64.9044 4.86496 64.9095 4.90896 64.9135 4.95296Z" fill="#F2F2F2"/>
<path d="M3.25586 16.0111C3.49686 16.0741 3.73585 16.0171 4.02185 15.8071C3.74485 15.7931 3.50386 15.7801 3.25586 15.7671V16.0111Z" fill="#F2F2F2"/>
<path d="M16.307 5.93999C15.996 5.88399 15.684 5.826 15.372 5.771C15.358 5.836 15.345 5.90299 15.332 5.96799C15.607 6.01999 15.882 6.07199 16.158 6.12399H16.27C16.282 6.06199 16.294 6.00099 16.307 5.93999Z" fill="#F2F2F2"/>
<path d="M6.12569 37.7568C5.97769 37.7568 5.82869 37.7568 5.67969 37.7568C5.68469 37.8288 5.68768 37.9018 5.69168 37.9758C5.83568 37.9658 5.98069 37.9558 6.12469 37.9458L6.12569 37.7568Z" fill="#F2F2F2"/>
<path d="M8.42188 33.4731C8.54388 33.4821 8.66487 33.4911 8.78687 33.5001C8.79187 33.4431 8.79587 33.3841 8.79987 33.3261C8.67487 33.3071 8.54788 33.2871 8.42188 33.2671V33.4731Z" fill="#F2F2F2"/>
<path d="M46.6953 3.52884C46.6953 3.70384 46.6953 3.87983 46.6953 4.05383C46.7543 4.05383 46.8133 4.05383 46.8713 4.05383C46.8803 3.87883 46.8893 3.70383 46.8983 3.52783C46.8313 3.52783 46.7633 3.52784 46.6953 3.52884Z" fill="#F2F2F2"/>
<path d="M54.5996 3.39795C54.6986 3.64995 54.7546 3.79295 54.8556 4.04695C55.2996 3.58595 54.9986 3.53695 54.5996 3.39795Z" fill="#F2F2F2"/>
<path d="M61.9282 4.57373C61.5142 4.61173 61.0992 4.65073 60.6852 4.69173C60.4842 4.69173 60.2852 4.69173 60.0852 4.69173C60.0812 4.75473 60.0782 4.81774 60.0742 4.88074C60.3072 4.89874 60.5412 4.91773 60.7752 4.93573C61.1692 4.89673 61.5642 4.85873 61.9582 4.81973C61.9482 4.73873 61.9382 4.65573 61.9282 4.57373Z" fill="#F2F2F2"/>
<path d="M56.2352 4.59572C56.4952 4.59572 56.7552 4.59572 57.0152 4.59572C56.7452 4.35872 56.4772 4.11472 56.1952 4.53772C56.0712 4.55172 55.9482 4.56671 55.8242 4.57971C55.8462 4.63371 55.8682 4.68872 55.8902 4.74472C56.0052 4.69472 56.1202 4.64472 56.2352 4.59572Z" fill="#F2F2F2"/>
<path d="M34.498 3.6179C34.553 3.6619 34.6091 3.7059 34.6661 3.7509C34.7851 3.6309 34.9041 3.5099 35.0231 3.3889C34.9671 3.3439 34.91 3.29891 34.854 3.25391H34.8481C34.7321 3.37391 34.615 3.4959 34.498 3.6179Z" fill="#F2F2F2"/>
<path d="M58.4395 6.12405H58.6935C58.7855 6.02605 58.8784 5.92905 58.9704 5.83105C58.9024 5.78205 58.8334 5.73406 58.7664 5.68506C58.6564 5.83106 58.5475 5.97705 58.4395 6.12405Z" fill="#F2F2F2"/>
<path d="M4.06023 22.8728C4.00023 22.7028 3.94022 22.5328 3.88022 22.3618C3.82022 22.3768 3.76022 22.3918 3.69922 22.4068C3.72722 22.5798 3.75423 22.7528 3.78023 22.9268C3.87423 22.9078 3.96723 22.8898 4.06023 22.8728Z" fill="#F2F2F2"/>
<path d="M45.6956 3.37305C45.5676 3.43605 45.4386 3.49906 45.3086 3.56206C45.3416 3.61606 45.3746 3.66905 45.4066 3.72205C45.5346 3.65805 45.6626 3.59405 45.7906 3.52805C45.7586 3.47805 45.7276 3.42405 45.6956 3.37305Z" fill="#F2F2F2"/>
<path d="M7.38652 0.149902C7.37452 0.215902 7.36452 0.2819 7.35352 0.3479C7.55652 0.3479 7.75852 0.3479 7.96252 0.3479C7.96652 0.3159 7.97152 0.283907 7.97552 0.251907C7.77952 0.218907 7.58252 0.183902 7.38652 0.149902Z" fill="#F2F2F2"/>
<path d="M8.62688 34.6457C8.63988 34.5517 8.65388 34.4587 8.66788 34.3657C8.58588 34.3757 8.50388 34.3847 8.42188 34.3947V34.5967C8.46587 34.6057 8.50887 34.6147 8.55287 34.6247C8.51087 34.6767 8.46887 34.7307 8.42188 34.7897V35.0267C8.75488 35.0357 8.92188 34.9947 8.62688 34.6457Z" fill="#F2F2F2"/>
<path d="M6.02806 24.3867C6.06106 24.3837 6.09405 24.3807 6.12605 24.3777V24.1807C6.08305 24.1807 6.04105 24.1807 5.99805 24.1807C6.00805 24.2497 6.01906 24.3187 6.02806 24.3867Z" fill="#F2F2F2"/>
<path d="M6.12538 41.0847V41.0547C6.12038 41.0607 6.11538 41.0677 6.10938 41.0737C6.11538 41.0777 6.12038 41.0807 6.12538 41.0847Z" fill="#F2F2F2"/>
<path d="M8.42188 14.078V14.28C8.47588 14.244 8.52988 14.209 8.58388 14.173C8.54888 14.129 8.51387 14.086 8.47787 14.042C8.45887 14.054 8.44087 14.066 8.42188 14.078Z" fill="#F2F2F2"/>
<path d="M5.05621 38.8149C4.93821 38.8709 4.81822 38.9289 4.69922 38.9859C4.72522 39.0279 4.75121 39.0699 4.77621 39.1119C4.89321 39.0509 5.01122 38.9919 5.12822 38.9319C5.10422 38.8919 5.08021 38.8529 5.05621 38.8149Z" fill="#F2F2F2"/>
<path d="M8.65887 8.15474C8.57987 8.07174 8.50088 7.98974 8.42188 7.90674V8.12573C8.45987 8.16673 8.49687 8.20873 8.53487 8.24973C8.57587 8.21773 8.61787 8.18674 8.65887 8.15474Z" fill="#F2F2F2"/>
<path d="M36.942 3.33083C36.878 3.32783 36.814 3.32382 36.75 3.31982C36.757 3.43582 36.765 3.55282 36.772 3.66782C36.818 3.66682 36.865 3.66683 36.911 3.66483C36.921 3.55483 36.932 3.44283 36.942 3.33083Z" fill="#F2F2F2"/>
<path d="M65.524 3.70166C65.406 3.72566 65.286 3.75066 65.168 3.77266C65.19 3.83466 65.211 3.89465 65.233 3.95665C65.345 3.91265 65.456 3.87066 65.568 3.82666C65.553 3.78666 65.539 3.74366 65.524 3.70166Z" fill="#F2F2F2"/>
<path d="M63.3864 4.58887C63.3344 4.61387 63.2834 4.63986 63.2324 4.66586C63.2984 4.77386 63.3644 4.88187 63.4304 4.98987C63.4834 4.96387 63.5354 4.93587 63.5874 4.90887C63.5194 4.80287 63.4524 4.69587 63.3864 4.58887Z" fill="#F2F2F2"/>
<path d="M67.9528 5.66309C67.9028 5.67809 67.8528 5.69408 67.8008 5.70908C67.8468 5.82708 67.8918 5.94608 67.9378 6.06508C67.9828 6.05108 68.0268 6.03809 68.0718 6.02509C68.0318 5.90309 67.9928 5.78309 67.9528 5.66309Z" fill="#F2F2F2"/>
<path d="M9.00407 31.2817C8.91707 31.3527 8.83007 31.4217 8.74207 31.4917C8.71607 31.6787 8.69006 31.8667 8.66406 32.0537C8.74306 32.0487 8.82107 32.0427 8.90007 32.0377C8.86507 31.8747 8.83207 31.7127 8.79707 31.5497C8.89607 31.4977 8.99507 31.4447 9.09407 31.3927C9.06407 31.3557 9.03407 31.3187 9.00407 31.2817Z" fill="#F2F2F2"/>
<path d="M9.222 22.974C9.275 22.93 9.327 22.887 9.38 22.843V22.625C9.295 22.713 9.21 22.801 9.125 22.889C9.158 22.917 9.19 22.946 9.222 22.974Z" fill="#F2F2F2"/>
<path d="M5.1875 22.1809C5.2975 22.1809 5.4065 22.1809 5.5175 22.1809C5.5175 22.1439 5.5175 22.1049 5.5175 22.0659C5.4075 22.0659 5.2975 22.0659 5.1875 22.0659C5.1875 22.1049 5.1875 22.1439 5.1875 22.1809Z" fill="#F2F2F2"/>
<path d="M4.38086 22.0048C4.43286 22.0458 4.48585 22.0858 4.53885 22.1248C4.61085 22.0278 4.68286 21.9328 4.75586 21.8358C4.71486 21.8088 4.67586 21.7838 4.63486 21.7568C4.54986 21.8398 4.46586 21.9228 4.38086 22.0048Z" fill="#F2F2F2"/>
<path d="M5.37695 14.5467C5.39295 14.5927 5.40995 14.6367 5.42595 14.6817C5.54995 14.6467 5.67396 14.6117 5.79796 14.5767C5.78096 14.5277 5.76296 14.4797 5.74596 14.4307C5.62296 14.4687 5.49995 14.5077 5.37695 14.5467Z" fill="#F2F2F2"/>
<path d="M35.7764 6.05186C35.7624 6.01586 35.7474 5.97987 35.7334 5.94287C35.6074 5.97987 35.4824 6.01787 35.3574 6.05687C35.3654 6.07987 35.3744 6.10186 35.3834 6.12486H35.5744C35.6414 6.09986 35.7084 6.07586 35.7764 6.05186Z" fill="#F2F2F2"/>
<path d="M57.5339 4.65283C57.4679 4.72083 57.4029 4.78983 57.3379 4.85783C57.3729 4.88683 57.4069 4.91384 57.4409 4.94084C57.5049 4.87184 57.5679 4.80283 57.6319 4.73283C57.5989 4.70583 57.5669 4.67883 57.5339 4.65283Z" fill="#F2F2F2"/>
<path d="M29.9771 9.07693C30.0271 9.03093 30.0771 8.98493 30.1281 8.94093C30.0341 8.86393 29.9401 8.78694 29.8461 8.71094C29.8131 8.73894 29.7801 8.76594 29.7461 8.79494C29.8241 8.88794 29.9001 8.98293 29.9771 9.07693Z" fill="#F2F2F2"/>
<path d="M42.9044 8.85999C42.9354 8.76399 42.9664 8.66999 42.9964 8.57599C42.9564 8.56399 42.9164 8.55299 42.8764 8.54199C42.8424 8.63599 42.8094 8.729 42.7754 8.823C42.8194 8.836 42.8614 8.84799 42.9044 8.85999Z" fill="#F2F2F2"/>
<path d="M15.6191 9.37582H15.9351C15.8681 9.32282 15.8001 9.26882 15.7331 9.21582C15.6951 9.26982 15.6571 9.32282 15.6191 9.37582Z" fill="#F2F2F2"/>
<path d="M3.45586 28.1177C3.38886 28.1237 3.32286 28.1297 3.25586 28.1357V28.2457C3.32686 28.2387 3.39786 28.2307 3.46886 28.2237C3.46386 28.1877 3.45986 28.1517 3.45586 28.1177Z" fill="#F2F2F2"/>
<path d="M5.1003 27.9899C5.0713 27.9659 5.04129 27.9419 5.01129 27.9189C4.93429 27.9759 4.8563 28.033 4.7793 28.09C4.8273 28.131 4.87329 28.1719 4.92029 28.2119C4.98129 28.1369 5.0413 28.0629 5.1003 27.9899Z" fill="#F2F2F2"/>
<path d="M55.5392 3.87289C55.5362 3.91689 55.6102 3.9889 55.6632 4.0019C55.7052 4.0119 55.7682 3.94889 55.9492 3.84689C55.8142 3.79789 55.7432 3.74889 55.6772 3.75489C55.6232 3.75889 55.5432 3.82789 55.5392 3.87289Z" fill="#F2F2F2"/>
<path d="M5.44777 32.3648C5.36977 32.3328 5.29377 32.2817 5.21277 32.2757C5.14777 32.2707 5.07777 32.3198 5.00977 32.3458C5.01777 32.3758 5.02676 32.4047 5.03476 32.4357C5.16576 32.4357 5.29576 32.4357 5.42676 32.4357C5.43376 32.4127 5.44077 32.3888 5.44777 32.3648Z" fill="#F2F2F2"/>
<path d="M3.90634 21.442C3.89934 21.383 3.89434 21.326 3.88834 21.269C3.76734 21.289 3.64834 21.309 3.52734 21.332C3.53134 21.369 3.53433 21.405 3.53633 21.443C3.65933 21.442 3.78334 21.442 3.90634 21.442Z" fill="#F2F2F2"/>
<path d="M3.70872 20.5591C3.60172 20.5871 3.49472 20.6141 3.38672 20.6411C3.39872 20.6781 3.40872 20.7141 3.41972 20.7511C3.52672 20.7281 3.63472 20.7031 3.74272 20.6791C3.73072 20.6401 3.71972 20.5991 3.70872 20.5591Z" fill="#F2F2F2"/>
<path d="M5.6875 16.4747C5.7045 16.5057 5.72049 16.5367 5.73849 16.5667C5.85849 16.5277 5.9775 16.4867 6.0975 16.4477C6.0705 16.3997 6.0445 16.3517 6.0175 16.3037C5.9065 16.3617 5.7965 16.4177 5.6875 16.4747Z" fill="#F2F2F2"/>
<path d="M4.03531 23.3489C4.00131 23.3219 3.96731 23.2749 3.93431 23.2759C3.89531 23.2769 3.85831 23.3199 3.82031 23.3439C3.86531 23.3779 3.90932 23.4129 3.95432 23.4469C3.98132 23.4139 4.00831 23.3819 4.03531 23.3489Z" fill="#F2F2F2"/>
<path d="M9.31123 39.2579C9.33423 39.2409 9.35624 39.2249 9.37924 39.2089V39.0669C9.33324 39.0889 9.28623 39.1109 9.24023 39.1319C9.26423 39.1729 9.28723 39.2149 9.31123 39.2579Z" fill="#F2F2F2"/>
<path d="M6.08223 40.574C6.04323 40.554 6.00223 40.513 5.96623 40.518C5.93023 40.522 5.89923 40.569 5.86523 40.597C5.91523 40.626 5.96523 40.653 6.01523 40.682C6.03723 40.645 6.06023 40.61 6.08223 40.574Z" fill="#F2F2F2"/>
<path d="M4.08128 41.2048C3.99728 41.1738 3.91329 41.1418 3.82829 41.1118C3.81229 41.1488 3.7953 41.1888 3.7793 41.2268C3.8643 41.2548 3.95029 41.2828 4.03629 41.3118C4.05229 41.2758 4.06628 41.2398 4.08128 41.2048Z" fill="#F2F2F2"/>
<path d="M8.42188 30.8909V31.3319C8.43788 31.1959 8.45388 31.0619 8.47588 30.8779C8.45488 30.8829 8.44187 30.8859 8.42188 30.8909Z" fill="#F2F2F2"/>
<path d="M4.66219 36.7148C4.60519 36.7848 4.54919 36.8568 4.49219 36.9278C4.52519 36.9488 4.55819 36.9698 4.59119 36.9918C4.64819 36.9228 4.7062 36.8538 4.7632 36.7828C4.7292 36.7588 4.69619 36.7368 4.66219 36.7148Z" fill="#F2F2F2"/>
<path d="M5.9967 13.1517C6.0397 13.1437 6.08271 13.1336 6.12671 13.1246V13.0146C6.07471 13.0276 6.0227 13.0417 5.9707 13.0547C5.9787 13.0877 5.9877 13.1197 5.9967 13.1517Z" fill="#F2F2F2"/>
<path d="M5.71387 20.6359C5.79487 20.5879 5.87586 20.5419 5.95786 20.4959C5.93986 20.4639 5.92187 20.4319 5.90387 20.3999C5.81287 20.4329 5.72186 20.4669 5.63086 20.5009C5.65786 20.5459 5.68587 20.5919 5.71387 20.6359Z" fill="#F2F2F2"/>
<path d="M4.74799 21.2539C4.69999 21.2869 4.64499 21.3139 4.61099 21.3549C4.59999 21.3689 4.648 21.4199 4.668 21.4549C4.721 21.4269 4.77299 21.4009 4.82599 21.3729C4.79199 21.3189 4.76999 21.2869 4.74799 21.2539Z" fill="#F2F2F2"/>
<path d="M5.87695 19.3637C5.95995 19.3737 6.04295 19.3827 6.12595 19.3927V19.2857C6.04695 19.2777 5.96895 19.2697 5.88995 19.2617C5.88595 19.2957 5.88095 19.3297 5.87695 19.3637Z" fill="#F2F2F2"/>
<path d="M4.37756 19.4477C4.33956 19.4257 4.29156 19.3767 4.26656 19.3847C4.20556 19.4047 4.15556 19.4517 4.10156 19.4877C4.18456 19.5057 4.26956 19.5237 4.35356 19.5417C4.36156 19.5097 4.36856 19.4797 4.37756 19.4477Z" fill="#F2F2F2"/>
<path d="M0.375073 0.372025C0.330073 0.338025 0.285071 0.30402 0.241071 0.27002C0.214071 0.30302 0.164074 0.336027 0.166074 0.368027C0.168074 0.396027 0.226068 0.421021 0.260068 0.447021C0.300068 0.423021 0.337073 0.398025 0.375073 0.372025Z" fill="#F2F2F2"/>
<path d="M5.8902 0.889648C5.7982 0.903648 5.70819 0.916657 5.61719 0.929657C5.61819 0.938657 5.61919 0.94765 5.62019 0.95665H5.8902C5.8892 0.93465 5.8892 0.911648 5.8902 0.889648Z" fill="#F2F2F2"/>
<path d="M61.273 8.62885C61.323 8.60985 61.362 8.56184 61.412 8.52184C61.351 8.48784 61.2931 8.44285 61.2811 8.45185C61.2351 8.48485 61.2021 8.53384 61.1641 8.57584C61.2011 8.59584 61.249 8.63785 61.273 8.62885Z" fill="#F2F2F2"/>
<path d="M68.5656 8.56091C68.5706 8.52491 68.5766 8.48792 68.5816 8.44992C68.4816 8.43992 68.3826 8.43092 68.2826 8.41992C68.2776 8.45192 68.2726 8.48491 68.2676 8.51791C68.3676 8.53291 68.4666 8.54791 68.5656 8.56091Z" fill="#F2F2F2"/>
<path d="M43.5085 9.03677C43.5225 9.04677 43.5805 9.00478 43.6175 8.98578C43.5875 8.93778 43.5575 8.89177 43.5275 8.84277C43.4705 8.87477 43.4335 8.89477 43.3965 8.91377C43.4335 8.95677 43.4635 9.00677 43.5085 9.03677Z" fill="#F2F2F2"/>
<path d="M17.8438 3.77588C17.8298 3.82188 17.8148 3.86688 17.8008 3.91188C17.8848 3.93388 17.9698 3.95789 18.0538 3.97989C18.0608 3.94189 18.0858 3.87588 18.0718 3.86688C18.0018 3.82888 17.9208 3.80488 17.8438 3.77588Z" fill="#F2F2F2"/>
<path d="M53.4773 4.51076C53.4383 4.51176 53.4013 4.55277 53.3633 4.57877C53.4083 4.61277 53.4523 4.64776 53.4973 4.68176C53.5233 4.64876 53.5513 4.61576 53.5783 4.58276C53.5443 4.55776 53.5103 4.50976 53.4773 4.51076Z" fill="#F2F2F2"/>
<path d="M0.600296 4.83765C0.581296 4.79965 0.561297 4.76263 0.542297 4.72363C0.496297 4.75463 0.450297 4.78664 0.404297 4.81764C0.435297 4.84664 0.461291 4.89564 0.498291 4.90164C0.526291 4.90864 0.565296 4.86165 0.600296 4.83765Z" fill="#F2F2F2"/>
<path d="M37.8521 4.7539C37.8291 4.7439 37.7811 4.78789 37.7441 4.80689C37.7821 4.84889 37.8141 4.89789 37.8611 4.93089C37.8731 4.93889 37.9301 4.8949 37.9911 4.8609C37.9411 4.8189 37.9021 4.7739 37.8521 4.7539Z" fill="#F2F2F2"/>
<path d="M19.2428 4.84668C19.2068 4.88668 19.1708 4.92868 19.1348 4.96968C19.2238 5.00968 19.3128 5.05068 19.4018 5.09068C19.4228 5.06168 19.4438 5.03269 19.4638 5.00269C19.3908 4.94969 19.3168 4.89768 19.2428 4.84668Z" fill="#F2F2F2"/>
<path d="M21.5712 5.09473C21.4752 5.11973 21.3792 5.14372 21.2832 5.16772C21.2932 5.19972 21.3032 5.23272 21.3122 5.26472C21.4092 5.24472 21.5042 5.22573 21.6022 5.20573C21.5912 5.16873 21.5812 5.13273 21.5712 5.09473Z" fill="#F2F2F2"/>
<path d="M98.6966 38.2159V37.8149C98.5116 37.8909 98.3406 37.9599 98.1426 38.0409C98.3926 38.1449 98.5996 38.2819 98.6506 38.2439C98.6656 38.2329 98.6816 38.2259 98.6966 38.2159Z" fill="#F2F2F2"/>
<path d="M97.7559 35.7798C97.7799 35.8658 97.8049 35.9527 97.8289 36.0387C98.0349 35.9977 98.2419 35.9567 98.4479 35.9157C98.4189 35.8147 98.3909 35.7147 98.3629 35.6147C98.1609 35.6687 97.9589 35.7238 97.7559 35.7798Z" fill="#F2F2F2"/>
<path d="M101.695 39.6458C101.461 39.6068 101.226 39.5688 100.992 39.5298V39.7778C101.213 39.8088 101.435 39.8398 101.656 39.8708C101.669 39.7948 101.682 39.7208 101.695 39.6458Z" fill="#F2F2F2"/>
<path d="M69.0277 4.91206C68.6827 4.85106 68.4217 4.80607 68.0957 4.74707C68.4277 5.29007 68.4277 5.29006 69.0277 4.91206Z" fill="#F2F2F2"/>
<path d="M71.5898 8.77992C71.5968 8.70392 71.6038 8.62691 71.6108 8.54991C71.3078 8.52791 71.0038 8.50491 70.6998 8.48291C70.6918 8.56191 70.6838 8.64192 70.6758 8.72092C70.9798 8.74092 71.2858 8.76092 71.5898 8.77992Z" fill="#F2F2F2"/>
<path d="M97.7402 9.99368C97.7822 9.99568 97.8242 9.99869 97.8672 10.0007C97.8702 9.93969 97.8742 9.87969 97.8782 9.81969C97.8322 9.81469 97.7862 9.80969 97.7412 9.80469V9.99368H97.7402Z" fill="#F2F2F2"/>
<path d="M69.4684 9.09161C69.7274 8.94561 69.9874 8.80061 70.2464 8.65561C70.2044 8.59461 70.1614 8.53561 70.1194 8.47461C69.8654 8.62661 69.6114 8.7786 69.3574 8.9306C69.3944 8.9856 69.4314 9.03861 69.4684 9.09161Z" fill="#F2F2F2"/>
<path d="M88.6488 8.41895H88.2988C88.3168 8.45995 88.3359 8.49994 88.3539 8.54094C88.4519 8.50094 88.5508 8.45995 88.6488 8.41895Z" fill="#F2F2F2"/>
<path d="M100.992 27.3647V27.5417C101.071 27.5377 101.149 27.5338 101.228 27.5298C101.226 27.4748 101.224 27.4207 101.222 27.3647C101.145 27.3647 101.068 27.3647 100.992 27.3647Z" fill="#F2F2F2"/>
<path d="M98.5331 37.2796C98.5171 37.0946 98.501 36.9086 98.484 36.7236C98.419 36.7266 98.3541 36.7296 98.2891 36.7346C98.2891 36.9186 98.2891 37.1036 98.2891 37.2876C98.3701 37.2846 98.4521 37.2826 98.5331 37.2796Z" fill="#F2F2F2"/>
<path d="M106.198 0.0268555C106.087 0.178855 105.976 0.330849 105.865 0.482849C105.924 0.516849 105.983 0.549854 106.041 0.584854C106.145 0.427854 106.248 0.271853 106.351 0.114853C106.3 0.0858529 106.249 0.0568555 106.198 0.0268555Z" fill="#F2F2F2"/>
<path d="M103.341 35.4608C103.318 35.4008 103.293 35.3418 103.269 35.2808C103.145 35.3138 103.019 35.3468 102.895 35.3788C102.922 35.4548 102.948 35.5318 102.975 35.6078C103.098 35.5598 103.22 35.5108 103.341 35.4608Z" fill="#F2F2F2"/>
<path d="M104.898 8.90376C105.019 8.86976 105.141 8.83577 105.262 8.80077C105.251 8.75177 105.241 8.70376 105.23 8.65576C105.101 8.66776 104.971 8.67876 104.842 8.69276C104.861 8.76276 104.88 8.83276 104.898 8.90376Z" fill="#F2F2F2"/>
<path d="M102.016 14.519C102.138 14.486 102.26 14.453 102.382 14.42C102.373 14.371 102.365 14.3219 102.357 14.2729C102.271 14.2769 102.176 14.2639 102.101 14.2929C102.039 14.3159 102 14.3899 101.951 14.4419C101.972 14.4679 101.994 14.494 102.016 14.519Z" fill="#F2F2F2"/>
<path d="M97.8496 26.9919C97.8986 27.0079 97.9466 27.0239 97.9956 27.0399C98.0476 26.9539 98.0986 26.8689 98.1496 26.7829C98.0866 26.7519 98.0236 26.7209 97.9606 26.6909C97.9236 26.7899 97.8866 26.8909 97.8496 26.9919Z" fill="#F2F2F2"/>
<path d="M103.533 10.1456C103.553 10.1846 103.572 10.2246 103.592 10.2636C103.682 10.2226 103.773 10.1816 103.864 10.1416V10.1196C103.85 10.0916 103.835 10.0636 103.821 10.0356C103.725 10.0706 103.628 10.1086 103.533 10.1456Z" fill="#F2F2F2"/>
<path d="M102.271 9.08789C102.215 9.15589 102.138 9.20988 102.147 9.24788C102.158 9.30088 102.235 9.34189 102.284 9.38689C102.332 9.34289 102.419 9.29988 102.417 9.25888C102.414 9.20988 102.338 9.16189 102.271 9.08789Z" fill="#F2F2F2"/>
<path d="M103.597 11.6988C103.495 11.7258 103.393 11.7518 103.291 11.7778C103.154 11.7088 103.018 11.6398 102.881 11.5708C102.859 11.6248 102.838 11.6778 102.816 11.7318C102.961 11.7658 103.107 11.7998 103.252 11.8318C103.382 11.8478 103.51 11.8628 103.639 11.8788C103.626 11.8168 103.611 11.7578 103.597 11.6988Z" fill="#F2F2F2"/>
<path d="M72.7246 3.79492C72.7246 3.82192 72.7246 3.84891 72.7246 3.87791C72.8756 3.87791 73.0266 3.87791 73.1776 3.87791C73.1776 3.84891 73.1776 3.82292 73.1776 3.79492C73.0266 3.79492 72.8756 3.79492 72.7246 3.79492Z" fill="#F2F2F2"/>
<path d="M97.8982 28.6279C97.8452 28.6339 97.7932 28.6389 97.7402 28.6449V28.7549C97.7972 28.7499 97.8542 28.7449 97.9112 28.7389C97.9072 28.7019 97.9032 28.6649 97.8982 28.6279Z" fill="#F2F2F2"/>
<path d="M102.623 40.0716C102.684 40.0686 102.745 40.0646 102.806 40.0606C102.783 39.9706 102.76 39.8776 102.737 39.7866C102.699 39.7916 102.661 39.7976 102.623 39.8026C102.623 39.8926 102.623 39.9816 102.623 40.0716Z" fill="#F2F2F2"/>
<path d="M98.6976 39.5559C98.6906 39.5379 98.6826 39.5209 98.6756 39.5039C98.5926 39.5159 98.4976 39.5099 98.4306 39.5449C98.3736 39.5759 98.3476 39.6559 98.3066 39.7129C98.3326 39.7339 98.3596 39.7559 98.3846 39.7779C98.4886 39.7199 98.5926 39.6619 98.6966 39.6049V39.5559H98.6976Z" fill="#F2F2F2"/>
<path d="M98.4826 41.9509C98.4496 41.9239 98.4166 41.8779 98.3836 41.8779C98.3446 41.8779 98.3046 41.9179 98.2656 41.9409C98.3096 41.9769 98.3546 42.0119 98.3976 42.0479C98.4266 42.0159 98.4546 41.9829 98.4826 41.9509Z" fill="#F2F2F2"/>
<path d="M101.579 42.0171C101.525 42.0471 101.471 42.0751 101.418 42.1051C101.451 42.1311 101.483 42.1581 101.518 42.1871C101.55 42.1701 101.608 42.1561 101.625 42.1241C101.637 42.1011 101.596 42.0541 101.579 42.0171Z" fill="#F2F2F2"/>
<path d="M102.406 42.1326C102.329 42.0796 102.251 42.0266 102.174 41.9736C102.109 42.0556 102.045 42.1376 101.98 42.2186C102.059 42.2386 102.137 42.2586 102.215 42.2796C102.319 42.3106 102.424 42.3416 102.528 42.3716C102.488 42.2926 102.447 42.2126 102.406 42.1326Z" fill="#F2F2F2"/>
<path d="M98.0851 30.9636C98.0511 30.9366 98.0171 30.8896 97.9841 30.8906C97.9451 30.8906 97.9081 30.9336 97.8691 30.9586C97.9141 30.9926 97.9592 31.0276 98.0042 31.0606C98.0312 31.0286 98.0581 30.9966 98.0851 30.9636Z" fill="#F2F2F2"/>
<path d="M102.649 37.0058C102.712 37.0538 102.782 37.0948 102.851 37.1368C102.88 37.0908 102.91 37.0468 102.939 37.0008C102.866 36.9688 102.795 36.9318 102.719 36.9108C102.707 36.9068 102.645 37.0008 102.649 37.0058Z" fill="#F2F2F2"/>
<path d="M97.8633 11.1938C97.8923 11.2418 97.9213 11.2878 97.9503 11.3368C98.0093 11.3048 98.0453 11.2868 98.0833 11.2678C98.0473 11.2238 98.0183 11.1749 97.9733 11.1439C97.9573 11.1349 97.9003 11.1758 97.8633 11.1938Z" fill="#F2F2F2"/>
<path d="M72.0234 8.77293C72.0274 8.82393 72.0324 8.87493 72.0364 8.92593C72.2004 8.89593 72.3644 8.86794 72.5284 8.83794C72.6934 8.81294 72.8605 8.78792 73.0265 8.76492C73.0105 8.71892 72.9924 8.67293 72.9764 8.62793C72.8194 8.68393 72.6624 8.74094 72.5064 8.79694C72.3444 8.78894 72.1834 8.78193 72.0234 8.77293Z" fill="#F2F2F2"/>
<path d="M74.8373 9.30796C74.8613 9.27496 74.8854 9.24296 74.9094 9.21096C74.8734 9.18296 74.8403 9.13696 74.8023 9.13296C74.7673 9.12996 74.7294 9.17496 74.6934 9.19996C74.7414 9.23496 74.7893 9.27096 74.8373 9.30796Z" fill="#F2F2F2"/>
<path d="M94.7051 5.08789C94.6771 5.11289 94.6481 5.13589 94.6191 5.15889C94.6751 5.22889 94.7322 5.29689 94.7892 5.36589C94.8342 5.33089 94.8782 5.29588 94.9232 5.26088C94.8502 5.20288 94.7771 5.14489 94.7051 5.08789Z" fill="#F2F2F2"/>
<path d="M8.42188 89.1548V89.2958C8.51788 89.3118 8.61288 89.3288 8.70888 89.3448C8.61588 89.2668 8.51788 89.2158 8.42188 89.1548Z" fill="#F2F2F2"/>
<path d="M19.4431 97.8098C19.4161 97.7798 19.3901 97.7628 19.3631 97.7368H18.4941C18.7201 98.0868 18.9911 98.1748 19.4431 97.8098Z" fill="#F2F2F2"/>
<path d="M9.37906 78.7666C9.25506 78.8256 9.13105 78.8816 8.99805 78.9716C9.13105 78.9616 9.25206 78.9516 9.37906 78.9416V78.7666Z" fill="#F2F2F2"/>
<path d="M48.1787 97.7368H47.6687C47.5607 97.7698 47.4537 97.8028 47.3457 97.8368C47.7397 98.1018 48.0087 98.0478 48.1787 97.7368Z" fill="#F2F2F2"/>
<path d="M37.4497 98.2549C37.4007 98.2999 37.3527 98.3439 37.3047 98.3889C37.3227 98.4909 37.3397 98.5919 37.3567 98.6939H37.7687C37.7907 98.6319 37.8177 98.5689 37.8217 98.5059C37.8267 98.4299 37.5817 98.3399 37.4497 98.2549Z" fill="#F2F2F2"/>
<path d="M6.12556 75.8589V75.6069C6.07656 75.6239 6.02656 75.641 5.97656 75.658C6.00856 75.729 6.04056 75.8019 6.07356 75.8749C6.09156 75.8689 6.10856 75.8639 6.12556 75.8589Z" fill="#F2F2F2"/>
<path d="M15.2773 100.99C15.6133 101.245 15.7163 101.254 15.9253 100.99H15.2773Z" fill="#F2F2F2"/>
<path d="M3.96902 56.8401C3.96502 56.8891 3.96103 56.9381 3.95703 56.9871C4.32003 56.9871 4.68203 56.9871 5.07103 56.9871C4.73703 56.4141 4.32602 56.8931 3.96902 56.8401Z" fill="#F2F2F2"/>
<path d="M5.55314 94.1858C5.40514 93.8038 5.30214 93.5418 5.19914 93.2798C5.01014 93.6308 4.94314 93.9448 5.55314 94.1858Z" fill="#F2F2F2"/>
<path d="M8.42188 67.5979C8.56687 67.5289 8.71187 67.4599 8.85587 67.3899C8.82787 67.3309 8.80086 67.2709 8.77386 67.2119C8.65686 67.2509 8.53887 67.2909 8.42188 67.3299V67.5979Z" fill="#F2F2F2"/>
<path d="M3.71286 77.0156C3.52186 77.1256 3.38886 77.2026 3.25586 77.2796V77.5246C3.33486 77.5806 3.41487 77.6376 3.52887 77.7186C3.59387 77.4716 3.63486 77.3156 3.71286 77.0156Z" fill="#F2F2F2"/>
<path d="M3.54385 74.641C3.44785 74.629 3.35186 74.617 3.25586 74.606V74.7849C3.34286 74.7969 3.42986 74.81 3.51686 74.822C3.52586 74.761 3.53385 74.702 3.54385 74.641Z" fill="#F2F2F2"/>
<path d="M8.96088 93.8386C8.90588 93.7866 8.85287 93.7356 8.79787 93.6826C8.67287 93.7906 8.54688 93.8976 8.42188 94.0056V94.1296C8.44888 94.1556 8.47587 94.1816 8.50287 94.2086C8.65587 94.0856 8.80788 93.9626 8.96088 93.8386Z" fill="#F2F2F2"/>
<path d="M3.66185 54.0728C3.52585 54.1138 3.39086 54.1547 3.25586 54.1967V54.4427C3.41786 54.4047 3.57985 54.3668 3.74185 54.3288C3.71485 54.2428 3.68885 54.1578 3.66185 54.0728Z" fill="#F2F2F2"/>
<path d="M8.50787 47.7329C8.47887 47.7049 8.45087 47.6779 8.42188 47.6499V47.7489C8.43388 47.7559 8.44688 47.7639 8.45888 47.7709C8.50888 47.8899 8.55887 48.0079 8.62787 48.1709C8.85887 48.0599 9.04288 47.9699 9.36188 47.8159C8.97688 47.7789 8.74187 47.7569 8.50787 47.7329Z" fill="#F2F2F2"/>
<path d="M58.3749 101.941C58.3999 101.883 58.4249 101.825 58.4499 101.767C58.2659 101.695 58.0819 101.623 57.8979 101.55C57.8769 101.624 57.8569 101.698 57.8359 101.772C58.0159 101.828 58.1959 101.884 58.3749 101.941Z" fill="#F2F2F2"/>
<path d="M3.85187 93.4809C3.82987 93.4199 3.80886 93.3569 3.78586 93.2949C3.60886 93.3389 3.43286 93.3829 3.25586 93.4269V93.6089C3.26286 93.6269 3.26886 93.6449 3.27586 93.6629C3.46686 93.6019 3.65987 93.5419 3.85187 93.4809Z" fill="#F2F2F2"/>
<path d="M66.0887 102.919C66.1177 102.865 66.1457 102.812 66.1747 102.759C65.9967 102.677 65.8177 102.595 65.6387 102.514C65.6107 102.58 65.5827 102.648 65.5547 102.714C65.7327 102.782 65.9107 102.85 66.0887 102.919Z" fill="#F2F2F2"/>
<path d="M39.7793 98.4596C39.8253 98.5376 39.8723 98.6156 39.9183 98.6936H40.2153C40.1213 98.5856 40.0273 98.4776 39.9333 98.3696C39.8823 98.3996 39.8313 98.4296 39.7793 98.4596Z" fill="#F2F2F2"/>
<path d="M7.15019 98.0898C7.19319 98.0378 7.23621 97.9848 7.27921 97.9328C7.18221 97.8678 7.0852 97.8028 6.9872 97.7378H6.6582C6.8232 97.8548 6.98719 97.9718 7.15019 98.0898Z" fill="#F2F2F2"/>
<path d="M0.960526 105.567C0.938526 105.584 0.916531 105.6 0.894531 105.617C0.916531 105.637 0.938526 105.657 0.960526 105.677V105.567Z" fill="#F2F2F2"/>
<path d="M6.12666 84.7207V84.4507C6.00566 84.5547 5.88467 84.6567 5.76367 84.7597C5.82067 84.8077 5.87966 84.8557 5.93666 84.9017C6.00066 84.8417 6.06366 84.7807 6.12666 84.7207Z" fill="#F2F2F2"/>
<path d="M3.72693 63.267C3.62093 63.284 3.52192 63.342 3.41992 63.384C3.43192 63.437 3.44592 63.492 3.45892 63.547C3.63292 63.513 3.80692 63.479 3.97992 63.445C3.88792 63.301 3.80193 63.255 3.72693 63.267Z" fill="#F2F2F2"/>
<path d="M65.9858 98.1517C66.0098 98.1137 66.0338 98.0747 66.0578 98.0357C65.9408 97.9657 65.8238 97.8957 65.7058 97.8267C65.6678 97.8767 65.6298 97.9267 65.5918 97.9767C65.7238 98.0347 65.8548 98.0937 65.9858 98.1517Z" fill="#F2F2F2"/>
<path d="M9.37868 42.5779V42.4189C9.25668 42.4589 9.13467 42.4989 9.01367 42.5399C9.04367 42.5969 9.07268 42.656 9.10268 42.713C9.19468 42.668 9.28668 42.6229 9.37868 42.5779Z" fill="#F2F2F2"/>
<path d="M62.2227 98.5346C62.2397 98.5876 62.2556 98.6406 62.2726 98.6936H62.4926C62.4566 98.6206 62.4206 98.5466 62.3846 98.4736C62.3306 98.4946 62.2767 98.5156 62.2227 98.5346Z" fill="#F2F2F2"/>
<path d="M24.0991 98.5269C23.9431 98.5419 23.7871 98.5558 23.6311 98.5688C23.6271 98.6108 23.6231 98.6518 23.6191 98.6928H24.0151C24.0511 98.6888 24.0871 98.6848 24.1241 98.6808C24.1161 98.6318 24.1071 98.5779 24.0991 98.5269Z" fill="#F2F2F2"/>
<path d="M2.35815 98.0918C2.33315 98.1348 2.30916 98.1778 2.28516 98.2218C2.39816 98.2898 2.51116 98.3578 2.62416 98.4248C2.65916 98.3678 2.69416 98.3118 2.72916 98.2548C2.60516 98.1998 2.48115 98.1458 2.35815 98.0918Z" fill="#F2F2F2"/>
<path d="M5.22441 47.5697C5.07441 47.4957 4.9264 47.4207 4.7774 47.3467C4.7484 47.3927 4.71941 47.4377 4.69141 47.4827C4.82941 47.5657 4.9674 47.6477 5.1064 47.7297C5.1454 47.6757 5.18541 47.6227 5.22441 47.5697Z" fill="#F2F2F2"/>
<path d="M8.47588 85.104C8.50188 85.049 8.52888 84.994 8.55588 84.938C8.51088 84.923 8.46688 84.908 8.42188 84.894V85.08C8.43987 85.088 8.45788 85.096 8.47588 85.104Z" fill="#F2F2F2"/>
<path d="M29.8575 102.187C29.9235 102.142 29.9895 102.098 30.0545 102.054C29.9425 101.964 29.8315 101.872 29.7185 101.782C29.6805 101.817 29.6425 101.853 29.6035 101.888C29.6875 101.988 29.7725 102.087 29.8575 102.187Z" fill="#F2F2F2"/>
<path d="M33.3125 101.076C33.4895 101.106 33.6575 101.133 33.8235 101.161C33.8365 101.109 33.8495 101.057 33.8625 101.005C33.8285 101 33.7945 100.996 33.7595 100.991H33.3445C33.3365 101.014 33.3255 101.043 33.3125 101.076Z" fill="#F2F2F2"/>
<path d="M54.8382 102.353C54.9702 102.316 55.1031 102.277 55.2341 102.241C55.2171 102.18 55.2002 102.121 55.1832 102.06C55.0512 102.117 54.9172 102.174 54.7852 102.23C54.8032 102.271 54.8202 102.312 54.8382 102.353Z" fill="#F2F2F2"/>
<path d="M4.8467 61.9788C4.7667 61.8958 4.7107 61.8108 4.6867 61.8178C4.6097 61.8388 4.5347 61.8888 4.4817 61.9448C4.4697 61.9568 4.5487 62.0828 4.5787 62.0798C4.6587 62.0728 4.7347 62.0258 4.8467 61.9788Z" fill="#F2F2F2"/>
<path d="M40.6048 102.236C40.7008 102.182 40.7978 102.128 40.8938 102.073C41.2988 102.234 41.2988 102.234 41.6078 101.955C41.3218 101.977 41.1198 101.994 40.9178 102.01C40.7808 102.031 40.6448 102.05 40.5078 102.072C40.5398 102.127 40.5718 102.182 40.6048 102.236Z" fill="#F2F2F2"/>
<path d="M44.5734 101.6C44.7254 101.567 44.8774 101.532 45.0304 101.499C45.0074 101.442 44.9834 101.384 44.9604 101.327C44.8164 101.38 44.6704 101.433 44.5254 101.488C44.5414 101.524 44.5574 101.562 44.5734 101.6Z" fill="#F2F2F2"/>
<path d="M25.4144 102.067C25.5194 102.056 25.6234 102.046 25.7284 102.036C25.7224 101.988 25.7174 101.941 25.7114 101.894C25.6074 101.904 25.5024 101.913 25.3984 101.923C25.4034 101.97 25.4094 102.019 25.4144 102.067Z" fill="#F2F2F2"/>
<path d="M33.4462 98.5088C33.5062 98.4818 33.5652 98.4567 33.6242 98.4297C33.5572 98.3317 33.4891 98.2328 33.4221 98.1348C33.3771 98.1598 33.3312 98.1827 33.2852 98.2057C33.3402 98.3067 33.3932 98.4078 33.4462 98.5088Z" fill="#F2F2F2"/>
<path d="M3.25687 70.793C3.32387 70.812 3.39086 70.831 3.45786 70.85C3.46886 70.805 3.47887 70.762 3.48987 70.718C3.40887 70.693 3.33386 70.67 3.25586 70.646V70.793H3.25687Z" fill="#F2F2F2"/>
<path d="M3.32587 47.4438C3.30287 47.4558 3.27986 47.4669 3.25586 47.4789V47.6638C3.30786 47.6388 3.36086 47.6129 3.41286 47.5889C3.38486 47.5409 3.35487 47.4928 3.32587 47.4438Z" fill="#F2F2F2"/>
<path d="M6.1256 66.1868C6.0296 66.1688 5.9326 66.1518 5.8356 66.1348C5.8266 66.1798 5.81759 66.2228 5.80859 66.2678C5.91359 66.2878 6.0196 66.3068 6.1256 66.3258V66.1868Z" fill="#F2F2F2"/>
<path d="M5.89632 77.147C5.78832 77.169 5.67931 77.192 5.57031 77.215C5.57531 77.249 5.58031 77.283 5.58531 77.317C5.69531 77.317 5.80431 77.317 5.91431 77.317C5.90831 77.261 5.90232 77.204 5.89632 77.147Z" fill="#F2F2F2"/>
<path d="M27.4101 103.336C27.5131 103.307 27.6161 103.279 27.7201 103.25C27.7061 103.211 27.6931 103.17 27.6801 103.131C27.5771 103.161 27.4741 103.189 27.3711 103.218C27.3831 103.257 27.3971 103.296 27.4101 103.336Z" fill="#F2F2F2"/>
<path d="M4.61336 55.8619C4.61536 55.8219 4.53036 55.7759 4.48336 55.7329C4.43436 55.7779 4.35735 55.8169 4.34435 55.8689C4.33635 55.9069 4.41035 55.9609 4.46535 56.0309C4.53335 55.9589 4.60936 55.9119 4.61336 55.8619Z" fill="#F2F2F2"/>
<path d="M9.24217 104.425C9.28717 104.412 9.33217 104.398 9.37717 104.386V104.256C9.31817 104.273 9.26017 104.29 9.20117 104.307C9.21517 104.347 9.22917 104.385 9.24217 104.425Z" fill="#F2F2F2"/>
<path d="M63.9478 102.783C63.9398 102.814 64.0318 102.9 64.0738 102.897C64.1298 102.894 64.1828 102.828 64.2628 102.77C64.1878 102.718 64.1288 102.647 64.0858 102.654C64.0298 102.664 63.9598 102.73 63.9478 102.783Z" fill="#F2F2F2"/>
<path d="M3.84805 55.0827C3.74505 55.0527 3.64205 55.0227 3.53905 54.9937C3.52505 55.0327 3.51105 55.0726 3.49805 55.1116C3.60005 55.1416 3.70305 55.1707 3.80505 55.2007C3.82005 55.1607 3.83305 55.1217 3.84805 55.0827Z" fill="#F2F2F2"/>
<path d="M5.94017 50.5129C5.85417 50.4459 5.76817 50.3809 5.68217 50.3149C5.64717 50.3459 5.61217 50.3789 5.57617 50.4099C5.65017 50.4859 5.72517 50.5619 5.80017 50.6359C5.84717 50.5949 5.89317 50.5539 5.94017 50.5129Z" fill="#F2F2F2"/>
<path d="M5.74818 64.2228C5.75518 64.2748 5.82118 64.3479 5.87318 64.3579C5.91618 64.3659 5.97718 64.2919 6.05418 64.2369C5.98018 64.1809 5.93018 64.1149 5.87818 64.1119C5.83318 64.1099 5.74418 64.1878 5.74818 64.2228Z" fill="#F2F2F2"/>
<path d="M4.74219 42.8478C4.84519 42.8758 4.94819 42.9038 5.05219 42.9318C5.06419 42.8928 5.07719 42.8528 5.08919 42.8138C4.98519 42.7898 4.88019 42.7628 4.77519 42.7378C4.76519 42.7738 4.75419 42.8118 4.74219 42.8478Z" fill="#F2F2F2"/>
<path d="M8.67635 83.3077C8.63435 83.3057 8.53935 83.3916 8.54735 83.4226C8.56035 83.4746 8.62936 83.5416 8.68636 83.5516C8.73036 83.5596 8.79035 83.4887 8.86635 83.4377C8.78635 83.3797 8.73435 83.3127 8.67635 83.3077Z" fill="#F2F2F2"/>
<path d="M5.56134 88.9858C5.46734 89.0638 5.37234 89.1409 5.27734 89.2179C5.31834 89.2569 5.35934 89.2968 5.40034 89.3358C5.48534 89.2448 5.56935 89.1529 5.65335 89.0619C5.62335 89.0369 5.59234 89.0098 5.56134 88.9858Z" fill="#F2F2F2"/>
<path d="M9.14197 59.9678C9.22097 59.9228 9.29996 59.8788 9.37796 59.8338V59.6958C9.26596 59.7428 9.15497 59.7888 9.04297 59.8358C9.07697 59.8798 9.10997 59.9248 9.14197 59.9678Z" fill="#F2F2F2"/>
<path d="M9.37999 56.2429V56.1709C9.36599 56.1879 9.34898 56.2009 9.33398 56.2169C9.34598 56.2229 9.36599 56.2349 9.37999 56.2429Z" fill="#F2F2F2"/>
<path d="M1.24954 98.3896C1.18654 98.4586 1.12355 98.5286 1.06055 98.5966C1.09355 98.6226 1.12754 98.6487 1.16054 98.6747C1.22554 98.6077 1.29055 98.5396 1.35555 98.4716C1.31955 98.4456 1.28454 98.4176 1.24954 98.3896Z" fill="#F2F2F2"/>
<path d="M4.65648 54.22C4.75048 54.22 4.84548 54.22 4.93948 54.22C4.93448 54.173 4.93148 54.129 4.92548 54.084C4.83248 54.097 4.74048 54.109 4.64648 54.12C4.64948 54.153 4.65348 54.186 4.65648 54.22Z" fill="#F2F2F2"/>
<path d="M8.42188 54.8767C8.44387 54.8477 8.46487 54.8187 8.48587 54.7887C8.46487 54.7747 8.44287 54.7567 8.42188 54.7427V54.8767Z" fill="#F2F2F2"/>
<path d="M8.80106 56.1826C8.74206 56.2406 8.68205 56.2996 8.62305 56.3566C8.66505 56.3876 8.70806 56.4186 8.75006 56.4496C8.79306 56.3766 8.83706 56.3026 8.88106 56.2296C8.85406 56.2146 8.82806 56.1986 8.80106 56.1826Z" fill="#F2F2F2"/>
<path d="M6.12592 45.5098V45.3857C6.09892 45.3957 6.07192 45.4067 6.04492 45.4167C6.06192 45.4517 6.07992 45.4867 6.09592 45.5217C6.10592 45.5177 6.11592 45.5138 6.12592 45.5098Z" fill="#F2F2F2"/>
<path d="M9.23438 49.2469C9.28238 49.2629 9.33038 49.2799 9.37938 49.2959V49.1809C9.34338 49.1699 9.30837 49.1589 9.27237 49.1489C9.25937 49.1809 9.24638 49.2139 9.23438 49.2469Z" fill="#F2F2F2"/>
<path d="M4.12187 51.1178C4.10487 51.0878 4.08689 51.0588 4.06989 51.0288C3.97889 51.0598 3.88787 51.0898 3.79688 51.1218C3.82388 51.1698 3.85188 51.2178 3.87788 51.2648C3.95988 51.2168 4.04087 51.1668 4.12187 51.1178Z" fill="#F2F2F2"/>
<path d="M5.74823 48.6911C5.77823 48.6441 5.81424 48.6011 5.83324 48.5521C5.83624 48.5441 5.74624 48.4881 5.73424 48.4971C5.68624 48.5291 5.65323 48.5781 5.61523 48.6201C5.65123 48.6401 5.68723 48.6591 5.74823 48.6911Z" fill="#F2F2F2"/>
<path d="M14.7528 97.895C14.7578 97.86 14.7628 97.825 14.7678 97.79C14.6738 97.776 14.5788 97.762 14.4848 97.75C14.4778 97.789 14.4728 97.83 14.4668 97.869C14.5628 97.877 14.6578 97.887 14.7528 97.895Z" fill="#F2F2F2"/>
<path d="M33.9395 97.8348C33.9975 97.8538 34.0545 97.8748 34.1145 97.8858C34.1205 97.8878 34.1415 97.8198 34.1645 97.7658C34.1125 97.7538 34.0635 97.7418 34.0145 97.7368H33.9815C33.9665 97.7458 33.9535 97.8008 33.9395 97.8348Z" fill="#F2F2F2"/>
<path d="M63.9532 98.0667C64.0562 98.0607 64.1602 98.0546 64.2632 98.0486C64.2622 98.0146 64.2622 97.9816 64.2622 97.9476C64.1582 97.9426 64.0532 97.9366 63.9492 97.9316C63.9502 97.9766 63.9522 98.0227 63.9532 98.0667Z" fill="#F2F2F2"/>
<path d="M3.55391 94.9009C3.64491 94.8639 3.73491 94.8269 3.82591 94.7889C3.80991 94.7559 3.7939 94.7229 3.7769 94.6899C3.6869 94.7259 3.59491 94.7619 3.50391 94.7979C3.52091 94.8329 3.53691 94.8669 3.55391 94.9009Z" fill="#F2F2F2"/>
<path d="M49.6407 101.576C49.6907 101.551 49.7557 101.537 49.7627 101.51C49.7717 101.481 49.7267 101.44 49.7047 101.403C49.6537 101.431 49.6027 101.458 49.5527 101.485C49.5837 101.516 49.6127 101.547 49.6407 101.576Z" fill="#F2F2F2"/>
<path d="M34.4597 102.864C34.5507 102.841 34.6427 102.817 34.7337 102.793C34.7247 102.759 34.7147 102.724 34.7047 102.69C34.6117 102.709 34.5197 102.728 34.4277 102.749C34.4377 102.786 34.4487 102.824 34.4597 102.864Z" fill="#F2F2F2"/>
<path d="M38.4419 103.08C38.4419 103.047 38.4419 103.013 38.4419 102.98C38.3379 102.974 38.2329 102.968 38.1289 102.962C38.1299 103.008 38.1319 103.052 38.1339 103.098C38.2359 103.093 38.3389 103.087 38.4419 103.08Z" fill="#F2F2F2"/>
<path d="M33.9113 103.41C33.9843 103.381 34.0493 103.336 34.1173 103.295C34.0793 103.254 34.0423 103.211 34.0043 103.17C33.9443 103.222 33.8813 103.273 33.8263 103.329C33.8233 103.332 33.8973 103.415 33.9113 103.41Z" fill="#F2F2F2"/>
<path d="M62.537 103.832C62.57 103.805 62.604 103.779 62.637 103.751C62.619 103.712 62.601 103.675 62.584 103.635C62.542 103.653 62.501 103.67 62.459 103.687C62.485 103.735 62.511 103.784 62.537 103.832Z" fill="#F2F2F2"/>
<path d="M18.6348 103.842C18.6468 103.848 18.6598 103.855 18.6718 103.861H18.9288C18.8528 103.82 18.7778 103.778 18.7018 103.737C18.6798 103.772 18.6568 103.807 18.6348 103.842Z" fill="#F2F2F2"/>
<path d="M66.6166 103.851C66.6486 103.834 66.7066 103.82 66.7236 103.788C66.7366 103.765 66.6956 103.718 66.6796 103.681C66.6256 103.711 66.5716 103.74 66.5176 103.769C66.5506 103.795 66.5836 103.822 66.6166 103.851Z" fill="#F2F2F2"/>
<path d="M4.45348 76.406C4.54348 76.37 4.63249 76.334 4.72249 76.297C4.69249 76.253 4.66148 76.209 4.63248 76.165C4.55348 76.215 4.47448 76.265 4.39648 76.315C4.41448 76.344 4.43348 76.375 4.45348 76.406Z" fill="#F2F2F2"/>
<path d="M19.8288 101.322C19.8438 101.276 19.8578 101.231 19.8718 101.185C19.7878 101.163 19.7028 101.139 19.6188 101.117C19.6118 101.156 19.5858 101.222 19.5998 101.23C19.6708 101.269 19.7518 101.293 19.8288 101.322Z" fill="#F2F2F2"/>
<path d="M8.78119 74.755C8.76719 74.717 8.7522 74.644 8.7392 74.644C8.6562 74.646 8.57419 74.664 8.49219 74.677C8.50519 74.725 8.51919 74.772 8.53319 74.82C8.61519 74.798 8.69819 74.777 8.78119 74.755Z" fill="#F2F2F2"/>
<path d="M20.7364 101.592C20.7414 101.557 20.7454 101.522 20.7494 101.487C20.6514 101.476 20.5524 101.467 20.4544 101.456C20.4494 101.491 20.4454 101.525 20.4414 101.559C20.5394 101.57 20.6374 101.582 20.7364 101.592Z" fill="#F2F2F2"/>
<path d="M4.1291 92.7666C4.0941 92.7396 4.0601 92.6926 4.0211 92.6896C3.9871 92.6866 3.94811 92.7316 3.91211 92.7566C3.96111 92.7926 4.00911 92.8286 4.05711 92.8646C4.08211 92.8316 4.1061 92.7996 4.1291 92.7666Z" fill="#F2F2F2"/>
<path d="M4.08316 84.7947C4.01116 84.7627 3.93916 84.7257 3.86316 84.7047C3.85116 84.7017 3.78915 84.7957 3.79315 84.7997C3.85615 84.8487 3.92715 84.8887 3.99515 84.9327C4.02515 84.8857 4.05416 84.8397 4.08316 84.7947Z" fill="#F2F2F2"/>
<path d="M5.37627 64.4119C5.29527 64.3729 5.21426 64.3349 5.13226 64.2949C5.11226 64.3289 5.09227 64.3629 5.07227 64.3979C5.15227 64.4369 5.23427 64.4769 5.31427 64.5159C5.33527 64.4819 5.35627 64.4469 5.37627 64.4119Z" fill="#F2F2F2"/>
<path d="M3.48485 59.605C3.40885 59.597 3.33286 59.59 3.25586 59.582V59.686C3.32786 59.694 3.39886 59.702 3.47086 59.711C3.47586 59.676 3.47985 59.64 3.48485 59.605Z" fill="#F2F2F2"/>
<path d="M9.37901 60.7461C9.35001 60.7691 9.32202 60.7891 9.29102 60.8151C9.32502 60.8341 9.35501 60.8531 9.37901 60.8681V60.7461Z" fill="#F2F2F2"/>
<path d="M5.83524 70.0757C5.80024 70.0327 5.77023 69.9837 5.72523 69.9527C5.71023 69.9427 5.65323 69.9847 5.61523 70.0027C5.64423 70.0497 5.67322 70.0967 5.70222 70.1447C5.76122 70.1157 5.79824 70.0947 5.83524 70.0757Z" fill="#F2F2F2"/>
<path d="M8.42188 70.097C8.47287 70.055 8.52387 70.013 8.57487 69.972C8.52387 69.927 8.47287 69.8809 8.42188 69.8359V70.097Z" fill="#F2F2F2"/>
<path d="M5.55423 72.557C5.46423 72.524 5.37523 72.492 5.28523 72.46C5.27023 72.495 5.25623 72.53 5.24023 72.565C5.33123 72.596 5.42224 72.624 5.51224 72.654C5.52624 72.623 5.54023 72.59 5.55423 72.557Z" fill="#F2F2F2"/>
<path d="M4.94577 71.959C4.84277 71.964 4.73876 71.971 4.63576 71.977C4.63576 72.01 4.63477 72.044 4.63477 72.078C4.73877 72.082 4.84376 72.089 4.94876 72.094C4.94776 72.048 4.94677 72.003 4.94577 71.959Z" fill="#F2F2F2"/>
<path d="M8.42188 66.4579C8.43488 66.4619 8.44887 66.4659 8.46187 66.4699C8.47387 66.4329 8.48688 66.3959 8.49988 66.3579C8.47388 66.3509 8.44787 66.3449 8.42287 66.3379L8.42188 66.4579Z" fill="#F2F2F2"/>
<path d="M4.46677 65.332C4.54277 65.31 4.61377 65.271 4.68677 65.238C4.65677 65.192 4.62777 65.1471 4.59777 65.1021C4.52877 65.1461 4.45877 65.188 4.39677 65.238C4.39177 65.242 4.45477 65.335 4.46677 65.332Z" fill="#F2F2F2"/>
<path d="M107.022 97.7368H106.453C106.625 97.8168 106.809 97.8088 107.022 97.7368Z" fill="#F2F2F2"/>
<path d="M90.0078 102.936C90.1398 102.857 90.2099 102.834 90.2509 102.789C90.3609 102.669 90.4588 102.539 90.6378 102.322C90.3808 102.179 90.1929 102.073 89.8809 101.901C89.9349 102.335 89.9678 102.609 90.0078 102.936Z" fill="#F2F2F2"/>
<path d="M98.2083 46.8658C98.0543 46.8438 97.8992 46.7678 97.7402 46.7378V47.1228C97.8082 47.1478 97.8732 47.1718 97.9462 47.1978C98.0352 47.1558 98.1822 47.0898 98.3282 47.0228C98.2882 46.9718 98.2483 46.9198 98.2083 46.8658Z" fill="#F2F2F2"/>
<path d="M83.8298 101.284C83.8718 101.241 83.9138 101.198 83.9558 101.155C83.9248 101.102 83.8908 101.044 83.8588 100.99H83.4648C83.5838 101.09 83.7088 101.186 83.8298 101.284Z" fill="#F2F2F2"/>
<path d="M100.992 61.9628V62.1498C101.017 62.0818 101.042 62.0108 101.065 61.9458C101.037 61.9518 101.017 61.9568 100.992 61.9628Z" fill="#F2F2F2"/>
<path d="M89.4212 102.58C89.0752 102.563 88.8132 102.55 88.4902 102.534C88.8922 103.111 88.9862 103.112 89.4212 102.58Z" fill="#F2F2F2"/>
<path d="M96.1299 98.019C95.8939 98.035 95.6569 98.051 95.4199 98.066C95.4269 98.141 95.4319 98.218 95.4399 98.292C95.6759 98.273 95.9129 98.255 96.1479 98.235C96.1419 98.163 96.1369 98.091 96.1299 98.019Z" fill="#F2F2F2"/>
<path d="M98.6972 41.3409C98.6672 41.3329 98.6362 41.3249 98.6062 41.3169C98.5822 41.3809 98.5572 41.4449 98.5332 41.5069C98.5882 41.5259 98.6422 41.5459 98.6972 41.5649V41.3409Z" fill="#F2F2F2"/>
<path d="M98.3234 85.1777C98.1684 85.3077 98.0124 85.4357 97.8574 85.5647C97.9034 85.6187 97.9484 85.6737 97.9944 85.7277C98.1654 85.6237 98.3384 85.5167 98.5094 85.4107C98.4474 85.3327 98.3864 85.2557 98.3234 85.1777Z" fill="#F2F2F2"/>
<path d="M103.448 55.5591C103.344 55.7511 103.25 55.9261 103.107 56.1931C103.645 55.9741 103.645 55.9741 103.448 55.5591Z" fill="#F2F2F2"/>
<path d="M98.0102 93.0229C97.9202 93.0589 97.8302 93.0969 97.7402 93.1339V93.3289C97.8532 93.2949 97.9662 93.261 98.0782 93.227C98.0552 93.16 98.0332 93.0909 98.0102 93.0229Z" fill="#F2F2F2"/>
<path d="M96.9004 98.3857C96.9014 98.4307 96.9014 98.4757 96.9024 98.5217C97.0934 98.5217 97.2864 98.5217 97.4784 98.5217C97.4784 98.4757 97.4774 98.4307 97.4774 98.3857C97.2854 98.3857 97.0934 98.3857 96.9004 98.3857Z" fill="#F2F2F2"/>
<path d="M101.231 87.9229C101.151 87.9329 101.072 87.9418 100.992 87.9518V88.1198C101.079 88.1198 101.166 88.1198 101.254 88.1198C101.246 88.0548 101.238 87.9889 101.231 87.9229Z" fill="#F2F2F2"/>
<path d="M101.391 88.981C101.258 88.981 101.125 88.981 100.992 88.981V89.0999C101.122 89.0999 101.252 89.0999 101.382 89.0999C101.385 89.0609 101.388 89.021 101.391 88.981Z" fill="#F2F2F2"/>
<path d="M102.721 86.542C102.445 86.542 102.17 86.542 101.893 86.542C101.894 86.572 101.894 86.602 101.894 86.631C102.153 86.631 102.412 86.631 102.672 86.631C102.688 86.602 102.704 86.572 102.721 86.542Z" fill="#F2F2F2"/>
<path d="M103.864 95.4698C103.816 95.4408 103.767 95.4109 103.718 95.3809C103.679 95.4369 103.641 95.4948 103.602 95.5508C103.689 95.6208 103.776 95.6909 103.863 95.7599L103.864 95.4698Z" fill="#F2F2F2"/>
<path d="M101.436 84.3547C101.288 84.2817 101.14 84.2097 100.992 84.1377V84.3457C101.104 84.4027 101.217 84.4597 101.329 84.5177C101.365 84.4627 101.401 84.4087 101.436 84.3547Z" fill="#F2F2F2"/>
<path d="M80.1426 101.577C80.1646 101.631 80.1846 101.684 80.2056 101.74C80.3676 101.698 80.5286 101.655 80.6896 101.612C80.6686 101.545 80.6476 101.477 80.6266 101.41C80.4656 101.467 80.3036 101.522 80.1426 101.577Z" fill="#F2F2F2"/>
<path d="M102.559 55.4997C102.527 55.4547 102.496 55.4097 102.465 55.3657C102.32 55.4427 102.176 55.5207 102.031 55.5997C102.073 55.6507 102.115 55.7027 102.158 55.7537C102.291 55.6687 102.424 55.5847 102.559 55.4997Z" fill="#F2F2F2"/>
<path d="M78.4562 97.9599C78.2822 98.0329 78.1082 98.1079 77.9332 98.1819C77.8222 98.0869 77.7102 97.9929 77.5982 97.8989C77.5632 97.9399 77.5272 97.9819 77.4922 98.0229C77.6242 98.0879 77.7562 98.1539 77.8882 98.2189C78.2152 98.4279 78.3792 98.2869 78.4562 97.9599Z" fill="#F2F2F2"/>
<path d="M98.4256 90.877C98.2616 90.896 98.0976 90.9169 97.9336 90.9359C97.9356 91.0029 97.9376 91.0679 97.9406 91.1349C98.1116 91.0959 98.2836 91.0559 98.4546 91.0169C98.4456 90.9699 98.4346 90.923 98.4256 90.877Z" fill="#F2F2F2"/>
<path d="M102.944 42.9577C102.776 42.9277 102.609 42.8967 102.442 42.8667C102.43 42.9157 102.418 42.9647 102.406 43.0137C102.567 43.0547 102.728 43.0987 102.889 43.1427C102.907 43.0797 102.925 43.0187 102.944 42.9577Z" fill="#F2F2F2"/>
<path d="M78.3398 101.689C78.4898 101.654 78.6398 101.62 78.7898 101.586C78.7758 101.534 78.7628 101.482 78.7498 101.429C78.5988 101.462 78.4488 101.495 78.2988 101.527C78.3118 101.58 78.3258 101.635 78.3398 101.689Z" fill="#F2F2F2"/>
<path d="M101.768 76.7368C101.644 76.7898 101.52 76.8428 101.396 76.8958C101.418 76.9418 101.44 76.9868 101.462 77.0328C101.586 76.9998 101.709 76.9658 101.833 76.9338C101.811 76.8688 101.79 76.8028 101.768 76.7368Z" fill="#F2F2F2"/>
<path d="M101.783 91.9658C101.633 92.0048 101.483 92.0438 101.334 92.0828C101.22 92.0728 101.106 92.0638 100.992 92.0538V92.1928C101.099 92.1758 101.205 92.1588 101.312 92.1418C101.474 92.1598 101.636 92.1778 101.798 92.1968C101.792 92.1208 101.788 92.0428 101.783 91.9658Z" fill="#F2F2F2"/>
<path d="M90.3047 100.99C90.3137 101.021 90.3227 101.052 90.3317 101.083C90.4617 101.052 90.5917 101.021 90.7217 100.99H90.3047Z" fill="#F2F2F2"/>
<path d="M86.8525 98.0947C86.8105 98.1267 86.7705 98.1597 86.7285 98.1917C86.8365 98.2997 86.9435 98.4077 87.0515 98.5157C87.0905 98.4847 87.1305 98.4527 87.1695 98.4227C87.0635 98.3127 86.9585 98.2037 86.8525 98.0947Z" fill="#F2F2F2"/>
<path d="M75.6627 97.8428C75.7467 97.8068 75.8307 97.7718 75.9147 97.7368H75.5547C75.5907 97.7728 75.6267 97.8078 75.6627 97.8428Z" fill="#F2F2F2"/>
<path d="M96.3469 102.524C96.4029 102.457 96.474 102.409 96.474 102.363C96.475 102.313 96.4059 102.264 96.3679 102.215C96.3069 102.267 96.237 102.313 96.194 102.375C96.185 102.389 96.2789 102.459 96.3469 102.524Z" fill="#F2F2F2"/>
<path d="M103.583 67.7427C103.578 67.8307 103.573 67.9187 103.568 68.0057C103.667 67.9927 103.765 67.9787 103.863 67.9647V67.8057C103.77 67.7847 103.677 67.7647 103.583 67.7427Z" fill="#F2F2F2"/>
<path d="M101.618 46.369C101.615 46.315 101.611 46.261 101.608 46.208C101.478 46.221 101.348 46.233 101.217 46.245C101.222 46.293 101.226 46.342 101.231 46.388C101.361 46.382 101.49 46.376 101.618 46.369Z" fill="#F2F2F2"/>
<path d="M102.605 76.6067C102.59 76.5487 102.508 76.5027 102.387 76.3867C102.387 76.5967 102.387 76.7047 102.387 76.8107C102.443 76.8147 102.499 76.8177 102.555 76.8207C102.574 76.7497 102.621 76.6727 102.605 76.6067Z" fill="#F2F2F2"/>
<path d="M80.8849 103.743C80.8339 103.657 80.7839 103.571 80.7319 103.486C80.6699 103.518 80.6079 103.552 80.5449 103.585C80.6169 103.665 80.6889 103.744 80.7609 103.824C80.8029 103.798 80.8439 103.77 80.8849 103.743Z" fill="#F2F2F2"/>
<path d="M76.8521 101.952C76.8661 101.952 76.8841 101.879 76.9111 101.817C76.8391 101.807 76.7731 101.788 76.7101 101.797C76.6881 101.799 76.6772 101.868 76.6602 101.906C76.7242 101.925 76.7871 101.947 76.8521 101.952Z" fill="#F2F2F2"/>
<path d="M102.264 52.0128C102.346 52.0668 102.428 52.1208 102.509 52.1748C102.535 52.1488 102.561 52.1218 102.587 52.0948C102.524 52.0248 102.462 51.9548 102.398 51.8848C102.354 51.9268 102.309 51.9698 102.264 52.0128Z" fill="#F2F2F2"/>
<path d="M103.584 65.0388C103.674 65.0738 103.769 65.1028 103.862 65.1308L103.863 65.1288V65.0008C103.784 64.9758 103.704 64.9508 103.624 64.9258C103.609 64.9648 103.58 65.0378 103.584 65.0388Z" fill="#F2F2F2"/>
<path d="M101.697 83.3338C101.59 83.3078 101.483 83.2828 101.376 83.2568C101.364 83.2938 101.353 83.3298 101.342 83.3668C101.448 83.3958 101.553 83.4238 101.659 83.4528C101.671 83.4148 101.684 83.3738 101.697 83.3338Z" fill="#F2F2F2"/>
<path d="M103.621 93.845C103.702 93.836 103.783 93.826 103.863 93.816V93.689C103.783 93.689 103.702 93.689 103.622 93.689C103.622 93.741 103.622 93.793 103.621 93.845Z" fill="#F2F2F2"/>
<path d="M98.1415 89.835C98.1295 89.874 98.1165 89.915 98.1035 89.954C98.2105 89.98 98.3175 90.006 98.4245 90.032C98.4345 89.995 98.4465 89.958 98.4575 89.92C98.3535 89.892 98.2475 89.863 98.1415 89.835Z" fill="#F2F2F2"/>
<path d="M102.17 88.3791C102.076 88.3351 101.982 88.2911 101.888 88.2461C101.865 88.2771 101.842 88.3081 101.82 88.3381C101.897 88.3971 101.974 88.4571 102.05 88.5181C102.09 88.4711 102.13 88.4261 102.17 88.3791Z" fill="#F2F2F2"/>
<path d="M102.01 85.291C101.869 85.306 101.729 85.321 101.588 85.336C101.593 85.373 101.599 85.41 101.603 85.448C101.744 85.431 101.884 85.415 102.023 85.398C102.02 85.362 102.015 85.327 102.01 85.291Z" fill="#F2F2F2"/>
<path d="M102.522 92.026C102.536 92.027 102.556 91.955 102.584 91.893C102.512 91.882 102.447 91.862 102.385 91.87C102.363 91.872 102.349 91.941 102.332 91.979C102.394 91.997 102.457 92.021 102.522 92.026Z" fill="#F2F2F2"/>
<path d="M101.16 95.7087C101.2 95.7917 101.241 95.8747 101.281 95.9557C101.321 95.9387 101.362 95.9217 101.404 95.9037C101.361 95.8227 101.318 95.7397 101.275 95.6597C101.236 95.6757 101.198 95.6927 101.16 95.7087Z" fill="#F2F2F2"/>
<path d="M103.295 96.8668C103.351 96.8668 103.408 96.8048 103.493 96.7548C103.416 96.6998 103.362 96.6318 103.312 96.6338C103.26 96.6358 103.212 96.7068 103.162 96.7488C103.206 96.7918 103.249 96.8668 103.295 96.8668Z" fill="#F2F2F2"/>
<path d="M84.3128 98.4629C84.2608 98.4709 84.1948 98.5448 84.1878 98.5978C84.1828 98.6258 84.2428 98.6769 84.2888 98.6949H84.3428C84.3868 98.6769 84.4318 98.6319 84.4948 98.5839C84.4158 98.5299 84.3558 98.4559 84.3128 98.4629Z" fill="#F2F2F2"/>
<path d="M67.2965 98.4878C67.2745 98.5188 67.2515 98.5498 67.2285 98.5798C67.2765 98.6178 67.3235 98.6558 67.3715 98.6938H67.5865C67.5985 98.6798 67.6095 98.6658 67.6215 98.6508C67.5135 98.5968 67.4055 98.5428 67.2965 98.4878Z" fill="#F2F2F2"/>
<path d="M97.9292 95.1547C97.8622 95.1457 97.8002 95.1308 97.7402 95.1358V95.2587C97.7832 95.2717 97.8262 95.2857 97.8702 95.2887C97.8842 95.2897 97.9032 95.2167 97.9292 95.1547Z" fill="#F2F2F2"/>
<path d="M103.829 54.6568C103.84 54.6398 103.852 54.6218 103.863 54.6048V54.4048C103.805 54.4588 103.747 54.5118 103.688 54.5658C103.734 54.5958 103.781 54.6258 103.829 54.6568Z" fill="#F2F2F2"/>
<path d="M101.452 44.9736C101.362 45.0016 101.273 45.0286 101.184 45.0556C101.197 45.0916 101.21 45.1266 101.223 45.1626C101.313 45.1366 101.402 45.1096 101.493 45.0836C101.479 45.0466 101.466 45.0096 101.452 44.9736Z" fill="#F2F2F2"/>
<path d="M93.1709 97.959C93.0869 98.006 93.0039 98.051 92.9199 98.097C92.9369 98.128 92.9519 98.16 92.9679 98.19C93.0599 98.16 93.1519 98.132 93.2439 98.103C93.2199 98.056 93.1959 98.007 93.1709 97.959Z" fill="#F2F2F2"/>
<path d="M69.7267 98.5918C69.7257 98.6258 69.7247 98.6598 69.7227 98.6938H69.9626C69.9636 98.6738 69.9637 98.6528 69.9657 98.6328C69.8857 98.6198 69.8067 98.6058 69.7267 98.5918Z" fill="#F2F2F2"/>
<path d="M102.619 96.0049C102.669 96.0329 102.719 96.0609 102.769 96.0899C102.791 96.0539 102.814 96.0189 102.836 95.9829C102.797 95.9619 102.756 95.9239 102.72 95.9269C102.683 95.9309 102.652 95.9779 102.619 96.0049Z" fill="#F2F2F2"/>
<path d="M69.3214 102.267C69.3514 102.22 69.3875 102.177 69.4065 102.128C69.4095 102.119 69.3195 102.063 69.3075 102.072C69.2605 102.104 69.2275 102.153 69.1895 102.195C69.2245 102.214 69.2614 102.234 69.3214 102.267Z" fill="#F2F2F2"/>
<path d="M98.0345 103.186C97.9985 103.166 97.9615 103.146 97.9025 103.113C97.8715 103.16 97.8355 103.203 97.8165 103.252C97.8135 103.262 97.9035 103.317 97.9145 103.31C97.9625 103.277 97.9965 103.228 98.0345 103.186Z" fill="#F2F2F2"/>
<path d="M81.7774 103.718C81.7844 103.68 81.8094 103.613 81.7954 103.606C81.7244 103.567 81.6444 103.542 81.5664 103.514C81.5514 103.56 81.5374 103.604 81.5234 103.65C81.6074 103.672 81.6924 103.696 81.7774 103.718Z" fill="#F2F2F2"/>
<path d="M102.743 91.3311C102.706 91.4111 102.668 91.4921 102.631 91.5721C102.669 91.5861 102.708 91.6011 102.745 91.6141C102.781 91.5321 102.817 91.4511 102.852 91.3701C102.815 91.3571 102.78 91.3441 102.743 91.3311Z" fill="#F2F2F2"/>
<path d="M103.192 93.7926C103.181 93.7556 103.171 93.7186 103.16 93.6826C103.064 93.7086 102.968 93.7346 102.871 93.7596C102.882 93.7916 102.892 93.8236 102.902 93.8566C102.998 93.8346 103.096 93.8126 103.192 93.7926Z" fill="#F2F2F2"/>
<path d="M98.2899 60.256C98.2969 60.219 98.3029 60.1829 98.3089 60.1459C98.2139 60.1319 98.1189 60.119 98.0249 60.106C98.0189 60.143 98.0119 60.1809 98.0059 60.2189C98.0999 60.2319 98.1949 60.243 98.2899 60.256Z" fill="#F2F2F2"/>
<path d="M102.144 72.2337C102.112 72.2077 102.08 72.1607 102.047 72.1597C102.007 72.1587 101.967 72.1967 101.926 72.2187C101.967 72.2567 102.008 72.2947 102.049 72.3317C102.079 72.3007 102.109 72.2707 102.144 72.2337Z" fill="#F2F2F2"/>
<path d="M102.738 106.343C102.842 106.348 102.947 106.355 103.052 106.36C103.051 106.316 103.05 106.27 103.048 106.225C102.945 106.232 102.842 106.237 102.738 106.243C102.738 106.276 102.738 106.31 102.738 106.343Z" fill="#F2F2F2"/>
<path d="M26.1178 52.5757C24.891 50.5494 23.6695 48.5579 22.4284 46.5787C20.6639 43.7647 18.8782 40.964 17.1188 38.1468C16.8074 37.6481 16.5247 37.3699 15.8292 37.398C13.5887 37.4884 11.8644 35.738 12.0281 33.6751C12.1496 32.1436 13.6181 30.7709 15.2637 30.64C17.0151 30.5007 18.4669 30.9879 19.3846 32.5953C19.5322 32.854 19.7547 32.8832 20.0122 32.8789C24.5011 32.805 28.9899 32.7304 33.4789 32.6622C35.2014 32.636 36.9242 32.6072 38.6466 32.6197C39.1352 32.6232 39.4311 32.4612 39.7036 32.0626C42.8625 27.4424 46.0357 22.8319 49.2097 18.222C49.4341 17.8961 49.5463 17.6468 49.2502 17.2512C48.228 15.8859 48.4001 14.2737 49.6321 13.091C51.205 11.5809 53.985 11.6482 55.4703 13.2322C56.5312 14.3635 56.6713 15.9819 55.7446 17.2263C55.4436 17.6306 55.5126 17.8774 55.7625 18.2396C58.9645 22.8807 62.1571 27.5283 65.3397 32.1827C65.5674 32.5157 65.8291 32.6101 66.2103 32.6142C70.3519 32.659 74.4942 32.6813 78.6342 32.7893C80.7049 32.8433 82.7757 32.8123 84.8449 32.8859C85.3282 32.9031 85.6147 32.7561 85.8879 32.3314C87.3119 30.1178 90.8812 30.0012 92.4581 32.1118C93.1544 33.0437 93.3355 34.0901 92.8596 35.1886C92.3041 36.4709 91.2562 37.1118 89.9297 37.3574C89.6698 37.4055 89.3843 37.4603 89.1366 37.4018C88.5273 37.2579 88.2165 37.5262 87.9076 38.0212C84.9987 42.6814 82.0715 47.3303 79.1327 51.9717C78.8684 52.389 78.8374 52.7002 79.1109 53.1314C82.0865 57.8235 85.0459 62.5259 87.998 67.2329C88.2212 67.5889 88.4663 67.744 88.8944 67.7069C89.6891 67.6382 90.4374 67.8405 91.1452 68.2048C92.3206 68.8097 93.018 69.7741 93.0346 71.086C93.0508 72.3738 92.3734 73.3443 91.2614 73.9854C89.3031 75.1141 86.8525 74.5049 85.6819 72.571C85.4433 72.1769 85.1449 72.196 84.7997 72.2022C80.3719 72.281 75.9441 72.36 71.5163 72.4408C69.7125 72.4737 67.9089 72.5221 66.105 72.5376C65.6995 72.5411 65.4729 72.7223 65.2617 73.0312C62.3912 77.2276 59.5138 81.4194 56.6379 85.6121C56.3017 86.1023 55.9684 86.5945 55.6248 87.0795C55.4642 87.3062 55.437 87.4897 55.6276 87.7357C56.4228 88.7622 56.6134 89.8954 56.0285 91.0734C55.3887 92.3617 54.258 92.9907 52.8673 93.107C50.7982 93.28 49.1354 92.1614 48.6756 90.3625C48.4392 89.438 48.6664 88.6011 49.239 87.8789C49.5063 87.5418 49.513 87.3247 49.2745 86.9792C46.0475 82.3052 42.8303 77.6244 39.625 72.9355C39.3854 72.585 39.0889 72.5514 38.7299 72.5459C35.5931 72.4986 32.4564 72.4506 29.3199 72.3919C26.3274 72.336 23.335 72.2765 20.3432 72.1952C19.8244 72.1812 19.5106 72.3044 19.2114 72.786C17.8909 74.9111 14.4862 75.1448 12.8419 73.2648C11.1163 71.2917 12.1689 68.444 14.8558 67.8208C15.0551 67.7746 15.2699 67.6836 15.458 67.7185C16.4776 67.9077 16.9236 67.2966 17.4 66.5306C20.2148 62.0045 23.0739 57.5058 25.9164 52.9969C25.9924 52.8762 26.0488 52.7432 26.1178 52.5757ZM69.8974 38.2704C69.6816 38.0811 69.473 37.8827 69.2488 37.7037C62.4282 32.2585 54.6996 30.5436 46.245 32.4116C39.8833 33.8172 34.7955 37.2822 31.3944 42.908C28.1405 48.2905 27.6962 53.9958 30.1663 59.8082C32.5073 65.3169 36.6902 69.0265 42.1138 71.3582C46.7201 73.3385 51.5382 73.8897 56.499 73.1218C62.5335 72.1877 67.7083 69.6305 71.6615 64.8958C75.6109 60.1656 77.1134 54.7427 75.9068 48.6555C75.0939 44.5546 73.0089 41.1589 69.8974 38.2704ZM55.6341 83.1676C57.725 80.1217 59.8158 77.0757 61.9767 73.9277C61.1222 74.163 60.4193 74.3824 59.7036 74.5448C59.2094 74.657 58.8849 74.9134 58.6016 75.3339C56.9751 77.7485 55.326 80.148 53.6744 82.5456C52.9295 83.627 52.0202 83.6105 51.2837 82.5349C49.6155 80.0984 47.9416 77.6658 46.2665 75.234C46.1178 75.0182 45.9996 74.7595 45.7141 74.6816C44.8537 74.4468 43.9919 74.217 43.1144 73.9809C43.1255 74.2455 43.2897 74.3882 43.4026 74.5527C45.945 78.2547 48.4993 81.9484 51.0258 85.6612C51.369 86.1656 51.6839 86.5158 52.3467 86.2947C52.509 86.2406 52.723 86.2701 52.8928 86.3247C53.2802 86.4493 53.4926 86.2922 53.7018 85.9771C54.3139 85.0548 54.9556 84.1522 55.6341 83.1676ZM79.9959 62.3965C80.1809 62.6918 80.3652 62.9876 80.551 63.2825C81.2937 64.4617 82.0544 65.6301 82.7736 66.8235C83.2418 67.6006 82.9473 68.2268 82.0647 68.4291C81.887 68.4698 81.6998 68.481 81.5166 68.4838C78.4219 68.5323 75.3246 68.6684 72.2334 68.5845C70.6942 68.5427 70.0571 69.7005 69.0216 70.3514C69.2963 70.4265 69.5402 70.4301 69.7839 70.426C74.5377 70.3442 79.2913 70.2431 84.0454 70.1963C84.8966 70.1879 85.5574 70.1341 85.9802 69.2339C86.1835 68.8009 86.2379 68.5544 85.9815 68.1505C83.6748 64.517 81.3939 60.8672 79.092 57.2307C78.8633 56.8693 78.7031 56.437 78.279 56.1529C78.1042 56.8673 77.9653 57.5258 77.7768 58.1698C77.6678 58.5422 77.7372 58.8404 77.9391 59.1538C78.6165 60.2046 79.2789 61.2651 79.9959 62.3965ZM78.1885 34.7938C75.1413 34.7834 72.0942 34.7752 69.0417 34.7346C69.5144 35.2137 70.0086 35.5777 70.4671 35.9821C70.8393 36.3104 71.2371 36.4507 71.7389 36.4867C73.2348 36.5939 74.7306 36.5175 76.2258 36.554C78.09 36.5994 79.9546 36.6247 81.8186 36.6756C82.856 36.7039 83.2645 37.4563 82.7489 38.35C82.6773 38.4742 82.6008 38.5957 82.5245 38.7171C81.0184 41.1106 79.5106 43.503 78.0078 45.8985C77.8578 46.1377 77.6505 46.3745 77.7233 46.6863C77.8936 47.416 78.0822 48.1415 78.2644 48.8727C78.5444 48.8187 78.6216 48.6118 78.7252 48.4476C81.1312 44.6343 83.5344 40.8193 85.9327 37.0011C86.1088 36.7208 86.4418 36.4264 86.1199 36.0714C85.7184 35.6287 85.6907 34.8608 84.7583 34.8823C82.6085 34.9318 80.4538 34.9516 78.1885 34.7938ZM59.0159 26.8702C57.2723 24.3375 55.5189 21.8115 53.7952 19.2653C53.5251 18.8663 53.2351 18.7096 52.7789 18.787C52.6194 18.8141 52.4465 18.8251 52.2895 18.7941C51.7342 18.6845 51.3923 18.9026 51.0747 19.3703C48.5881 23.0329 46.0747 26.6773 43.5744 30.3306C43.453 30.5079 43.2769 30.6758 43.3328 31.0005C44.0139 30.9944 44.6197 30.6598 45.269 30.5522C45.7328 30.4753 46.0289 30.2337 46.2886 29.8522C47.9381 27.4292 49.6059 25.0187 51.2679 22.6043C52.01 21.5264 52.9614 21.5409 53.7062 22.6276C55.3866 25.0793 57.0743 27.5261 58.7603 29.974C58.8754 30.1412 58.9686 30.343 59.1824 30.4035C60.0363 30.6453 60.8927 30.8778 61.7482 31.1138C61.7758 31.0734 61.8035 31.033 61.8311 30.9927C60.9084 29.6435 59.9857 28.2943 59.0159 26.8702ZM31.4583 34.7664C28.0161 34.8127 24.5739 34.8781 21.1316 34.8919C20.2413 34.8955 19.4039 34.8444 19.0893 35.9202C19.084 35.9386 19.0684 35.9571 19.0527 35.9689C18.6572 36.2665 18.7166 36.5542 18.9696 36.9507C20.799 39.8181 22.6003 42.7033 24.4136 45.5809C25.1294 46.717 25.8531 47.848 26.6371 49.082C26.825 48.333 26.9499 47.7127 27.1411 47.1136C27.2846 46.6642 27.2194 46.3063 26.967 45.9102C25.3815 43.4221 23.8203 40.9184 22.2432 38.4248C21.9986 38.0381 21.8442 37.6502 22.0842 37.2185C22.3191 36.796 22.7237 36.6793 23.179 36.6693C24.3871 36.6428 25.5949 36.5977 26.8031 36.5829C28.7091 36.5595 30.6185 36.482 32.5204 36.5654C34.0258 36.6314 34.8491 35.654 35.8075 34.7886C34.3846 34.5696 32.9823 34.8152 31.4583 34.7664ZM21.6978 63.8629C20.9207 65.0929 20.165 66.3372 19.358 67.5473C18.9033 68.229 18.5038 68.8582 19.2987 69.5545C19.3423 69.5927 19.3692 69.6568 19.3892 69.714C19.506 70.0486 19.7308 70.172 20.0906 70.1747C20.9301 70.1811 21.7691 70.2456 22.6086 70.2576C26.8304 70.3182 31.0523 70.3706 35.2743 70.421C35.4788 70.4234 35.7059 70.4823 35.9302 70.3013C35.4003 69.8761 34.8854 69.503 34.4193 69.0766C34.043 68.7324 33.6376 68.6232 33.1376 68.6186C29.9198 68.5892 26.7022 68.534 23.4846 68.4868C23.3411 68.4847 23.1961 68.4918 23.0546 68.473C22.0382 68.3381 21.6832 67.5713 22.2312 66.7017C23.7283 64.3262 25.2194 61.9469 26.7276 59.5785C27.0613 59.0545 27.4151 58.5868 27.1051 57.8991C26.8649 57.3662 26.8936 56.7332 26.5851 56.1014C24.9324 58.7269 23.3395 61.2575 21.6978 63.8629ZM51.7164 13.1251C50.3898 13.3325 49.7387 14.074 49.9986 15.1792C50.5199 14.3111 51.3 13.7777 52.1871 13.1915C51.9542 13.1523 51.8772 13.1394 51.7164 13.1251ZM86.754 70.7595C87.2894 69.9867 88.0109 69.4209 88.9218 68.9299C88.2274 68.7686 87.7167 68.907 87.2517 69.239C86.6796 69.6474 86.4779 70.2139 86.754 70.7595ZM49.9014 88.8666C49.9074 89.0401 49.8246 89.2321 50.0494 89.4165C50.5597 88.5793 51.3296 88.0352 52.2005 87.5255C51.0575 87.3306 50.3515 87.7363 49.9014 88.8666ZM14.8644 68.8719C13.6992 69.147 13.0474 69.9767 13.4085 70.8494C13.9523 70.0266 14.6719 69.4424 15.4366 68.8654C15.2767 68.8654 15.1168 68.8654 14.8644 68.8719ZM88.6592 31.9829C88.6928 31.6547 88.4358 31.6932 88.2779 31.737C87.7487 31.8835 87.2084 32.0453 86.9081 32.5644C86.7249 32.8812 86.4837 33.2054 86.7635 33.7465C87.279 32.9927 87.8882 32.4474 88.6592 31.9829ZM13.6233 33.4712C14.051 32.7794 14.7365 32.3679 15.4496 31.8636C14.7986 31.5627 14.3509 31.9034 13.9338 32.1671C13.506 32.4376 13.2848 32.8978 13.2482 33.4052C13.2329 33.6166 13.3863 33.6883 13.6233 33.4712Z" fill="#333333"/>
<ellipse cx="52.6769" cy="52.6776" rx="22.7081" ry="20.0004" fill="#333333"/>
<ellipse cx="52.5554" cy="52.6163" rx="21.3543" ry="18.708" fill="#846758"/>
<ellipse cx="52.4937" cy="52.8006" rx="20.4312" ry="17.785" fill="#333333"/>
<path d="M64.1373 65.4982C59.9176 65.4982 56.5339 65.3688 53.9862 65.1101C51.4584 64.8513 49.279 64.294 47.4478 63.4381C45.6166 62.6022 44.084 61.3383 42.85 59.6464C41.5164 57.7157 40.8496 55.0188 40.8496 51.5555C40.8496 47.515 41.8448 44.4995 43.8352 42.5091C45.8455 40.5187 48.652 39.5235 52.2546 39.5235C55.8373 39.5235 58.6338 40.4093 60.6441 42.1807C62.6544 43.9323 63.6596 46.5596 63.6596 50.0627C63.6596 51.5754 63.4108 52.9985 62.9132 54.3321C62.4355 55.6457 61.5995 56.8599 60.4053 57.9745L60.5545 58.2731H64.1373V65.4982ZM52.2546 58.2731C53.6081 58.2731 54.2848 57.5366 54.2848 56.0637V47.0472C54.2848 45.5743 53.6081 44.8379 52.2546 44.8379C50.9011 44.8379 50.2244 45.5743 50.2244 47.0472V56.0637C50.2244 57.5366 50.9011 58.2731 52.2546 58.2731Z" fill="white"/>
</svg>
